<?xml version="1.0" encoding="UTF-8" standalone="no"?>
<svg width="961px" height="383px" viewBox="0 0 961 383" version="1.1" xmlns="http://www.w3.org/2000/svg" xmlns:xlink="http://www.w3.org/1999/xlink" xmlns:sketch="http://www.bohemiancoding.com/sketch/ns">
    <!-- Generator: Sketch 3.5 (25232) - http://www.bohemiancoding.com/sketch -->
    <title>Slice 2</title>
    <desc>Created with Sketch.</desc>
    <defs></defs>
    <g id="Page-1" stroke="none" stroke-width="1" fill="none" fill-rule="evenodd" sketch:type="MSPage">
        <g id="Linecon-Background" sketch:type="MSLayerGroup" transform="translate(0.000000, -9.000000)">
            <g id="world" transform="translate(871.000000, 108.000000)" fill="#333332" sketch:type="MSShapeGroup">
                <g id="Layer_1">
                    <path d="M15.5,0 C6.939,0 0,6.939 0,15.5 C0,24.061 6.939,31 15.5,31 C24.061,31 31,24.061 31,15.5 C31,6.939 24.061,0 15.5,0 L15.5,0 Z M28.975,15 L22.979,15 C22.924,12.785 22.53,10.669 21.831,8.732 C23.181,8.169 24.429,7.42 25.567,6.535 C27.59,8.806 28.855,11.755 28.975,15 L28.975,15 Z M14.947,28.972 C13.285,27.588 11.891,25.791 10.871,23.704 C12.18,23.295 13.567,23.071 15,23.025 L15,28.974 C14.982,28.974 14.965,28.973 14.947,28.972 L14.947,28.972 Z M16.051,2.028 C17.937,3.598 19.476,5.701 20.517,8.154 C19.091,8.641 17.576,8.924 15.999,8.974 L15.999,2.025 C16.018,2.026 16.034,2.027 16.051,2.028 L16.051,2.028 Z M17.717,2.198 C20.477,2.657 22.953,3.946 24.881,5.812 C23.834,6.615 22.69,7.295 21.453,7.81 C20.543,5.653 19.266,3.746 17.717,2.198 L17.717,2.198 Z M15,2.025 L15,8.974 C13.423,8.923 11.907,8.641 10.482,8.154 C11.523,5.701 13.062,3.598 14.948,2.028 C14.966,2.027 14.982,2.026 15,2.025 L15,2.025 Z M9.546,7.811 C8.311,7.296 7.166,6.616 6.119,5.813 C8.046,3.947 10.523,2.658 13.283,2.199 C11.733,3.746 10.457,5.653 9.546,7.811 L9.546,7.811 Z M10.105,9.076 C11.647,9.611 13.29,9.923 15,9.975 L15,15 L9.021,15 C9.075,12.906 9.446,10.905 10.105,9.076 L10.105,9.076 Z M15,16 L15,22.025 C13.423,22.073 11.898,22.331 10.461,22.794 C9.595,20.732 9.084,18.435 9.021,16 L15,16 L15,16 Z M13.283,28.802 C10.81,28.391 8.564,27.314 6.738,25.75 C7.723,25.067 8.788,24.489 9.926,24.05 C10.798,25.858 11.939,27.463 13.283,28.802 L13.283,28.802 Z M16,28.975 L16,23.026 C17.432,23.072 18.82,23.296 20.129,23.705 C19.108,25.792 17.715,27.589 16.053,28.973 C16.036,28.973 16.018,28.974 16,28.975 L16,28.975 Z M21.074,24.05 C22.211,24.489 23.275,25.068 24.262,25.75 C22.436,27.313 20.19,28.391 17.717,28.802 C19.061,27.463 20.201,25.858 21.074,24.05 L21.074,24.05 Z M20.539,22.794 C19.101,22.331 17.576,22.073 16,22.025 L16,16 L21.979,16 C21.916,18.435 21.404,20.732 20.539,22.794 L20.539,22.794 Z M16,15 L16,9.975 C17.709,9.923 19.352,9.612 20.895,9.077 C21.553,10.906 21.924,12.907 21.979,15.001 L16,15.001 L16,15 Z M5.434,6.535 C6.572,7.42 7.82,8.169 9.169,8.732 C8.47,10.669 8.076,12.785 8.021,15 L2.025,15 C2.145,11.755 3.41,8.806 5.434,6.535 L5.434,6.535 Z M2.025,16 L8.021,16 C8.083,18.555 8.617,20.968 9.524,23.137 C8.257,23.631 7.076,24.289 5.986,25.068 C3.638,22.731 2.156,19.536 2.025,16 L2.025,16 Z M25.014,25.067 C23.924,24.289 22.743,23.63 21.475,23.136 C22.383,20.967 22.916,18.554 22.979,15.999 L28.975,15.999 C28.844,19.536 27.361,22.731 25.014,25.067 L25.014,25.067 Z" id="world"></path>
                </g>
            </g>
            <g id="vynil" transform="translate(292.000000, 226.000000)" fill="#333333" sketch:type="MSShapeGroup">
                <g id="Layer_1">
                    <g id="vynil_1_">
                        <path d="M21.951,2.15 C13.749,-1.134 4.436,2.852 1.151,11.055 C-2.135,19.259 1.853,28.573 10.056,31.857 C18.259,35.142 27.572,31.155 30.857,22.952 C34.143,14.748 30.154,5.436 21.951,2.15 L21.951,2.15 Z M10.8,30.001 C3.634,27.131 0.138,18.967 3.007,11.8 C5.877,4.634 14.042,1.137 21.209,4.008 C28.375,6.877 31.871,15.042 29.002,22.208 C26.131,29.375 17.967,32.87 10.8,30.001 L10.8,30.001 Z" id="Shape"></path>
                        <path d="M16.749,15.147 C15.724,14.736 14.559,15.235 14.148,16.26 C13.737,17.285 14.236,18.449 15.26,18.86 C16.285,19.271 17.451,18.772 17.861,17.748 C18.271,16.723 17.773,15.559 16.749,15.147 L16.749,15.147 Z M15.632,17.933 C15.12,17.727 14.871,17.145 15.075,16.632 C15.281,16.12 15.864,15.871 16.376,16.075 C16.887,16.28 17.136,16.863 16.932,17.376 C16.727,17.888 16.144,18.137 15.632,17.933 L15.632,17.933 Z" id="Shape"></path>
                        <path d="M18.234,11.435 C15.158,10.203 11.666,11.699 10.434,14.774 C9.202,17.85 10.698,21.342 13.773,22.574 C16.849,23.806 20.341,22.311 21.573,19.235 C22.805,16.159 21.311,12.666 18.234,11.435 L18.234,11.435 Z M14.518,20.717 C12.47,19.898 11.472,17.564 12.291,15.517 C13.111,13.47 15.443,12.471 17.49,13.29 C19.539,14.11 20.537,16.444 19.719,18.491 C18.898,20.538 16.565,21.538 14.518,20.717 L14.518,20.717 Z" id="Shape"></path>
                        <path d="M23.432,19.978 C23.534,19.722 23.409,19.431 23.153,19.329 C22.897,19.225 22.606,19.35 22.503,19.607 L22.503,19.606 C21.784,21.402 20.405,22.735 18.759,23.44 C18.507,23.548 18.388,23.842 18.497,24.095 C18.606,24.35 18.899,24.467 19.153,24.359 C19.163,24.355 19.167,24.347 19.174,24.344 C21.047,23.534 22.613,22.017 23.43,19.978 L23.432,19.978 L23.432,19.978 Z" id="Shape"></path>
                        <path d="M26.865,20.814 C26.609,20.711 26.318,20.836 26.215,21.092 C25.086,23.912 22.92,26.007 20.332,27.115 C20.08,27.223 19.961,27.517 20.07,27.771 C20.179,28.026 20.472,28.142 20.726,28.034 C20.738,28.028 20.747,28.017 20.759,28.012 C23.568,26.799 25.919,24.522 27.144,21.464 C27.246,21.208 27.121,20.917 26.865,20.814 L26.865,20.814 Z" id="Shape"></path>
                        <path d="M25.008,20.071 C24.752,19.968 24.461,20.092 24.358,20.349 C23.436,22.657 21.665,24.37 19.546,25.277 L19.548,25.277 C19.294,25.386 19.175,25.68 19.284,25.934 C19.393,26.188 19.686,26.305 19.94,26.197 C19.95,26.192 19.956,26.183 19.967,26.177 C22.307,25.166 24.266,23.27 25.287,20.721 C25.389,20.465 25.264,20.174 25.008,20.071 L25.008,20.071 Z" id="Shape"></path>
                        <path d="M13.513,9.912 C13.404,9.657 13.11,9.541 12.856,9.65 C12.847,9.653 12.842,9.661 12.835,9.664 C10.962,10.474 9.395,11.992 8.579,14.03 L8.578,14.03 C8.475,14.287 8.6,14.577 8.856,14.68 C9.113,14.783 9.404,14.658 9.506,14.402 L9.507,14.402 C10.225,12.608 11.604,11.274 13.25,10.57 C13.504,10.46 13.622,10.167 13.513,9.912 L13.513,9.912 Z" id="Shape"></path>
                        <path d="M11.938,6.235 C11.829,5.981 11.535,5.864 11.281,5.972 C11.269,5.977 11.26,5.988 11.25,5.993 C8.44,7.207 6.09,9.483 4.865,12.541 C4.761,12.799 4.886,13.09 5.143,13.192 C5.399,13.295 5.69,13.171 5.793,12.914 C6.923,10.095 9.088,8 11.676,6.892 C11.929,6.782 12.047,6.489 11.938,6.235 L11.938,6.235 Z" id="Shape"></path>
                        <path d="M12.463,8.729 C12.716,8.621 12.835,8.328 12.726,8.073 C12.617,7.82 12.323,7.702 12.069,7.811 C12.059,7.815 12.053,7.825 12.043,7.829 C9.702,8.841 7.743,10.739 6.723,13.287 C6.619,13.544 6.745,13.834 7,13.938 C7.256,14.04 7.547,13.917 7.65,13.66 C8.573,11.352 10.345,9.638 12.462,8.732 L12.462,8.729 L12.463,8.729 Z" id="Shape"></path>
                    </g>
                </g>
            </g>
            <g id="vallet" transform="translate(344.058119, 332.816274) rotate(-25.000000) translate(-344.058119, -332.816274) translate(329.558119, 318.816274)" fill="#333332" sketch:type="MSShapeGroup">
                <g id="Layer_1" transform="translate(-0.000000, 0.000000)">
                    <g id="vallet_1_" transform="translate(-0.000000, 0.000000)">
                        <ellipse id="Oval" cx="16.3125" cy="17.1612903" rx="1.8125" ry="1.80645161"></ellipse>
                        <path d="M26.2821562,10.8387097 C26.28125,10.8387097 26.28125,10.8387097 26.2821562,10.8387097 L26.28125,5.41935484 L26.28125,4.96774194 L26.28125,2.70967742 C26.28125,1.21303226 25.06325,0 23.5625,0 L19.9375,0 L4.984375,0 C2.23571875,0 0,2.22916129 0,4.96774194 L0,23.0322581 C0,25.7708387 2.23571875,28 4.984375,28 L21.296875,28 C24.044625,28 26.28125,25.7708387 26.28125,23.0322581 L26.28125,21.6774194 L26.2821562,21.6774194 C29.9053438,18.9668387 29.9053438,13.5492903 26.2821562,10.8387097 L26.2821562,10.8387097 Z M4.984375,1.80645161 L19.9375,1.80645161 L23.5625,1.80645161 C24.0618437,1.80645161 24.46875,2.21109677 24.46875,2.70967742 L24.46875,4.96774194 L24.46875,5.41935484 L24.46875,8.29522581 C24.1841875,8.19406452 23.8815,8.12903226 23.5625,8.12903226 L23.5615937,8.12903226 L23.5615937,7.22580645 L23.5615937,5.41935484 L23.5615937,3.61290323 C23.5615937,3.11341935 23.1555938,2.70967742 22.6553438,2.70967742 L3.62409375,2.70967742 C3.12384375,2.70967742 2.71784375,3.11341935 2.71784375,3.61290323 L2.71784375,5.41935484 L2.71784375,7.17432258 C2.1586875,6.6043871 1.8125,5.8276129 1.8125,4.96774194 C1.8125,3.22180645 3.2316875,1.80645161 4.984375,1.80645161 L4.984375,1.80645161 Z M22.6553438,4.51612903 L3.62409375,4.51612903 L3.62409375,3.61290323 L22.6553438,3.61290323 L22.6553438,4.51612903 L22.6553438,4.51612903 Z M22.6553438,5.41935484 L22.6553438,6.32258065 L3.62409375,6.32258065 L3.62409375,5.41935484 L22.6553438,5.41935484 L22.6553438,5.41935484 Z M22.6553437,7.22580645 L22.6553437,8.12903226 L19.9375,8.12903226 L4.984375,8.12903226 C4.495,8.12903226 4.03825,8.00980645 3.625,7.81290323 L3.625,7.22580645 L22.6553437,7.22580645 L22.6553437,7.22580645 Z M24.46875,23.0322581 C24.46875,24.7781935 23.0486563,26.1935484 21.296875,26.1935484 L4.984375,26.1935484 C3.2316875,26.1935484 1.8125,24.7781935 1.8125,23.0322581 L1.8125,8.79651613 C2.67434375,9.50735484 3.77996875,9.93548387 4.984375,9.93548387 L19.9375,9.93548387 L23.5625,9.93548387 C24.0618437,9.93548387 24.46875,10.340129 24.46875,10.8387097 L24.46875,12.6451613 L16.3125,12.6451613 C13.8094375,12.6451613 11.78125,14.6665806 11.78125,17.1612903 C11.78125,19.656 13.8103438,21.6774194 16.3125,21.6774194 L24.46875,21.6774194 L24.46875,23.0322581 L24.46875,23.0322581 Z M25.6260312,19.8709677 L16.3125,19.8709677 C14.8135625,19.8709677 13.59375,18.6552258 13.59375,17.1612903 C13.59375,15.6673548 14.8135625,14.4516129 16.3125,14.4516129 L24.46875,14.4516129 C25.0279062,14.4443871 25.5825312,14.1743226 25.9205625,13.7254194 C26.0148125,13.5989677 26.0882187,13.4571613 26.147125,13.3090323 C26.1552812,13.2891613 26.1697812,13.2738065 26.1770312,13.2530323 C26.828625,14.1047742 27.1875,15.1489032 27.1875,16.2580645 C27.1875,17.6472258 26.6247187,18.936129 25.6260312,19.8709677 L25.6260312,19.8709677 Z" id="Shape"></path>
                    </g>
                </g>
            </g>
            <g id="lab" transform="translate(791.000000, 123.000000)" fill="#333333" sketch:type="MSShapeGroup">
                <g id="Layer_1">
                    <g id="lab_1_">
                        <path d="M21.682,3.732 C21.209,3.26 20.582,3 19.914,3 C19.246,3 18.619,3.26 18.144,3.733 L16.734,5.145 C16.261,5.617 16,6.245 16,6.914 C16,7.385 16.129,7.836 16.371,8.227 L2.794,13.666 C1.886,14.065 1.235,14.884 1.052,15.855 C0.867,16.832 1.177,17.834 1.886,18.542 L14.606,31.122 C15.154,31.67 15.882,31.981 16.651,31.999 C16.669,32 16.711,32 16.729,32 C16.931,32 17.136,31.979 17.339,31.938 C18.333,31.732 19.147,31.045 19.516,30.11 L24.858,16.734 C25.26,16.999 25.733,17.141 26.225,17.141 C26.895,17.141 27.522,16.88 27.993,16.408 L29.4,15 C29.877,14.526 30.138,13.897 30.138,13.227 C30.138,12.557 29.876,11.927 29.406,11.459 L21.682,3.732 L21.682,3.732 Z M17.659,29.367 C17.535,29.68 17.262,29.911 16.932,29.979 C16.856,29.995 16.779,30.001 16.703,30 C16.449,29.994 16.204,29.892 16.021,29.708 L3.293,17.12 C3.059,16.887 2.956,16.553 3.018,16.227 C3.079,15.903 3.297,15.629 3.6,15.497 L9.817,13.007 C14.006,14.4 18.196,13.058 22.387,17.529 L17.659,29.367 L17.659,29.367 Z M27.992,13.58 L26.578,14.993 C26.383,15.189 26.066,15.189 25.871,14.993 L24.103,13.226 L22.671,16.815 L22.79,16.512 C19.78,13.507 16.721,13.128 13.961,12.789 C13.074,12.68 12.214,12.566 11.369,12.384 L19.86,8.983 L18.145,7.268 C17.95,7.073 17.95,6.756 18.145,6.561 L19.559,5.146 C19.754,4.951 20.071,4.951 20.266,5.146 L27.991,12.873 C28.189,13.068 28.189,13.385 27.992,13.58 L27.992,13.58 Z" id="Shape"></path>
                        <path d="M17.5,21 C18.878,21 20,19.879 20,18.5 C20,17.121 18.879,16 17.5,16 C16.121,16 15,17.121 15,18.5 C15,19.879 16.122,21 17.5,21 L17.5,21 Z M17.5,17 C18.328,17 19,17.672 19,18.5 C19,19.328 18.328,20 17.5,20 C16.671,20 16,19.328 16,18.5 C16,17.672 16.671,17 17.5,17 L17.5,17 Z" id="Shape"></path>
                        <path d="M30.5,0 C29.121,0 28,1.121 28,2.5 C28,3.879 29.121,5 30.5,5 C31.879,5 33,3.879 33,2.5 C33,1.121 31.879,0 30.5,0 L30.5,0 Z M30.5,4 C29.672,4 29,3.328 29,2.5 C29,1.672 29.672,1 30.5,1 C31.328,1 32,1.672 32,2.5 C32,3.328 31.328,4 30.5,4 L30.5,4 Z" id="Shape"></path>
                        <path d="M9,17 C9,18.103 9.897,19 11,19 C12.103,19 13,18.103 13,17 C13,15.897 12.103,15 11,15 C9.897,15 9,15.897 9,17 L9,17 Z M11,16 C11.552,16 12,16.447 12,17 C12,17.553 11.552,18 11,18 C10.448,18 10,17.553 10,17 C10,16.447 10.448,16 11,16 L11,16 Z" id="Shape"></path>
                        <circle id="Oval" cx="14" cy="23" r="1"></circle>
                        <circle id="Oval" cx="30" cy="8" r="1"></circle>
                    </g>
                </g>
            </g>
            <g id="clip" transform="translate(689.451372, 328.327243) rotate(13.000000) translate(-689.451372, -328.327243) translate(672.951372, 313.327243)" fill="#333333" sketch:type="MSShapeGroup">
                <g id="Layer_1">
                    <path d="M30.363,2.637 C26.849,-0.879 21.15,-0.879 17.636,2.637 L3.046,17.054 C0.317,19.783 0.317,24.225 3.046,26.954 C5.775,29.683 10.216,29.683 12.944,26.954 L27.534,12.536 C29.487,10.583 29.487,7.418 27.534,5.465 C25.581,3.513 22.415,3.513 20.464,5.465 L9.496,16.433 C9.105,16.825 9.105,17.456 9.496,17.848 C9.887,18.239 10.519,18.239 10.91,17.848 L21.879,6.879 C23.049,5.71 24.951,5.71 26.121,6.879 C27.291,8.049 27.291,9.952 26.121,11.122 L11.531,25.539 C9.578,27.492 6.414,27.492 4.461,25.539 C2.508,23.587 2.508,20.421 4.461,18.469 L18.908,4.192 C21.642,1.458 26.076,1.458 28.806,4.192 C31.542,6.927 31.542,11.357 28.808,14.091 L17.982,24.918 C17.589,25.31 17.589,25.941 17.982,26.332 C18.373,26.724 19.005,26.724 19.396,26.332 L30.363,15.364 C33.879,11.85 33.879,6.151 30.363,2.637 L30.363,2.637 Z" id="clip_2_"></path>
                </g>
            </g>
            <g id="fire" transform="translate(57.000000, 160.000000)">
                <g id="Group">
                    <g id="Layer_1" transform="translate(5.000000, 0.000000)" fill="#333333" sketch:type="MSShapeGroup">
                        <g id="fire_1_">
                            <path d="M17,9 C16.938,11.675 14.93,13.934 14.93,13.934 C14.93,8.958 11,5 11,5 C11,5 10.947,7.962 8.957,10.948 C6.967,3.981 0.995,0 0.995,0 C3.981,10.948 1.77635684e-15,14.93 1.77635684e-15,22.892 C1.77635684e-15,27.563 3.954,32 10,32 C18.957,32 20.689,28.712 21.615,25.007 C22.891,19.906 20.98,13.976 17,9 L17,9 Z M19.676,24.521 C19.033,27.09 18.307,30 10,30 C4.992,30 2,26.386 2,22.892 C2,20.216 2.488,18.019 3.004,15.693 C3.66,12.744 4.332,9.725 4.041,5.732 C7.125,10.001 8.223,15.657 8.223,15.657 C8.223,15.657 11.094,11.626 11.866,9.754 C12.457,10.957 13,15 13,19 C13,19 15.656,16.812 17.648,13.522 C19.746,17.284 20.502,21.217 19.676,24.521 L19.676,24.521 Z" id="Shape"></path>
                            <path d="M17.432,16.795 L16.582,17.78 C15.529,19.008 14.533,20.172 11.874,21.51 C11.493,20.368 11.147,19.111 11.147,17.187 L11.147,15.478 L9.629,17.856 C9.117,18.667 8.693,19.339 8.061,20.232 C7.102,18.07 6.424,16.471 5.909,15.02 L5.43,13.67 L4.91,15.18 C4.25,17.101 3.625,18.915 3.625,23.624 C3.625,23.9 3.848,24.124 4.125,24.124 C4.4,24.124 4.625,23.9 4.625,23.624 C4.625,20.015 4.984,18.228 5.465,16.683 C5.985,18.005 6.641,19.508 7.502,21.433 L7.854,22.217 L8.362,21.525 C9.192,20.395 9.686,19.635 10.227,18.782 C10.385,20.261 10.75,21.322 11.112,22.372 L11.294,22.9 L11.8,22.661 C14.503,21.377 15.768,20.208 16.772,19.086 C16.928,20.95 16.682,22.99 16.098,24.439 C15.994,24.695 16.119,24.986 16.375,25.089 C16.436,25.113 16.5,25.125 16.563,25.125 C16.76,25.125 16.948,25.007 17.026,24.812 C17.801,22.888 18.034,20.148 17.618,17.83 L17.432,16.795 L17.432,16.795 Z" id="Shape"></path>
                        </g>
                    </g>
                    <g id="Layer_2"></g>
                </g>
            </g>
            <g id="megaphone" transform="translate(128.000000, 224.000000)" fill="#333333" sketch:type="MSShapeGroup">
                <g id="Layer_1">
                    <path d="M25,0 C22.947,0 21.334,1.41 20.176,3.586 L20.155,3.574 C18.473,6.867 15.969,9 13.226,9 L12.563,9 L8.156,9 L4,9 C1.757,9 0,11.197 0,14 C0,16.805 1.757,19 4,19 C5.103,19.004 5.995,19.896 5.995,21 L5.995,30 C5.995,31.105 6.891,32 7.995,32 L11.995,32 C13.099,32 13.995,31.105 13.995,30 L13.995,29 C13.995,28 12.995,27.553 12.995,27 L12.995,20 C12.995,19.977 13.011,19.961 13.013,19.938 C13.023,19.795 13.062,19.663 13.125,19.543 C13.143,19.51 13.162,19.484 13.184,19.455 C13.264,19.336 13.365,19.238 13.488,19.162 C13.494,19.158 13.496,19.152 13.502,19.148 C13.506,19.148 13.509,19.144 13.513,19.144 C13.593,19.099 13.689,19.089 13.779,19.064 C16.303,19.332 18.588,21.369 20.156,24.437 L20.181,24.425 C21.34,26.594 22.949,28 25,28 C29.596,28 32,20.957 32,14 C32,7.043 29.596,0 25,0 L25,0 Z M20,14 C20,12.963 20.061,11.961 20.164,11 L23,11 C24.104,11 25,12.344 25,14 C25,15.658 24.104,17 23,17 L20.164,17 C20.061,16.039 20,15.039 20,14 L20,14 Z M2,14 C2,12.344 2.896,11 4,11 L8.156,11 L9,11 L11.014,11 C10.394,11.729 10,12.787 10,14 C10,15.215 10.394,16.273 11.014,17 L9,17 L4,17 C2.896,17 2,15.658 2,14 L2,14 Z M11.995,30 L7.995,30 L7.995,21 C7.995,20.271 7.8,19.59 7.458,19 L8.156,19 L8.156,19.012 L11.164,19.012 C11.057,19.323 10.995,19.653 10.995,20 L10.995,27 C10.995,27.963 11.533,28.604 11.854,28.986 C11.898,29.039 11.95,29.093 11.995,29.152 L11.995,30 L11.995,30 Z M13.226,17.012 L13,17.012 L13,17 C11.896,17 11,15.658 11,14 C11,12.344 11.896,11 13,11 L13.226,11 C15.112,11 16.878,10.258 18.432,8.982 C18.146,10.592 18,12.297 18,14 C18,15.709 18.146,17.42 18.434,19.031 C16.879,17.754 15.112,17.012 13.226,17.012 L13.226,17.012 Z M25,26 C22.982,26 21.25,23.129 20.459,19 L23,19 C25.242,19 27,16.805 27,14 C27,11.197 25.242,9 23,9 L20.459,9 C21.25,4.873 22.982,2 25,2 C27.762,2 30,7.373 30,14 C30,20.627 27.762,26 25,26 L25,26 Z" id="megaphone"></path>
                </g>
            </g>
            <g id="data" transform="translate(815.000000, 271.000000)" fill="#333333" sketch:type="MSShapeGroup">
                <g id="Layer_1">
                    <g id="data">
                        <path d="M14,0 C7.256,0 0,2.033 0,6.5 L0,25.5 C0,29.965 7.256,32 14,32 C20.743,32 28,29.965 28,25.5 L28,6.5 C28,2.033 20.742,0 14,0 L14,0 Z M26,25.5 C26,27.984 20.627,30 14,30 C7.372,30 2,27.984 2,25.5 L2,21.764 C4.066,23.893 9.05,25 14,25 C18.95,25 23.934,23.893 26,21.764 L26,25.5 L26,25.5 Z M26,19.5 L25.996,19.5 C25.996,19.51 26,19.521 26,19.531 C26,22 20.627,24 14,24 C7.373,24 2,22 2,19.531 C2,19.521 2.004,19.51 2.004,19.5 L2,19.5 L2,15.764 C4.066,17.893 9.05,19 14,19 C18.95,19 23.934,17.893 26,15.764 L26,19.5 L26,19.5 Z M26,13.5 L25.996,13.5 C25.996,13.51 26,13.521 26,13.531 C26,16 20.627,18 14,18 C7.373,18 2,16 2,13.531 C2,13.521 2.004,13.51 2.004,13.5 L2,13.5 L2,10.064 C4.621,12.061 9.425,13 14,13 C18.575,13 23.379,12.061 26,10.064 L26,13.5 L26,13.5 Z M14,11 C7.372,11 2,8.984 2,6.5 C2,4.014 7.372,2 14,2 C20.627,2 26,4.014 26,6.5 C26,8.984 20.627,11 14,11 L14,11 Z" id="Shape"></path>
                        <circle id="Oval" cx="23" cy="26" r="1"></circle>
                        <circle id="Oval" cx="23" cy="20" r="1"></circle>
                        <circle id="Oval" cx="23" cy="14" r="1"></circle>
                    </g>
                </g>
            </g>
            <g id="params" transform="translate(638.000000, 357.000000)" fill="#BC1142" sketch:type="MSShapeGroup">
                <g id="Layer_1">
                    <g id="settings_2_">
                        <path d="M8,6.021 L8,3 C8,1.346 6.654,0 5,0 C3.346,0 2,1.346 2,3 L2,6.021 C0.792,6.936 0,8.369 0,10 C0,11.631 0.792,13.064 2,13.977 L2,29 C2,30.654 3.346,32 5,32 C6.654,32 8,30.654 8,29 L8,13.977 C9.208,13.065 10,11.631 10,10 C10,8.369 9.208,6.936 8,6.021 L8,6.021 Z M4,3 C4,2.447 4.447,2 5,2 C5.553,2 6,2.447 6,3 L6,5.1 C5.677,5.035 5.343,5 5,5 C4.657,5 4.323,5.035 4,5.1 L4,3 L4,3 Z M6,29 C6,29.553 5.553,30 5,30 C4.447,30 4,29.553 4,29 L4,14.898 C4.323,14.965 4.657,15 5,15 C5.343,15 5.677,14.965 6,14.898 L6,29 L6,29 Z M7.865,10.84 C7.849,10.893 7.835,10.945 7.816,10.998 C7.721,11.262 7.599,11.512 7.438,11.734 C7.434,11.74 7.428,11.744 7.424,11.75 C7.25,11.988 7.043,12.199 6.808,12.377 C6.804,12.381 6.801,12.383 6.798,12.385 C6.557,12.567 6.288,12.713 5.999,12.815 C5.686,12.928 5.353,13 5,13 C4.647,13 4.314,12.928 4,12.814 C3.711,12.712 3.442,12.566 3.201,12.384 C3.198,12.382 3.195,12.38 3.191,12.376 C2.956,12.198 2.749,11.987 2.575,11.749 C2.571,11.743 2.565,11.739 2.561,11.733 C2.4,11.51 2.278,11.26 2.183,10.997 C2.164,10.944 2.15,10.892 2.134,10.839 C2.055,10.572 2,10.293 2,10 C2,9.705 2.055,9.426 2.135,9.158 C2.151,9.105 2.165,9.053 2.184,9.002 C2.278,8.738 2.4,8.488 2.562,8.264 C2.566,8.258 2.572,8.254 2.576,8.248 C2.75,8.012 2.957,7.799 3.192,7.621 C3.196,7.619 3.199,7.615 3.202,7.613 C3.442,7.434 3.711,7.287 4,7.184 C4.314,7.072 4.647,7 5,7 C5.353,7 5.686,7.072 6,7.184 C6.289,7.288 6.558,7.434 6.799,7.614 C6.802,7.616 6.805,7.62 6.809,7.622 C7.044,7.8 7.251,8.013 7.425,8.249 C7.429,8.255 7.435,8.259 7.439,8.265 C7.6,8.488 7.722,8.738 7.816,9.002 C7.835,9.053 7.85,9.105 7.865,9.158 C7.945,9.426 8,9.705 8,10 C8,10.293 7.945,10.572 7.865,10.84 L7.865,10.84 Z" id="Shape"></path>
                        <path d="M30,6.021 L30,3 C30,1.346 28.654,0 27,0 C25.346,0 24,1.346 24,3 L24,6.021 C22.791,6.936 22,8.369 22,10 C22,11.631 22.791,13.064 24,13.977 L24,29 C24,30.654 25.346,32 27,32 C28.654,32 30,30.654 30,29 L30,13.977 C31.207,13.065 32,11.631 32,10 C32,8.369 31.207,6.936 30,6.021 L30,6.021 Z M26,3 C26,2.447 26.447,2 27,2 C27.553,2 28,2.447 28,3 L28,5.1 C27.676,5.035 27.342,5 27,5 C26.656,5 26.322,5.035 26,5.1 L26,3 L26,3 Z M28,29 C28,29.553 27.553,30 27,30 C26.447,30 26,29.553 26,29 L26,14.898 C26.322,14.965 26.656,15 27,15 C27.342,15 27.676,14.965 28,14.898 L28,29 L28,29 Z M29.865,10.84 C29.849,10.893 29.834,10.945 29.816,10.998 C29.72,11.262 29.599,11.512 29.437,11.734 C29.433,11.74 29.427,11.744 29.423,11.75 C29.249,11.988 29.042,12.199 28.808,12.377 C28.804,12.381 28.8,12.383 28.798,12.385 C28.556,12.567 28.288,12.713 27.999,12.815 C27.686,12.928 27.352,13 27,13 C26.646,13 26.314,12.928 26,12.814 C25.711,12.712 25.441,12.566 25.201,12.384 C25.197,12.382 25.195,12.38 25.191,12.376 C24.955,12.198 24.748,11.987 24.574,11.749 C24.57,11.743 24.564,11.739 24.56,11.733 C24.4,11.51 24.277,11.26 24.183,10.997 C24.163,10.944 24.15,10.892 24.134,10.839 C24.055,10.572 24,10.293 24,10 C24,9.705 24.055,9.426 24.135,9.158 C24.151,9.105 24.164,9.053 24.184,9.002 C24.278,8.738 24.401,8.488 24.561,8.264 C24.565,8.258 24.571,8.254 24.575,8.248 C24.749,8.012 24.956,7.799 25.192,7.621 C25.196,7.619 25.198,7.615 25.202,7.613 C25.442,7.433 25.712,7.287 26.001,7.183 C26.314,7.072 26.646,7 27,7 C27.352,7 27.686,7.072 28,7.184 C28.289,7.288 28.557,7.434 28.799,7.614 C28.801,7.616 28.805,7.62 28.809,7.622 C29.043,7.8 29.25,8.013 29.424,8.249 C29.428,8.255 29.434,8.259 29.438,8.265 C29.6,8.49 29.721,8.74 29.817,9.003 C29.835,9.054 29.85,9.107 29.866,9.159 C29.945,9.426 30,9.705 30,10 C30,10.293 29.945,10.572 29.865,10.84 L29.865,10.84 Z" id="Shape"></path>
                        <path d="M19,18.021 L19,3 C19,1.346 17.654,0 16,0 C14.346,0 13,1.346 13,3 L13,18.021 C11.792,18.935 11,20.369 11,22 C11,23.631 11.792,25.064 13,25.977 L13,29 C13,30.654 14.346,32 16,32 C17.654,32 19,30.654 19,29 L19,25.977 C20.207,25.065 21,23.631 21,22 C21,20.369 20.207,18.936 19,18.021 L19,18.021 Z M15,3 C15,2.447 15.447,2 16,2 C16.553,2 17,2.447 17,3 L17,17.1 C16.676,17.036 16.342,17 16,17 C15.657,17 15.323,17.035 15,17.1 L15,3 L15,3 Z M17,29 C17,29.553 16.553,30 16,30 C15.447,30 15,29.553 15,29 L15,26.898 C15.323,26.965 15.657,27 16,27 C16.342,27 16.676,26.965 17,26.898 L17,29 L17,29 Z M18.865,22.84 C18.849,22.893 18.834,22.945 18.816,22.998 C18.72,23.262 18.599,23.512 18.437,23.734 C18.433,23.74 18.427,23.744 18.423,23.75 C18.249,23.988 18.042,24.199 17.808,24.377 C17.804,24.381 17.8,24.383 17.798,24.385 C17.556,24.567 17.288,24.713 16.999,24.815 C16.686,24.928 16.352,25 16,25 C15.647,25 15.314,24.928 15,24.814 C14.711,24.712 14.442,24.566 14.201,24.384 C14.198,24.382 14.195,24.38 14.191,24.376 C13.956,24.198 13.749,23.987 13.575,23.749 C13.571,23.743 13.565,23.739 13.561,23.733 C13.4,23.51 13.278,23.26 13.183,22.997 C13.164,22.944 13.15,22.892 13.134,22.839 C13.055,22.572 13,22.293 13,22 C13,21.705 13.055,21.426 13.135,21.158 C13.151,21.105 13.165,21.053 13.184,21.002 C13.279,20.738 13.401,20.488 13.562,20.264 C13.566,20.258 13.572,20.254 13.576,20.248 C13.75,20.012 13.957,19.799 14.192,19.621 C14.196,19.619 14.199,19.615 14.202,19.613 C14.443,19.433 14.712,19.287 15.001,19.183 C15.314,19.072 15.647,19 16,19 C16.352,19 16.686,19.072 17,19.184 C17.289,19.288 17.557,19.434 17.799,19.614 C17.801,19.616 17.805,19.62 17.809,19.622 C18.043,19.8 18.25,20.013 18.424,20.249 C18.428,20.255 18.434,20.259 18.438,20.265 C18.6,20.49 18.721,20.74 18.817,21.003 C18.835,21.054 18.85,21.107 18.866,21.159 C18.945,21.426 19,21.705 19,22 C19,22.293 18.945,22.572 18.865,22.84 L18.865,22.84 Z" id="Shape"></path>
                    </g>
                </g>
            </g>
            <g id="paperplane" transform="translate(580.125009, 20.456976) rotate(17.000000) translate(-580.125009, -20.456976) translate(564.125009, 3.956976)" fill="#333333" sketch:type="MSShapeGroup">
                <g id="Layer_1">
                    <path d="M31.543,0.16 C31.377,0.053 31.188,0 31,0 C30.807,0 30.613,0.055 30.445,0.168 L0.445,20.168 C0.136,20.373 -0.034,20.734 0.006,21.104 C0.044,21.473 0.284,21.792 0.629,21.928 L8.453,25.059 L12.132,31.497 C12.308,31.806 12.635,31.997 12.989,32.001 L13,32.001 C13.351,32.001 13.677,31.815 13.857,31.515 L15.934,28.052 L25.629,31.929 C25.748,31.977 25.873,32 26,32 C26.17,32 26.338,31.957 26.49,31.871 C26.754,31.723 26.935,31.463 26.986,31.164 L31.986,1.164 C32.051,0.771 31.877,0.377 31.543,0.16 L31.543,0.16 Z M3.136,20.777 L26.311,5.326 L9.461,23.363 C9.372,23.31 9.293,23.24 9.195,23.201 L3.136,20.777 L3.136,20.777 Z M10.189,24.066 C10.187,24.062 10.184,24.06 10.182,24.056 L29.125,3.781 L12.976,28.943 L10.189,24.066 L10.189,24.066 Z M25.217,29.609 L16.676,26.193 C16.473,26.113 16.262,26.086 16.053,26.074 L29.205,5.686 L25.217,29.609 L25.217,29.609 Z" id="paperplane"></path>
                </g>
            </g>
            <g id="note" transform="translate(405.514747, 274.829123) rotate(16.000000) translate(-405.514747, -274.829123) translate(389.514747, 259.829123)" fill="#333333" sketch:type="MSShapeGroup">
                <g id="Layer_1">
                    <g id="note">
                        <path d="M31.414,6.585 L25.414,0.585 C25.039,0.21 24.529,0 24,0 L3,0 C1.346,0 0,1.345 0,3 L0,27 C0,28.654 1.346,30 3,30 L29,30 C30.654,30 32,28.654 32,27 L32,8 C32,7.469 31.789,6.96 31.414,6.585 L31.414,6.585 Z M30,27 C30,27.553 29.553,28 29,28 L3,28 C2.447,28 2,27.553 2,27 L2,3 C2,2.447 2.447,2 3,2 L23,2 L23,6 L22.998,6 C22.998,7.657 24.342,9 25.998,9 L26.998,9 L30,9 L30,27 L30,27 Z M26.998,8 L25.998,8 C24.896,8 23.998,7.103 23.998,6 L24,6 L24,2 L30,8 L26.998,8 L26.998,8 Z" id="Shape"></path>
                        <path d="M15.5,7 L20.5,7 C20.775,7 21,6.776 21,6.5 C21,6.224 20.775,6 20.5,6 L15.5,6 C15.224,6 15,6.223 15,6.5 C15,6.777 15.224,7 15.5,7 L15.5,7 Z" id="Shape"></path>
                        <path d="M15.5,10 L20.5,10 C20.775,10 21,9.776 21,9.5 C21,9.224 20.775,9 20.5,9 L15.5,9 C15.224,9 15,9.224 15,9.5 C15,9.776 15.224,10 15.5,10 L15.5,10 Z" id="Shape"></path>
                        <path d="M15,12.5 C15,12.776 15.224,13 15.5,13 L27.5,13 C27.775,13 28,12.776 28,12.5 C28,12.224 27.775,12 27.5,12 L15.5,12 C15.224,12 15,12.223 15,12.5 L15,12.5 Z" id="Shape"></path>
                        <path d="M27.5,18 L4.5,18 C4.224,18 4,18.223 4,18.5 C4,18.775 4.224,19 4.5,19 L27.5,19 C27.775,19 28,18.775 28,18.5 C28,18.223 27.775,18 27.5,18 L27.5,18 Z" id="Shape"></path>
                        <path d="M27.5,21 L4.5,21 C4.224,21 4,21.223 4,21.5 C4,21.775 4.224,22 4.5,22 L27.5,22 C27.775,22 28,21.775 28,21.5 C28,21.223 27.775,21 27.5,21 L27.5,21 Z" id="Shape"></path>
                        <path d="M27.5,24 L4.5,24 C4.224,24 4,24.223 4,24.5 C4,24.775 4.224,25 4.5,25 L27.5,25 C27.775,25 28,24.775 28,24.5 C28,24.223 27.775,24 27.5,24 L27.5,24 Z" id="Shape"></path>
                        <path d="M27.5,15 L4.5,15 C4.224,15 4,15.223 4,15.5 C4,15.777 4.224,16 4.5,16 L27.5,16 C27.775,16 28,15.776 28,15.5 C28,15.224 27.775,15 27.5,15 L27.5,15 Z" id="Shape"></path>
                        <path d="M5,13 L12,13 C12.553,13 13,12.553 13,12 L13,6 C13,5.447 12.553,5 12,5 L5,5 C4.447,5 4,5.447 4,6 L4,12 C4,12.552 4.447,13 5,13 L5,13 Z M6,7 L11,7 L11,11 L6,11 L6,7 L6,7 Z" id="Shape"></path>
                    </g>
                </g>
            </g>
            <g id="photo" transform="translate(580.000000, 256.000000)" fill="#333333" sketch:type="MSShapeGroup">
                <g id="Layer_1">
                    <g id="photo_1_">
                        <path d="M26,0 L4,0 C1.791,0 0,1.791 0,4 L0,28 C0,30.209 1.791,32 4,32 L26,32 C28.209,32 30,30.209 30,28 L30,4 C30,1.791 28.209,0 26,0 L26,0 Z M28,28 C28,29.102 27.102,30 26,30 L4,30 C2.897,30 2,29.102 2,28 L2,4 C2,2.897 2.897,2 4,2 L26,2 C27.102,2 28,2.897 28,4 L28,28 L28,28 Z" id="Shape"></path>
                        <path d="M25,4 L5,4 C4.447,4 4,4.447 4,5 L4,23 C4,23.553 4.447,24 5,24 L25,24 C25.553,24 26,23.553 26,23 L26,5 C26,4.447 25.553,4 25,4 L25,4 Z M25,5 L25,18.869 L21.75,15.339 C21.559,15.123 21.287,15 21,15 C20.713,15 20.439,15.123 20.25,15.339 L17.646,18.289 L9.75,9.339 C9.56,9.123 9.287,9 9,9 C8.713,9 8.44,9.123 8.25,9.339 L5,13.087 L5,5 L25,5 L25,5 Z M5,14.6 L9,10 L17.066,19.143 L17.646,19.801 L20.408,23 L5,23 L5,14.6 L5,14.6 Z M21.74,23 L18.312,19.045 L21,16 L25,20.379 L25,23 L21.74,23 L21.74,23 Z" id="Shape"></path>
                        <path d="M19,13 C20.656,13 22,11.657 22,10 C22,8.343 20.656,7 19,7 C17.342,7 16,8.343 16,10 C16,11.657 17.342,13 19,13 L19,13 Z M19,8 C20.102,8 21,8.897 21,10 C21,11.103 20.102,12 19,12 C17.896,12 17,11.103 17,10 C17,8.897 17.896,8 19,8 L19,8 Z" id="Shape"></path>
                    </g>
                </g>
            </g>
            <g id="like" transform="translate(56.000000, 255.000000)" fill="#333333" sketch:type="MSShapeGroup">
                <g id="Layer_1">
                    <g id="like">
                        <path d="M29.164,10.472 C27.914,10.144 24.975,10.148 20.676,10.034 C20.879,9.096 20.926,8.25 20.926,6.748 C20.926,3.16 18.312,0 16,0 C14.367,0 13.021,1.335 13,2.977 C12.978,4.991 12.355,8.469 9,10.233 C8.754,10.363 8.05,10.71 7.947,10.755 L8,10.8 C7.475,10.347 6.747,10 6,10 L3,10 C1.346,10 0,11.346 0,13 L0,29 C0,30.654 1.346,32 3,32 L6,32 C7.19,32 8.186,31.281 8.668,30.273 C8.68,30.277 8.701,30.283 8.715,30.285 C8.781,30.303 8.859,30.322 8.954,30.347 C8.972,30.352 8.981,30.354 9,30.359 C9.576,30.502 10.685,30.767 13.055,31.312 C13.563,31.428 16.247,32 19.027,32 L24.494,32 C26.16,32 27.361,31.359 28.076,30.072 C28.086,30.052 28.316,29.603 28.504,28.996 C28.645,28.539 28.697,27.892 28.527,27.236 C29.601,26.498 29.947,25.382 30.172,24.656 C30.549,23.465 30.436,22.57 30.174,21.929 C30.778,21.359 31.293,20.49 31.51,19.163 C31.645,18.341 31.5,17.495 31.121,16.791 C31.687,16.155 31.945,15.355 31.975,14.615 L31.987,14.406 C31.994,14.275 32,14.194 32,13.906 C32,12.643 31.125,11.032 29.164,10.472 L29.164,10.472 Z M7,29 C7,29.553 6.553,30 6,30 L3,30 C2.447,30 2,29.553 2,29 L2,13 C2,12.447 2.447,12 3,12 L6,12 C6.553,12 7,12.447 7,13 L7,29 L7,29 Z M29.977,14.535 C29.957,15.029 29.75,16 28,16 L26,16 C25.723,16 25.5,16.224 25.5,16.5 C25.5,16.776 25.723,17 26,17 L27.938,17 C29.438,17 29.635,18.244 29.538,18.844 C29.414,19.59 29.064,21 27.375,21 L25,21 C24.723,21 24.5,21.223 24.5,21.5 C24.5,21.775 24.723,22 25,22 L26.969,22 C28.657,22 28.508,23.287 28.266,24.055 C27.947,25.064 27.752,26 25.625,26 L23.994,26 C23.717,26 23.494,26.223 23.494,26.5 C23.494,26.775 23.717,27 23.994,27 L25.562,27 C26.656,27 26.707,28.035 26.593,28.406 C26.468,28.812 26.32,29.113 26.314,29.127 C26.012,29.672 25.525,30 24.494,30 L19.027,30 C16.281,30 13.557,29.377 13.487,29.361 C9.333,28.404 9.114,28.33 8.853,28.256 C8.853,28.256 8.007,28.113 8.007,27.375 L8,13.563 C8,13.094 8.299,12.67 8.794,12.521 C8.856,12.497 8.94,12.471 9,12.446 C13.568,10.554 14.959,6.406 15,3 C15.006,2.521 15.375,2 16,2 C17.057,2 18.926,4.122 18.926,6.748 C18.926,9.119 18.83,9.529 18,12 C28,12 27.93,12.144 28.812,12.375 C29.906,12.688 30,13.594 30,13.906 C30,14.249 29.99,14.199 29.977,14.535 L29.977,14.535 Z" id="Shape"></path>
                        <path d="M4.5,26 C3.672,26 3,26.672 3,27.5 C3,28.328 3.672,29 4.5,29 C5.328,29 6,28.328 6,27.5 C6,26.672 5.328,26 4.5,26 L4.5,26 Z M4.5,28 C4.225,28 4,27.775 4,27.5 C4,27.225 4.225,27 4.5,27 C4.775,27 5,27.225 5,27.5 C5,27.775 4.775,28 4.5,28 L4.5,28 Z" id="Shape"></path>
                    </g>
                </g>
            </g>
            <g id="phone" transform="translate(88.000000, 317.000000)" fill="#333333" sketch:type="MSShapeGroup">
                <g id="Layer_1">
                    <g id="iphone">
                        <path d="M19,0 L3,0 C1.342,0 0,1.343 0,3 L0,29 C0,30.658 1.343,32 3,32 L19,32 C20.656,32 22,30.656 22,29 L22,3 C22,1.342 20.656,0 19,0 L19,0 Z M20,29 C20,29.551 19.551,30 19,30 L3,30 C2.448,30 2,29.553 2,29 L2,26.996 L20,26.996 L20,29 L20,29 Z M20,25.996 L2,25.996 L2,6 L20,6 L20,25.996 L20,25.996 Z M20,5 L2,5 L2,3 C2,2.448 2.448,2 3,2 L19,2 C19.551,2 20,2.448 20,3 L20,5 L20,5 Z" id="Shape"></path>
                        <path d="M13,3.5 C13,3.776 12.775,4 12.5,4 L9.5,4 C9.223,4 9,3.776 9,3.5 L9,3.5 C9,3.223 9.223,3 9.5,3 L12.5,3 C12.775,3 13,3.223 13,3.5 L13,3.5 L13,3.5 Z" id="Shape"></path>
                        <path d="M12,28.496 C12,28.771 11.775,28.996 11.5,28.996 L10.5,28.996 C10.224,28.996 10,28.771 10,28.496 L10,28.496 C10,28.219 10.224,27.996 10.5,27.996 L11.5,27.996 C11.775,27.996 12,28.219 12,28.496 L12,28.496 L12,28.496 Z" id="Shape"></path>
                    </g>
                </g>
            </g>
            <g id="stack" transform="translate(0.000000, 215.000000)" fill="#333333" sketch:type="MSShapeGroup">
                <g id="Layer_1">
                    <g id="stack">
                        <path d="M31.924,16.455 L27.922,1.449 C27.68,0.596 26.889,0 26,0 L16,0 L6,0 C5.11,0 4.32,0.596 4.078,1.449 L0.076,16.455 C0.025,16.637 0,16.82 0,17 L0,24 C0,26.209 1.791,28 4,28 L28,28 C30.209,28 32,26.209 32,24 L32,17 C32,16.82 31.975,16.637 31.924,16.455 L31.924,16.455 Z M30,24 C30,25.102 29.102,26 28,26 L4,26 C2.897,26 2,25.102 2,24 L2,17 L6.001,1.999 L25.998,1.999 L30,17 L30,24 L30,24 Z" id="Shape"></path>
                        <path d="M23.742,4 L8.258,4 C7.805,4 7.408,4.305 7.291,4.743 L3.846,16.743 C3.767,17.044 3.83,17.364 4.02,17.61 C4.21,17.856 4.502,18 4.812,18 L7.718,18 L8.859,18 L9.38,18 L10.827,20.895 C11.167,21.572 11.859,22 12.617,22 L19.383,22 C20.141,22 20.832,21.572 21.172,20.895 L22.619,18 L23.14,18 L24.281,18 L27.187,18 C27.498,18 27.791,17.855 27.98,17.609 C28.169,17.363 28.232,17.043 28.154,16.742 L24.709,4.742 C24.592,4.304 24.195,4 23.742,4 L23.742,4 Z M24.281,16 L22.619,16 C21.857,16 21.172,16.422 20.83,17.105 L19.383,20 L12.617,20 L11.17,17.105 C10.828,16.422 10.143,16 9.381,16 L7.719,16 L5.334,16 L8.258,5 L23.742,5 L26.666,16 L24.281,16 L24.281,16 Z" id="Shape"></path>
                    </g>
                </g>
            </g>
            <g id="bubble" transform="translate(733.000000, 70.000000)" fill="#BC1142" sketch:type="MSShapeGroup">
                <g id="Layer_1">
                    <g id="bubble">
                        <path d="M16,5 C10.037,5 5,8.206 5,12 C5,12.276 5.224,12.5 5.5,12.5 C5.776,12.5 6,12.276 6,12 C6,8.804 10.673,6 16,6 C16.275,6 16.5,5.776 16.5,5.5 C16.5,5.224 16.276,5 16,5 L16,5 Z" id="Shape"></path>
                        <path d="M16,0 C7.163,0 0,5.373 0,12 C0,16.127 2.779,19.766 7.008,21.926 C7.008,21.953 7,21.971 7,22 C7,23.793 5.661,25.723 5.072,26.736 L5.074,26.736 C5.027,26.846 5,26.967 5,27.094 C5,27.594 5.405,28 5.906,28 C6,28 6.165,27.975 6.161,27.986 C9.286,27.474 12.23,24.603 12.914,23.771 C13.913,23.918 14.943,24 16,24 C24.835,24 32,18.627 32,12 C32,5.373 24.836,0 16,0 L16,0 Z M16,22 C15.083,22 14.142,21.93 13.204,21.793 C13.107,21.777 13.01,21.772 12.914,21.772 C12.32,21.772 11.751,22.036 11.368,22.502 C10.94,23.023 9.722,24.186 8.283,25.041 C8.673,24.146 8.978,23.143 8.999,22.109 C9.005,22.045 9.008,21.98 9.008,21.925 C9.008,21.173 8.587,20.486 7.918,20.144 C4.212,18.252 2,15.207 2,12 C2,6.486 8.28,2 16,2 C23.718,2 30,6.486 30,12 C30,17.514 23.719,22 16,22 L16,22 Z" id="Shape"></path>
                    </g>
                </g>
            </g>
            <g id="eye" transform="translate(94.000000, 113.000000)" fill="#333333" sketch:type="MSShapeGroup">
                <g id="Layer_1">
                    <g id="eye">
                        <path d="M31.965,9.776 C31.955,9.734 31.961,9.689 31.945,9.648 C31.939,9.631 31.924,9.622 31.918,9.606 C31.908,9.582 31.91,9.555 31.897,9.532 C28.997,3.981 22.684,0.004 16.024,0.004 C9.363,0.004 3.051,3.975 0.149,9.525 C0.136,9.548 0.138,9.575 0.128,9.599 C0.121,9.615 0.107,9.624 0.101,9.641 C0.085,9.682 0.091,9.727 0.081,9.769 C0.063,9.844 0.046,9.916 0.046,9.993 C0.046,10.07 0.064,10.141 0.081,10.217 C0.091,10.259 0.085,10.304 0.101,10.345 C0.107,10.362 0.122,10.371 0.128,10.387 C0.138,10.411 0.136,10.438 0.149,10.461 C3.05,16.012 9.363,19.989 16.024,19.989 C22.684,19.989 28.997,16.018 31.897,10.468 C31.911,10.445 31.909,10.418 31.918,10.394 C31.924,10.378 31.939,10.369 31.945,10.352 C31.961,10.311 31.955,10.266 31.965,10.224 C31.982,10.148 32,10.076 32,10 C32,9.924 31.982,9.851 31.965,9.776 L31.965,9.776 Z M16.023,17.988 C10.408,17.988 4.911,14.797 2.172,9.993 C4.926,5.183 10.415,2.003 16.023,2.003 C21.636,2.003 27.134,5.195 29.873,9.998 C27.119,14.809 21.631,17.988 16.023,17.988 L16.023,17.988 Z" id="Shape"></path>
                        <path d="M16.023,5.999 C16.021,5.999 16.019,6 16.017,6 C13.812,6.004 12.025,7.791 12.025,9.996 C12.025,10.272 12.249,10.496 12.525,10.496 C12.8,10.496 13.024,10.272 13.024,9.996 C13.024,8.344 14.369,6.999 16.023,6.999 L16.023,6.998 C16.298,6.998 16.521,6.774 16.521,6.499 C16.521,6.222 16.299,5.999 16.023,5.999 L16.023,5.999 Z" id="Shape"></path>
                        <path d="M16,3 C12.133,3 9,6.134 9,10 C9,13.866 12.134,17 16,17 C19.865,17 23,13.865 23,10 C23,6.133 19.865,3 16,3 L16,3 Z M16,16 C12.691,16 10,13.309 10,10 C10,6.691 12.691,4 16,4 C19.309,4 22,6.691 22,10 C22,13.309 19.309,16 16,16 L16,16 Z" id="Shape"></path>
                    </g>
                </g>
            </g>
            <g id="location" transform="translate(887.000000, 255.000000)" fill="#333333" sketch:type="MSShapeGroup">
                <g id="Layer_1">
                    <g id="location">
                        <path d="M12.002,17.746 C15.311,17.746 18.002,15.054 18.002,11.746 C18.002,8.438 15.311,5.746 12.002,5.746 C8.693,5.746 6.002,8.437 6.002,11.746 C6.002,15.055 8.693,17.746 12.002,17.746 L12.002,17.746 Z M12.002,6.746 C14.76,6.746 17.002,8.988 17.002,11.746 C17.002,14.504 14.76,16.746 12.002,16.746 C9.244,16.746 7.002,14.504 7.002,11.746 C7.002,8.988 9.244,6.746 12.002,6.746 L12.002,6.746 Z" id="Shape"></path>
                        <path d="M12,0 C5.382,0 0,5.316 0,12.001 C0,19.001 6.001,26.162 10.376,31.195 C10.392,31.215 11.094,32 11.962,32 L12.039,32 C12.906,32 13.609,31.215 13.625,31.195 C18.002,26.162 24.002,19.002 24.002,12.001 C24.002,5.316 18.619,0 12,0 L12,0 Z M12.117,29.883 C12.096,29.903 12.035,29.947 11.982,29.981 C11.972,29.954 11.898,29.895 11.853,29.848 C8.188,25.631 2,18.514 2,12.001 C2,6.487 6.487,2 12,2 C17.516,2 22.002,6.487 22.002,12.002 C22.002,18.514 15.814,25.631 12.117,29.883 L12.117,29.883 Z" id="Shape"></path>
                    </g>
                </g>
            </g>
            <g id="display" transform="translate(213.000000, 227.000000)" fill="#333333" sketch:type="MSShapeGroup">
                <g id="Layer_1">
                    <g id="monitor">
                        <path d="M27,3.996 L5,4 C4.447,4 4,4.443 4,4.996 L4,18.996 C4,19.549 4.447,19.996 5,19.996 L27,19.996 C27.553,19.996 28,19.549 28,18.996 L28,4.996 C28,4.443 27.553,3.996 27,3.996 L27,3.996 Z M27,19 L5,19 L5,4.996 L27,4.996 L27,19 L27,19 Z" id="Shape"></path>
                        <path d="M29,0 L3,0 C1.343,0 0,1.342 0,3 L0,23 C0,24.654 1.338,25.994 2.99,25.998 L13,25.998 L13,27.215 L6.758,28.026 C6.312,28.137 6,28.537 6,28.996 C6,29.549 6.447,29.996 7,29.996 L25,29.996 C25.553,29.996 26,29.549 26,28.996 C26,28.537 25.688,28.137 25.242,28.025 L19,27.215 L19,25.998 L29.01,25.998 C30.662,25.994 32,24.654 32,23 L32,3 C32,1.342 30.656,0 29,0 L29,0 Z M30,23 C30,23.551 29.551,24 29,24 L20,24 L12,24 L3,24 C2.448,24 2,23.551 2,23 L2,3 C2,2.448 2.448,2 3,2 L29,2 C29.551,2 30,2.448 30,3 L30,23 L30,23 Z" id="Shape"></path>
                    </g>
                </g>
            </g>
            <g id="pen" transform="translate(149.000000, 294.000000)" fill="#BC1142" sketch:type="MSShapeGroup">
                <g id="Layer_1">
                    <path d="M29.395,2.58 C27.75,0.937 25.584,0 23.449,0 C21.648,0 19.99,0.668 18.779,1.877 L13.912,6.781 C13.897,6.795 13.88,6.804 13.865,6.819 C13.857,6.827 13.852,6.838 13.844,6.845 L13.846,6.847 L3.517,17.256 C3.041,17.729 2.696,18.318 2.504,18.961 L0.155,27.469 C0.153,27.492 0,28.16 0,28.5 C0,30.432 1.569,32 3.504,32 C3.889,32 4.634,31.816 4.661,31.812 L13.139,29.583 C13.783,29.392 14.368,29.044 14.844,28.567 L30.107,13.184 C32.883,10.406 32.57,5.75 29.395,2.58 L29.395,2.58 Z M16.014,23.795 C15.932,22.893 15.677,22.008 15.295,21.168 L24.75,11.714 C25.328,13.54 25.031,15.45 23.764,16.718 C23.756,16.726 23.746,16.731 23.739,16.739 L23.753,16.752 L16.025,24.542 C16.025,24.293 16.037,24.049 16.014,23.795 L16.014,23.795 Z M14.793,20.256 C14.42,19.643 13.996,19.051 13.471,18.527 C12.86,17.916 12.159,17.437 11.427,17.035 L20.959,7.503 C21.707,7.835 22.424,8.308 23.057,8.941 C23.598,9.48 24.016,10.084 24.338,10.712 L14.793,20.256 L14.793,20.256 Z M10.486,16.562 C9.56,16.189 8.59,15.976 7.618,15.963 L15.321,8.201 C16.5,7.051 18.217,6.72 19.908,7.139 L10.486,16.562 L10.486,16.562 Z M4.167,29.873 C4.058,29.898 3.719,29.984 3.489,30 C2.667,29.99 2,29.322 2,28.5 C2.012,28.332 2.079,28.043 2.102,27.938 L3.155,24.124 C4.298,24.093 5.528,24.538 6.495,25.507 C7.477,26.487 7.939,27.741 7.889,28.898 L4.167,29.873 L4.167,29.873 Z M8.874,28.637 C8.85,27.295 8.304,25.899 7.202,24.799 C6.16,23.756 4.796,23.154 3.436,23.1 L4.432,19.493 C4.504,19.253 4.647,19.016 4.823,18.809 C6.829,17.373 9.914,17.797 12.057,19.942 C14.324,22.208 14.674,25.528 12.928,27.51 C12.812,27.571 12.695,27.629 12.569,27.666 L8.874,28.637 L8.874,28.637 Z M28.691,11.772 L27.007,13.469 C27.007,13.243 27.034,13.026 27.013,12.795 C26.837,10.86 25.935,8.989 24.47,7.526 C22.841,5.896 20.681,4.961 18.542,4.955 L20.198,3.285 C21.027,2.458 22.184,2 23.449,2 C25.058,2 26.711,2.728 27.982,3.995 C29.175,5.186 29.886,6.666 29.988,8.163 C30.082,9.56 29.621,10.841 28.691,11.772 L28.691,11.772 Z" id="pen"></path>
                </g>
            </g>
            <g id="bulb" transform="translate(793.000000, 206.000000)" fill="#333333" sketch:type="MSShapeGroup">
                <g id="Layer_1">
                    <g id="bulb">
                        <path d="M11,0 C4.924,0 0,4.924 0,11 C0,15.031 3.688,19.303 5.031,23.055 C7.034,28.65 6.812,32 11,32 C15.25,32 14.965,28.666 16.969,23.078 C18.316,19.318 22,15 22,11 C22,4.924 17.074,0 11,0 L11,0 Z M13.592,27.176 L8.634,27.795 C8.457,27.283 8.267,26.684 8.036,25.902 C8.033,25.892 8.029,25.881 8.027,25.871 L14.215,25.098 C14.127,25.393 14.033,25.703 13.951,25.981 C13.82,26.43 13.703,26.82 13.592,27.176 L13.592,27.176 Z M7.736,24.908 C7.554,24.306 7.349,23.672 7.121,23 L14.887,23 C14.764,23.359 14.641,23.719 14.535,24.059 L7.736,24.908 L7.736,24.908 Z M11,30 C9.987,30 9.521,29.883 9.003,28.75 L13.241,28.219 C12.627,29.873 12.18,30 11,30 L11,30 Z M15.672,21 L6.339,21 C5.841,19.92 5.243,18.84 4.653,17.783 C3.348,15.448 2,13.033 2,11 C2,6.037 6.037,2 11,2 C15.963,2 20,6.037 20,11 C20,13.018 18.65,15.446 17.344,17.795 C16.76,18.848 16.166,19.926 15.672,21 L15.672,21 Z" id="Shape"></path>
                        <path d="M11,5 C7.691,5 5,7.691 5,11 C5,11.276 5.224,11.5 5.5,11.5 C5.776,11.5 6,11.276 6,11 C6,8.243 8.243,6 11,6 C11.276,6 11.5,5.776 11.5,5.5 C11.5,5.224 11.275,5 11,5 L11,5 Z" id="Shape"></path>
                    </g>
                </g>
            </g>
            <g id="lock" transform="translate(678.000000, 38.000000)" fill="#333333" sketch:type="MSShapeGroup">
                <g id="Layer_1">
                    <g id="lock">
                        <path d="M21,13 L21,9 C21,4.029 16.971,0 12,0 C7.029,0 3,4.029 3,9 L3,13 C1.343,13 0,14.343 0,16 L0,19 L0,20 L0,22 L0,23 C0,27.971 4.029,32 9,32 L15,32 C19.971,32 24,27.971 24,23 L24,22 L24,20 L24,19 L24,16 C24,14.342 22.656,13 21,13 L21,13 Z M5,9 C5,5.134 8.134,2 12,2 C15.866,2 19,5.134 19,9 L19,13 L17,13 L17,9.002 C17,6.24 14.762,4.002 12,4.002 C9.238,4.002 7,6.24 7,9.002 L7,13 L5,13 L5,9 L5,9 Z M16,9 L16,9.003 L16,13 L8,13 L8,9.002 L8,9 C8,6.791 9.791,5 12,5 C14.209,5 16,6.791 16,9 L16,9 Z M22,19 L22,20 L22,22 L22,23 C22,26.859 18.859,30 15,30 L9,30 C5.141,30 2,26.859 2,23 L2,22 L2,20 L2,19 L2,16 C2,15.448 2.448,15 3,15 L5,15 L19,15 L21,15 C21.551,15 22,15.448 22,16 L22,19 L22,19 Z" id="Shape"></path>
                        <path d="M12,19 C10.896,19 10,19.895 10,21 C10,21.607 10.333,22.76 10.667,23.672 C10.939,24.414 11.281,24.998 12,24.998 C12.782,24.998 13.061,24.42 13.334,23.682 C13.672,22.768 14,21.609 14,21 C14,19.895 13.104,19 12,19 L12,19 Z" id="Shape"></path>
                    </g>
                </g>
            </g>
            <g id="tag" transform="translate(181.000000, 70.000000)" fill="#BC1142" sketch:type="MSShapeGroup">
                <g id="Layer_1">
                    <g id="tag">
                        <path d="M31.391,9.883 L26.391,1.883 C25.661,0.714 24.379,0.003 23,0.003 L4,0.003 C1.791,0.003 0,1.794 0,4.003 L0,20.003 C0,22.212 1.791,24.003 4,24.003 L23,24.003 C24.379,24.003 25.66,23.292 26.391,22.122 L31.391,14.122 C32.203,12.827 32.203,11.18 31.391,9.883 L31.391,9.883 Z M29.695,13.062 L24.695,21.064 C24.328,21.652 23.693,22.003 23,22.003 L4,22.003 C2.897,22.003 2,21.105 2,20.003 L2,4.003 C2,2.9 2.897,2.003 4,2.003 L23,2.003 C23.693,2.003 24.328,2.355 24.695,2.942 L29.695,10.942 C30.098,11.587 30.098,12.419 29.695,13.062 L29.695,13.062 Z" id="Shape"></path>
                        <path d="M23,9.003 C21.342,9.003 20,10.346 20,12.003 C20,13.66 21.342,15.003 23,15.003 C24.656,15.003 26,13.659 26,12.003 C26,10.346 24.656,9.003 23,9.003 L23,9.003 Z M23,14.004 C21.895,14.004 21,13.108 21,12.004 C21,10.9 21.895,10.004 23,10.004 C24.104,10.004 25,10.9 25,12.004 C25,13.107 24.104,14.004 23,14.004 L23,14.004 Z" id="Shape"></path>
                    </g>
                </g>
            </g>
            <g id="camera" transform="translate(654.000000, 104.000000)" fill="#333333" sketch:type="MSShapeGroup">
                <g id="Layer_1">
                    <g id="camera">
                        <path d="M16,7.001 C11.581,7.001 8,10.582 8,15.001 C8,19.419 11.581,23.001 16,23.001 C20.418,23.001 24,19.419 24,15.001 C24,10.583 20.418,7.001 16,7.001 L16,7.001 Z M20.555,18.906 C18.399,21.422 14.612,21.713 12.096,19.556 C9.579,17.4 9.289,13.612 11.446,11.097 C13.601,8.58 17.389,8.29 19.905,10.447 C22.42,12.602 22.711,16.391 20.555,18.906 L20.555,18.906 Z" id="Shape"></path>
                        <path d="M16,11.001 C13.791,11.001 12.001,12.792 12,15 L12,15.002 C12,15.277 12.224,15.502 12.5,15.502 C12.776,15.502 13,15.277 13,15.002 L13,15 C13.001,13.344 14.343,12.001 16,12.001 C16.276,12.001 16.5,11.777 16.5,11.501 C16.5,11.225 16.276,11.001 16,11.001 L16,11.001 Z" id="Shape"></path>
                        <path d="M29.492,6.042 L25.158,5.319 L23.785,1.885 C23.326,0.74 22.232,0 21,0 L11,0 C9.768,0 8.674,0.74 8.214,1.886 L6.842,5.319 L2.509,6.042 C1.055,6.283 0,7.527 0,9 L0,24 C0,25.654 1.346,27 3,27 L29,27 C30.654,27 32,25.654 32,24 L32,9 C32,7.527 30.945,6.283 29.492,6.042 L29.492,6.042 Z M30,24 C30,24.553 29.553,25 29,25 L3,25 C2.447,25 2,24.553 2,24 L2,9 C2,8.511 2.354,8.094 2.836,8.014 L8.28,7.107 L10.071,2.629 C10.224,2.25 10.591,2 11,2 L21,2 C21.408,2 21.775,2.249 21.928,2.629 L23.719,7.107 L29.164,8.014 C29.646,8.094 30,8.511 30,9 L30,24 L30,24 Z" id="Shape"></path>
                    </g>
                </g>
            </g>
            <g id="trash" transform="translate(834.000000, 337.000000)" fill="#333333" sketch:type="MSShapeGroup">
                <g id="Layer_1">
                    <g id="trash">
                        <path d="M27.98,6.819 C27.884,5.249 26.593,4.003 25,4.003 L22,4.003 L22,3.003 L22,3.001 C22,1.344 20.656,0.001 19,0.001 L9,0.001 C7.343,0.001 6,1.344 6,3.001 L6,3.002 L6,4.002 L3,4.002 C1.405,4.002 0.115,5.248 0.019,6.818 L0,6.818 L0,8.001 L0,9.001 C0,10.105 0.896,11.001 2,11.001 L2,11.001 L2,28.001 C2,30.21 3.791,32.001 6,32.001 L22,32.001 C24.209,32.001 26,30.21 26,28.001 L26,11.001 L26,11.001 C27.104,11.001 28,10.105 28,9.001 L28,8.001 L28,6.819 L27.98,6.819 L27.98,6.819 Z M8,3.002 C8,2.449 8.447,2.002 9,2.002 L19,2.002 C19.553,2.002 20,2.449 20,3.002 L20,4.002 L8,4.002 L8,3.002 L8,3.002 Z M24,28.002 C24,29.104 23.102,30.002 22,30.002 L6,30.002 C4.897,30.002 4,29.104 4,28.002 L4,11.002 L24,11.002 L24,28.002 L24,28.002 Z M26,8.001 L26,9.001 L2,9.001 L2,8.001 L2,7.002 C2,6.449 2.447,6.002 3,6.002 L25,6.002 C25.553,6.002 26,6.449 26,7.002 L26,8.001 L26,8.001 Z" id="Shape"></path>
                        <path d="M7,28.006 L9,28.006 C9.553,28.006 10,27.559 10,27.006 L10,14.006 C10,13.453 9.553,13.006 9,13.006 L7,13.006 C6.447,13.006 6,13.453 6,14.006 L6,27.006 C6,27.559 6.447,28.006 7,28.006 L7,28.006 Z M7,14.005 L9,14.005 L9,27.005 L7,27.005 L7,14.005 L7,14.005 Z" id="Shape"></path>
                        <path d="M13,28.006 L15,28.006 C15.553,28.006 16,27.559 16,27.006 L16,14.006 C16,13.453 15.553,13.006 15,13.006 L13,13.006 C12.447,13.006 12,13.453 12,14.006 L12,27.006 C12,27.559 12.447,28.006 13,28.006 L13,28.006 Z M13,14.005 L15,14.005 L15,27.005 L13,27.005 L13,14.005 L13,14.005 Z" id="Shape"></path>
                        <path d="M19,28.006 L21,28.006 C21.553,28.006 22,27.559 22,27.006 L22,14.006 C22,13.453 21.553,13.006 21,13.006 L19,13.006 C18.447,13.006 18,13.453 18,14.006 L18,27.006 C18,27.559 18.447,28.006 19,28.006 L19,28.006 Z M19,14.005 L21,14.005 L21,27.005 L19,27.005 L19,14.005 L19,14.005 Z" id="Shape"></path>
                    </g>
                </g>
            </g>
            <g id="settings" transform="translate(265.000000, 360.000000)" fill="#BC1142" sketch:type="MSShapeGroup">
                <g id="Layer_1">
                    <g id="settings">
                        <path d="M30.391,12.68 L27.327,12.066 C27.173,11.623 26.991,11.193 26.79,10.777 L28.526,8.173 C29.055,7.38 28.95,6.323 28.276,5.65 L26.352,3.726 C25.965,3.339 25.454,3.14 24.936,3.14 C24.553,3.14 24.166,3.25 23.829,3.476 L21.225,5.211 C20.807,5.009 20.377,4.829 19.934,4.675 L19.32,1.61 C19.134,0.674 18.312,0.002 17.359,0.002 L14.639,0.002 C13.686,0.002 12.865,0.675 12.678,1.61 L12.064,4.675 C11.621,4.829 11.191,5.01 10.775,5.211 L8.172,3.476 C7.833,3.25 7.447,3.14 7.063,3.14 C6.546,3.14 6.035,3.339 5.648,3.726 L3.725,5.65 C3.051,6.324 2.946,7.38 3.475,8.173 L5.21,10.777 C5.008,11.194 4.828,11.624 4.674,12.067 L1.608,12.68 C0.673,12.867 0,13.688 0,14.641 L0,17.361 C0,18.314 0.673,19.136 1.608,19.322 L4.673,19.937 C4.827,20.38 5.008,20.81 5.209,21.226 L3.475,23.83 C2.946,24.623 3.051,25.68 3.725,26.353 L5.649,28.277 C6.036,28.664 6.547,28.863 7.064,28.863 C7.448,28.863 7.835,28.752 8.172,28.527 L10.776,26.791 C11.193,26.994 11.623,27.174 12.066,27.328 L12.679,30.392 C12.866,31.328 13.687,32.001 14.64,32.001 L17.36,32.001 C18.313,32.001 19.135,31.327 19.321,30.392 L19.936,27.328 C20.379,27.174 20.809,26.992 21.225,26.791 L23.829,28.527 C24.167,28.752 24.554,28.863 24.936,28.863 C25.454,28.863 25.965,28.664 26.352,28.277 L28.276,26.353 C28.95,25.679 29.055,24.623 28.526,23.83 L26.79,21.226 C26.993,20.808 27.173,20.378 27.327,19.935 L30.391,19.322 C31.326,19.137 32,18.314 32,17.361 L32,14.641 C32,13.688 31.326,12.867 30.391,12.68 L30.391,12.68 Z M26.934,17.975 C26.239,18.114 25.67,18.61 25.438,19.28 C25.309,19.649 25.159,20.007 24.991,20.354 C24.68,20.993 24.733,21.747 25.126,22.336 L26.862,24.94 L24.938,26.864 L22.334,25.128 C22,24.905 21.613,24.792 21.225,24.792 C20.928,24.792 20.629,24.858 20.354,24.991 C20.006,25.159 19.649,25.311 19.278,25.44 C18.61,25.672 18.114,26.241 17.975,26.936 L17.36,30.002 L14.64,30.002 L14.027,26.936 C13.888,26.241 13.392,25.672 12.723,25.44 C12.354,25.311 11.995,25.161 11.648,24.993 C11.372,24.858 11.074,24.792 10.776,24.792 C10.387,24.792 10.001,24.905 9.667,25.128 L7.063,26.864 L5.139,24.94 L6.874,22.336 C7.267,21.746 7.318,20.992 7.011,20.356 C6.843,20.008 6.692,19.651 6.563,19.28 C6.331,18.612 5.761,18.116 5.067,17.977 L2.002,17.362 L2,14.641 L5.066,14.028 C5.76,13.889 6.33,13.393 6.562,12.724 C6.691,12.355 6.84,11.996 7.009,11.649 C7.319,11.011 7.267,10.257 6.873,9.668 L5.139,7.064 L7.062,5.14 L9.666,6.875 C10,7.098 10.387,7.211 10.775,7.211 C11.072,7.211 11.37,7.145 11.646,7.012 C11.993,6.844 12.351,6.693 12.721,6.564 C13.39,6.332 13.886,5.762 14.025,5.068 L14.639,2.003 L17.359,2.002 L17.972,5.068 C18.111,5.762 18.607,6.332 19.277,6.564 C19.646,6.693 20.004,6.842 20.351,7.011 C20.628,7.145 20.925,7.211 21.224,7.211 C21.613,7.211 21.999,7.098 22.333,6.875 L24.937,5.14 L26.861,7.064 L25.125,9.668 C24.732,10.258 24.682,11.011 24.988,11.648 C25.156,11.995 25.308,12.353 25.437,12.723 C25.669,13.392 26.238,13.888 26.933,14.027 L29.997,14.641 L30,17.361 L26.934,17.975 L26.934,17.975 Z" id="Shape"></path>
                        <path d="M16,9.001 C12.135,9.001 9,12.136 9,16.001 C9,19.867 12.135,23.001 16,23.001 C19.865,23.001 23,19.866 23,16.001 C23,12.136 19.865,9.001 16,9.001 L16,9.001 Z M16,22.127 C12.618,22.127 9.875,19.383 9.875,16.002 C9.875,12.62 12.618,9.877 16,9.877 C19.381,9.877 22.125,12.62 22.125,16.002 C22.125,19.383 19.381,22.127 16,22.127 L16,22.127 Z" id="Shape"></path>
                        <path d="M16,12.001 C13.79,12.001 12,13.791 12,16.001 C12,18.21 13.79,20.001 16,20.001 C18.209,20.001 20,18.21 20,16.001 C20,13.792 18.209,12.001 16,12.001 L16,12.001 Z M16,19.002 C14.344,19.002 13,17.658 13,16.002 C13,14.346 14.344,13.002 16,13.002 C17.656,13.002 19,14.346 19,16.002 C19,17.658 17.656,19.002 16,19.002 L16,19.002 Z" id="Shape"></path>
                    </g>
                </g>
            </g>
            <g id="key" transform="translate(747.000000, 344.000000)" fill="#333333" sketch:type="MSShapeGroup">
                <g id="Layer_1">
                    <g id="key">
                        <path d="M22.004,0 C16.481,0 12.004,4.478 12.004,10 C12.004,11.285 12.273,12.501 12.717,13.629 L0.568,25.777 C0.217,26.129 0,26.463 0,27 L0,30 C0,31.07 0.929,32 2,32 L5,32 C5.536,32 5.875,31.785 6.226,31.436 L7.661,30 L10.004,30 C11.108,30 12.004,29.104 12.004,28 L12.004,26 L14.004,26 C15.108,26 16.004,25.104 16.004,24 L16.004,21.656 L18.373,19.285 C19.502,19.73 20.717,20 22.004,20 C27.525,20 32.004,15.522 32.004,10 C32.004,4.478 27.525,0 22.004,0 L22.004,0 Z M22.004,18 C20.524,18 19.152,17.57 17.963,16.868 L17.619,17.211 L16.494,18.336 L14.589,20.242 C14.214,20.617 14.003,21.125 14.003,21.656 L14.003,24 L12.003,24 C10.899,24 10.003,24.895 10.003,26 L10.003,28 L7.661,28 C7.131,28 6.622,28.211 6.247,28.586 L4.829,30.004 L2.003,30 L2,27.15 L13.665,15.506 C13.665,15.506 13.665,15.507 13.666,15.508 L15.135,14.039 C14.433,12.85 14.003,11.479 14.003,9.999 C14.003,5.581 17.586,1.999 22.003,1.999 C26.42,1.999 30.003,5.581 30.003,9.999 C30.003,14.417 26.422,18 22.004,18 L22.004,18 Z" id="Shape"></path>
                        <path d="M27.82,8.239 C26.699,6.677 25.334,5.314 23.765,4.185 C23.51,4 23.18,3.954 22.883,4.058 C21.494,4.547 20.543,5.497 20.057,6.886 C20.02,6.99 20.002,7.098 20.002,7.205 C20.002,7.404 20.064,7.601 20.184,7.768 C21.309,9.332 22.672,10.696 24.237,11.821 C24.493,12.005 24.821,12.052 25.118,11.949 C26.509,11.463 27.46,10.511 27.948,9.121 C27.985,9.017 28.003,8.909 28.003,8.802 C28.002,8.603 27.939,8.406 27.82,8.239 L27.82,8.239 Z M24.82,11.01 C23.342,9.947 22.055,8.66 21,7.217 C21.387,6.114 22.111,5.39 23.182,4.996 C24.661,6.061 25.946,7.345 26.998,8.807 C26.607,9.902 25.885,10.622 24.82,11.01 L24.82,11.01 Z" id="Shape"></path>
                    </g>
                </g>
            </g>
            <g id="user" transform="translate(929.000000, 192.000000)" fill="#333333" sketch:type="MSShapeGroup">
                <g id="Layer_1">
                    <path d="M31.11,28.336 C30.909,28.203 27.262,25.811 21.837,24.637 C23.827,22.116 25.105,18.725 25.648,16.468 C26.402,13.34 26.109,7.22 23.105,3.406 C21.349,1.177 18.892,0 16,0 C13.108,0 10.651,1.178 8.896,3.406 C5.892,7.219 5.6,13.339 6.353,16.467 C6.896,18.724 8.173,22.115 10.164,24.636 C4.739,25.81 1.092,28.202 0.892,28.335 C0.159,28.823 -0.169,29.735 0.087,30.577 C0.341,31.422 1.12,32 2,32 L30,32 C30.881,32 31.658,31.422 31.914,30.578 C32.171,29.736 31.843,28.824 31.11,28.336 L31.11,28.336 Z M20.267,23.398 L19.941,23.812 C17.556,26.552 14.446,26.552 12.062,23.812 L11.735,23.398 C8.95,19.869 7.568,15.201 8.163,10.748 C8.708,6.469 11.16,2 16,2 C20.84,2 23.293,6.47 23.838,10.749 C24.431,15.204 23.054,19.867 20.267,23.398 L20.267,23.398 Z M2,30 C2.138,29.908 5.526,27.686 10.586,26.592 L13.07,26.055 C13.957,26.637 14.93,27 16,27 C17.071,27 18.043,26.637 18.93,26.055 L21.414,26.592 C26.434,27.678 29.81,29.875 30,30 L2,30 L2,30 Z" id="usericon"></path>
                </g>
            </g>
            <g id="sound" transform="translate(146.000000, 155.000000)" fill="#333333" sketch:type="MSShapeGroup">
                <g id="Layer_1">
                    <g id="sound">
                        <path d="M26.998,14.003 L27,14.003 C27.002,14.277 27.225,14.499 27.5,14.499 C27.775,14.499 28,14.276 28,14 C28,13.997 27.998,13.995 27.998,13.992 C27.992,8.483 23.533,4.019 18.025,4.006 C18.018,4.004 18.01,4 18,4 C17.723,4 17.5,4.224 17.5,4.5 C17.5,4.775 17.723,4.999 17.998,5 L17.998,5.004 C22.961,5.003 26.998,9.041 26.998,14.003 L26.998,14.003 Z" id="Shape"></path>
                        <path d="M9.121,0.878 C8.548,0.304 7.78,0 6.999,0 C6.613,0 6.224,0.074 5.853,0.228 C4.731,0.692 4,1.786 4,3 L3.999,16.757 L0.879,19.879 C-0.293,21.049 -0.293,22.949 0.879,24.121 L7.879,31.121 C8.465,31.707 9.232,32 10,32 C10.768,32 11.535,31.707 12.121,31.121 L15.242,28 L28.998,28 C30.213,28 31.307,27.27 31.769,26.148 C32.234,25.027 31.978,23.736 31.119,22.878 L9.121,0.878 L9.121,0.878 Z M13.828,26.586 L10.707,29.707 C10.452,29.961 10.154,30 10,30 C9.846,30 9.548,29.961 9.293,29.707 L2.293,22.707 C2.038,22.451 2,22.154 2,22 C2,21.846 2.038,21.547 2.293,21.293 L5.413,18.172 C5.422,18.162 5.425,18.151 5.434,18.141 L13.859,26.567 C13.85,26.574 13.837,26.576 13.828,26.586 L13.828,26.586 Z M15.242,26 C15.087,26 14.943,26.055 14.795,26.088 L5.91,17.203 C5.944,17.055 5.999,16.911 5.999,16.757 L6,4.711 L27.287,26 L15.242,26 L15.242,26 Z M29.922,25.383 C29.768,25.758 29.404,26 28.998,26 L28.701,26 L6,3.297 L6,3 C6,2.594 6.242,2.231 6.617,2.076 C6.74,2.025 6.868,2 6.999,2 C7.267,2 7.518,2.104 7.706,2.292 L29.705,24.293 C29.992,24.58 30.078,25.008 29.922,25.383 L29.922,25.383 Z" id="Shape"></path>
                        <path d="M17.998,2 L17.998,2.004 C24.615,2.004 29.998,7.387 29.998,14.004 L30,14.004 C30.002,14.554 30.449,15 31,15 C31.553,15 32,14.553 32,14 C32,13.997 31.998,13.995 31.998,13.992 C31.992,6.274 25.742,0.019 18.025,0.005 C18.018,0.004 18.01,0 18,0 C17.447,0 17,0.447 17,1 C17,1.551 17.447,1.999 17.998,2 L17.998,2 Z" id="Shape"></path>
                    </g>
                </g>
            </g>
            <g id="star" transform="translate(260.000000, 95.000000)" fill="#333333" sketch:type="MSShapeGroup">
                <g id="Layer_1">
                    <path d="M31.881,11.557 C31.604,10.758 30.893,10.173 30.037,10.046 L21.711,8.808 L18.092,1.294 C17.711,0.505 16.896,0 16,0 C15.104,0 14.289,0.505 13.908,1.294 L10.289,8.808 L1.962,10.046 C1.107,10.173 0.396,10.758 0.12,11.557 C-0.155,12.358 0.053,13.24 0.657,13.842 L6.759,19.934 L5.344,28.385 C5.2,29.236 5.569,30.09 6.292,30.588 C6.689,30.861 7.156,31 7.623,31 C8.007,31 8.392,30.906 8.741,30.719 L16,26.811 L23.26,30.719 C23.609,30.906 23.994,31 24.377,31 C24.844,31 25.311,30.861 25.709,30.588 C26.432,30.09 26.799,29.236 26.656,28.385 L25.24,19.934 L31.344,13.842 C31.947,13.239 32.154,12.357 31.881,11.557 L31.881,11.557 Z M23.588,18.363 C23.076,18.873 22.844,19.592 22.961,20.297 L24.377,28.748 L17.117,24.842 C16.769,24.654 16.385,24.561 15.999,24.561 C15.615,24.561 15.23,24.655 14.882,24.842 L7.622,28.748 L9.038,20.297 C9.156,19.592 8.924,18.873 8.412,18.363 L2.31,12.271 L10.636,11.031 C11.397,10.918 12.052,10.442 12.379,9.763 L16,2.251 L19.62,9.764 C19.948,10.443 20.602,10.918 21.362,11.032 L29.69,12.272 L23.588,18.363 L23.588,18.363 Z" id="star"></path>
                </g>
            </g>
            <g id="tv" transform="translate(178.000000, 357.000000)" fill="#333333" sketch:type="MSShapeGroup">
                <g id="Layer_1">
                    <g id="tv">
                        <path d="M22.17,4.624 C19.463,4.067 16.715,3.785 14.005,3.785 C11.295,3.785 8.548,4.067 5.84,4.624 C5.49,4.696 5.204,4.95 5.091,5.291 C3.649,9.672 3.649,14.114 5.091,18.495 C5.203,18.835 5.489,19.089 5.84,19.161 C8.548,19.717 11.295,20 14.005,20 C16.714,20 19.463,19.717 22.17,19.16 C22.522,19.088 22.807,18.834 22.92,18.494 C24.361,14.113 24.361,9.671 22.92,5.29 C22.807,4.95 22.521,4.696 22.17,4.624 L22.17,4.624 Z M21.969,18.182 C16.66,19.272 11.35,19.272 6.042,18.182 C4.661,13.989 4.661,9.797 6.042,5.603 C11.351,4.512 16.661,4.512 21.969,5.603 C23.35,9.796 23.35,13.988 21.969,18.182 L21.969,18.182 Z" id="Shape"></path>
                        <path d="M30.854,2.32 C30.661,1.506 29.979,0.898 29.149,0.798 C24.789,0.268 20.367,0 16.005,0 C11.644,0 7.222,0.268 2.862,0.797 C2.032,0.898 1.351,1.505 1.158,2.32 C-0.371,8.743 -0.371,15.256 1.158,21.68 C1.351,22.494 2.032,23.102 2.862,23.201 C4.963,23.457 7.078,23.644 9.193,23.777 C9.079,23.85 9.005,23.924 9.005,24 C9.005,24.553 12.139,25 16.005,25 C19.871,25 23.005,24.553 23.005,24 C23.005,23.924 22.931,23.85 22.817,23.777 C24.932,23.644 27.047,23.457 29.147,23.201 C29.977,23.101 30.659,22.494 30.852,21.68 C32.383,15.256 32.383,8.743 30.854,2.32 L30.854,2.32 Z M28.908,21.217 C20.306,22.26 11.704,22.26 3.103,21.217 C1.64,15.072 1.64,8.927 3.103,2.783 C11.705,1.739 20.307,1.739 28.908,2.783 C30.371,8.927 30.371,15.072 28.908,21.217 L28.908,21.217 Z" id="Shape"></path>
                        <path d="M26.506,8 C27.334,8 28.006,7.328 28.006,6.5 C28.006,5.672 27.334,5 26.506,5 C25.678,5 25.006,5.672 25.006,6.5 C25.006,7.328 25.678,8 26.506,8 L26.506,8 Z M26.506,6 C26.781,6 27.006,6.225 27.006,6.5 C27.006,6.775 26.781,7 26.506,7 C26.231,7 26.006,6.775 26.006,6.5 C26.006,6.225 26.23,6 26.506,6 L26.506,6 Z" id="Shape"></path>
                        <path d="M27.506,18 L24.506,18 C24.229,18 24.006,18.223 24.006,18.5 C24.006,18.775 24.229,19 24.506,19 L27.506,19 C27.781,19 28.006,18.775 28.006,18.5 C28.006,18.223 27.781,18 27.506,18 L27.506,18 Z" id="Shape"></path>
                        <path d="M28.506,15 L25.506,15 C25.229,15 25.006,15.223 25.006,15.5 C25.006,15.775 25.229,16 25.506,16 L28.506,16 C28.781,16 29.006,15.775 29.006,15.5 C29.006,15.223 28.781,15 28.506,15 L28.506,15 Z" id="Shape"></path>
                        <path d="M28.506,12 L25.506,12 C25.229,12 25.006,12.224 25.006,12.5 C25.006,12.776 25.229,13 25.506,13 L28.506,13 C28.781,13 29.006,12.776 29.006,12.5 C29.006,12.224 28.781,12 28.506,12 L28.506,12 Z" id="Shape"></path>
                        <path d="M13.505,7.804 L8.919,8.163 C8.646,8.194 8.385,8.442 8.339,8.714 L8.034,11.5 C8.02,11.775 8.233,12 8.507,12 C8.78,12 9.014,11.775 9.025,11.5 L9.192,9.605 C9.229,9.333 9.483,9.087 9.756,9.059 L13.505,8.802 C13.78,8.792 14.005,8.56 14.005,8.284 C14.005,8.008 13.781,7.793 13.505,7.804 L13.505,7.804 Z" id="Shape"></path>
                    </g>
                </g>
            </g>
            <g id="heart" transform="translate(842.000000, 173.000000)" fill="#BC1142" sketch:type="MSShapeGroup">
                <g id="Layer_1">
                    <g id="heart">
                        <path d="M29.193,3.265 C25.564,-0.331 19.761,-0.406 16.002,2.977 C12.242,-0.406 6.441,-0.331 2.81,3.265 C-0.931,6.969 -0.931,12.974 2.81,16.68 C3.879,17.739 13.863,27.621 13.863,27.621 C15.046,28.793 16.959,28.793 18.141,27.621 C18.141,27.621 29.073,16.799 29.194,16.68 C32.936,12.974 32.936,6.969 29.193,3.265 L29.193,3.265 Z M27.768,15.268 L16.715,26.209 C16.322,26.6 15.681,26.6 15.29,26.209 L4.237,15.268 C1.287,12.348 1.287,7.597 4.237,4.677 C7.081,1.862 11.653,1.763 14.646,4.455 L16.002,5.675 L17.357,4.455 C20.351,1.763 24.923,1.861 27.767,4.677 C30.717,7.596 30.717,12.347 27.768,15.268 L27.768,15.268 Z" id="Shape"></path>
                        <path d="M9.253,5.501 C9.251,5.501 9.251,5.502 9.249,5.502 C6.904,5.504 5.003,7.405 5.003,9.751 L5.003,9.751 C5.003,10.027 5.227,10.251 5.503,10.251 C5.779,10.251 6.003,10.027 6.003,9.751 L6.003,9.75 C6.003,7.956 7.458,6.501 9.252,6.501 L9.253,6.501 C9.529,6.501 9.753,6.277 9.753,6.001 C9.753,5.725 9.53,5.501 9.253,5.501 L9.253,5.501 Z" id="Shape"></path>
                    </g>
                </g>
            </g>
            <g id="cloud" transform="translate(294.431232, 25.249252) rotate(-15.000000) translate(-294.431232, -25.249252) translate(278.431232, 13.749252)" fill="#333333" sketch:type="MSShapeGroup">
                <g id="Layer_1">
                    <path d="M25.914,8.143 C25.477,3.58 21.678,0 17,0 C13.381,0 10.283,2.148 8.854,5.23 C8.424,5.094 7.976,5 7.501,5 C5.016,5 3.001,7.016 3.001,9.5 C3.001,9.994 3.1,10.461 3.247,10.904 C1.314,12.031 0.001,14.099 0.001,16.498 C0.001,20.088 2.911,22.998 6.501,22.998 L6.501,23 L24.5,23 L24.5,22.998 C28.643,22.998 32,19.641 32,15.498 C32,11.842 29.379,8.805 25.914,8.143 L25.914,8.143 Z M24.5,20.998 L24.5,21 L6.501,21 C4.02,20.998 2.001,18.98 2.001,16.498 C2.001,14.898 2.844,13.453 4.255,12.631 C5.626,11.844 5.72,11.688 5.145,10.274 C5.048,9.983 5.001,9.73 5.001,9.501 C5.001,8.122 6.122,7.001 7.501,7.001 C7.501,7.001 8.157,6.954 8.854,7.231 C10.001,7.688 10.126,7.251 10.668,6.072 C11.815,3.599 14.3,2 17,2 C20.6,2 23.576,4.723 23.924,8.334 C24.047,9.766 24.047,9.766 25.539,10.107 C28.125,10.601 30,12.869 30,15.498 C30,18.531 27.533,20.998 24.5,20.998 L24.5,20.998 Z" id="cloud"></path>
                </g>
            </g>
        </g>
    </g>
</svg>