<svg xmlns="http://www.w3.org/2000/svg" width="294" height="135" viewBox="0 0 294 135" version="1.1"><title>Slice 3</title><desc>Created with Sketch.</desc><defs><path d="M0 0.22L94.73 0.22 94.73 68.42 0 68.42 0 0.22Z"/></defs><g stroke="none" stroke-width="1" fill="none" fill-rule="evenodd"><g transform="translate(1.000000, 0.000000)"><path d="M54.55 59.23C76.74 59.23 94.73 61.29 94.73 63.83 94.73 66.37 76.74 68.42 54.55 68.42 32.36 68.42 14.38 66.37 14.38 63.83 14.38 61.29 32.36 59.23 54.55 59.23" fill="#000000"/><path d="M20.9 65.08C22.15 67.06 35.64 67.17 49.72 66.62 65.91 65.96 82.9 64.34 83.16 63.42 85.26 60.92 84.34 57.17 85.74 53.53 89.61 50.11 88.65 46.06 88.65 42.35 88.65 38.45 87.03 36.94 83.16 33.52 81.76 29.92 83.16 28.96 81.06 26.46 80.58 24.73 77.37 21.24 68.89 20.25 66.79 19.59 66.2 13.37 63.55 12.93 55.07 6.09 44.64 10.47 41.39 15.32L40.18 15.94C31.44 15.91 31.48 25.21 28.79 29.44 28.49 29.85 28.05 29.11 27.39 30.55 26.98 31.39 25.54 29.88 25.03 30.55 22.93 31.06 20.53 66.36 20.9 65.08" fill="#000000"/><path d="M83.05 65C85.77 64.86 88.39 61 88.17 55.48 87.91 49.85 85.44 46.36 82.6 46.47 79.4 46.62 76.26 51.95 76.56 56.1 76.67 60.81 80.8 65.08 83.05 65" fill="#BC1142"/><path d="M82.79 47.76L82.68 47.76C81.94 47.79 81.13 48.31 80.32 49.19 78.7 50.99 77.7 53.79 77.85 56.03L77.85 56.07C77.92 58.79 79.54 61.25 80.91 62.54 81.79 63.35 82.57 63.72 82.94 63.72L82.97 63.72C84.71 63.64 87.06 60.66 86.88 55.52 86.73 52.39 85.81 49.74 84.45 48.49 83.89 48.01 83.34 47.76 82.79 47.76M82.97 66.29C81.83 66.29 80.47 65.63 79.18 64.42 77.37 62.72 75.38 59.67 75.27 56.18 75.08 53.27 76.34 49.78 78.4 47.46 79.69 46.03 81.13 45.25 82.57 45.18 83.86 45.11 85.11 45.62 86.18 46.58 88.1 48.31 89.28 51.54 89.46 55.41 89.72 62.03 86.44 66.11 83.12 66.29L82.97 66.29" fill="#000000"/><path d="M84.12 55.92C87.91 55.11 96.43 47.02 90.97 42.35 86.88 38.82 88.35 28.08 85.07 28.67 79.32 29.66 73.13 36.24 73.2 42.35 72.98 49.26 80.06 56.77 84.12 55.92" fill="#BC1142"/><path d="M85.29 29.96C80.36 30.8 74.46 36.69 74.53 42.35L74.53 42.39 74.53 42.42C74.38 46.51 77.15 50.73 79.77 52.94 81.31 54.23 82.82 54.89 83.86 54.67 86.07 54.19 90.46 50.48 91.34 47.13 91.75 45.59 91.34 44.37 90.16 43.34 87.73 41.28 87.06 37.49 86.47 34.15 86.18 32.64 85.77 30.36 85.29 29.96M83.45 57.28C81.83 57.28 79.95 56.47 78.11 54.89 74.94 52.21 71.8 47.31 71.95 42.35 71.91 39.19 73.39 35.66 76.01 32.72 78.55 29.85 81.79 27.9 84.85 27.38 87.73 26.87 88.35 30.32 88.94 33.67 89.46 36.43 90.05 39.89 91.78 41.36 93.74 43.01 94.4 45.22 93.77 47.72 92.59 52.28 87.32 56.51 84.34 57.13L84.08 55.88 84.34 57.13C84.08 57.24 83.78 57.28 83.45 57.28" fill="#000000"/><path d="M57.83 44.52C59.38 40.92 64.25 52.98 61.93 58.57 59.57 64.23 58.83 65.08 56.54 65.45 49.61 66.59 46.81 52.13 48.66 47.98 50.57 43.2 57.83 44.52 57.83 44.52" fill="#BC1142"/><path d="M55.59 45.66C53.63 45.66 50.79 46.1 49.84 48.42 48.73 50.96 49.69 58.57 52.6 62.28 53.74 63.75 54.96 64.34 56.36 64.12 57.83 63.86 58.31 63.79 60.75 58.02 62.33 54.23 60.05 47.28 58.68 45.44L58.28 45.84 57.61 45.73C57.58 45.81 56.73 45.66 55.59 45.66M55.81 66.77C53.85 66.77 52.05 65.78 50.57 63.86 47.18 59.53 45.96 50.92 47.48 47.42 49.1 43.34 54.04 42.79 57.21 43.16 57.83 42.53 58.64 42.46 59.31 42.75 62.33 44 65.17 54.16 63.11 59.08 60.75 64.75 59.79 66.22 56.77 66.73 56.43 66.73 56.1 66.77 55.81 66.77" fill="#000000"/><path d="M70.81 36.39C69.19 40.22 63.95 27.38 66.39 21.53 68.89 15.54 69.81 11.94 71.95 12.82 74.38 13.81 75.9 28.12 80.58 32.86 78.55 37.83 70.81 36.39 70.81 36.39" fill="#BC1142"/><path d="M71.32 13.96C70.73 14.14 69.63 16.86 68.78 19.07 68.41 19.95 68.01 20.95 67.56 22.05 65.94 25.99 68.38 33.67 69.89 35.55L70.37 35.07 71.03 35.18C71.1 35.18 72.87 35.51 74.83 35.25 76.85 34.99 78.25 34.26 79.03 33.08 76.6 30.1 75.08 24.99 73.76 20.47 73.02 18 72.06 14.62 71.4 14.03L71.32 13.96ZM70.03 38.38C69.78 38.38 69.48 38.3 69.26 38.23 67.01 37.28 65.54 32.16 65.28 31.13 64.76 29.26 63.77 24.48 65.21 21.06 65.65 19.99 66.05 19 66.39 18.11 67.86 14.47 68.71 12.27 70.33 11.61 70.77 11.42 71.51 11.27 72.43 11.64 74.02 12.3 74.79 14.73 76.23 19.7 77.52 24.11 79.1 29.55 81.46 31.94L82.05 32.53 81.72 33.3C79.99 37.61 74.75 38.19 71.36 37.79 70.99 38.19 70.51 38.38 70.03 38.38L70.03 38.38Z" fill="#000000"/><path d="M74.9 42.72C76.85 40 79.18 39.04 80.95 40.22 82.75 41.39 83.75 44.52 83.6 48.42 83.45 52.32 82.16 56.4 80.21 59.12 78.25 61.84 75.93 62.8 74.16 61.62 72.36 60.44 71.36 57.32 71.51 53.42 71.66 49.52 72.95 45.44 74.9 42.72" fill="#BC1142"/><path d="M79.32 40.99C78.14 40.99 76.85 42.17 75.93 43.45 74.13 45.99 72.91 49.82 72.76 53.46 72.61 56.84 73.43 59.6 74.83 60.52 76.19 61.4 77.96 59.97 79.14 58.35 80.95 55.81 82.16 51.98 82.31 48.34 82.46 44.96 81.65 42.2 80.25 41.28 79.95 41.1 79.66 40.99 79.32 40.99M75.78 63.39C74.9 63.39 74.09 63.13 73.43 62.69 71.21 61.25 70 57.76 70.18 53.38 70.33 49.26 71.73 44.89 73.83 41.98 76.71 38.01 79.73 37.9 81.65 39.15 83.86 40.59 85.07 44.08 84.89 48.46 84.74 52.57 83.34 56.95 81.24 59.86 79.4 62.47 77.44 63.39 75.78 63.39" fill="#000000"/><path d="M75.23 26.5C76.19 22.53 77.96 19.7 79.88 19.11 81.79 18.52 81.24 20.76 82.16 24.18 83.08 27.57 85.33 31.57 84.37 35.55 83.41 39.52 81.65 42.35 79.73 42.94 77.81 43.53 76.08 41.8 75.16 38.41 74.2 35.03 74.24 30.51 75.23 26.5" fill="#BC1142"/><path d="M76.49 26.83C75.56 30.58 75.53 34.92 76.41 38.08 76.89 39.89 77.67 41.17 78.48 41.61 78.77 41.76 79.07 41.8 79.36 41.69 80.54 41.32 82.16 39.19 83.12 35.22 83.75 32.64 82.79 29.92 81.83 27.31 81.5 26.35 81.17 25.43 80.91 24.51 80.61 23.41 80.43 22.42 80.32 21.61 80.25 21.2 80.17 20.73 80.1 20.39 78.92 20.91 77.41 23.01 76.49 26.83M78.99 44.34C78.37 44.34 77.78 44.19 77.22 43.86 75.75 43.05 74.61 41.28 73.91 38.75 72.91 35.18 72.95 30.36 73.98 26.2 75.08 21.72 77.11 18.63 79.47 17.89 80.25 17.64 80.95 17.71 81.5 18.04 82.46 18.63 82.64 19.77 82.86 21.2 82.97 21.98 83.12 22.86 83.38 23.81 83.6 24.62 83.93 25.51 84.23 26.43 85.26 29.26 86.4 32.49 85.59 35.8 84.48 40.29 82.46 43.38 80.1 44.12 79.73 44.26 79.36 44.34 78.99 44.34" fill="#000000"/><path d="M70.85 49.45C74.09 49.3 77.15 44.74 76.89 38.19 76.6 31.54 73.68 27.42 70.33 27.57 66.53 27.75 62.85 34.04 63.18 38.93 63.33 44.48 68.19 49.56 70.85 49.45" fill="#BC1142"/><path d="M70.51 28.85L70.4 28.85C69.48 28.89 68.45 29.51 67.46 30.62 65.5 32.79 64.28 36.17 64.47 38.86L64.47 38.89C64.54 42.17 66.53 45.14 68.19 46.69 69.37 47.79 70.33 48.16 70.81 48.12 73.87 47.98 75.82 42.79 75.64 38.19 75.45 34.44 74.35 31.28 72.69 29.74 71.99 29.15 71.25 28.85 70.51 28.85M70.77 50.73C69.48 50.73 67.93 49.96 66.46 48.6 64.36 46.65 62.04 43.09 61.93 39 61.7 35.62 63.18 31.57 65.58 28.89 67.05 27.27 68.67 26.35 70.33 26.28 71.8 26.21 73.2 26.76 74.42 27.86 76.63 29.88 78.03 33.63 78.22 38.12 78.51 45.77 74.75 50.55 70.92 50.7 70.88 50.73 70.81 50.73 70.77 50.73" fill="#000000"/><path d="M43.94 44.52C45.49 40.92 50.35 52.98 48.03 58.57 45.67 64.23 44.93 65.08 42.65 65.45 35.72 66.59 32.92 52.13 34.76 47.98 36.71 43.2 43.94 44.52 43.94 44.52" fill="#BC1142"/><path d="M41.73 45.66C39.77 45.66 36.93 46.1 35.98 48.42 34.87 50.96 35.83 58.57 38.74 62.28 39.88 63.75 41.1 64.34 42.5 64.12 43.98 63.86 44.45 63.79 46.89 58.02 48.44 54.3 46.26 47.46 44.9 45.51L44.71 45.92 43.75 45.73C43.72 45.77 42.87 45.66 41.73 45.66M41.91 66.77C39.96 66.77 38.15 65.78 36.68 63.86 33.29 59.53 32.07 50.92 33.58 47.42 35.2 43.34 40.14 42.79 43.31 43.16 43.94 42.53 44.75 42.46 45.41 42.75 48.44 44 51.27 54.16 49.21 59.08 46.85 64.75 45.89 66.22 42.87 66.73 42.57 66.73 42.24 66.77 41.91 66.77" fill="#000000"/><path d="M68.86 65.37C71.58 65.23 74.2 61.36 73.98 55.85 73.72 50.22 71.25 46.73 68.41 46.84 65.21 46.98 62.07 52.32 62.37 56.47 62.48 61.18 66.61 65.48 68.86 65.37" fill="#BC1142"/><path d="M68.56 48.12L68.45 48.12C67.71 48.16 66.9 48.68 66.09 49.56 64.47 51.36 63.47 54.16 63.62 56.4L63.62 56.44C63.69 59.16 65.32 61.62 66.68 62.91 67.57 63.75 68.38 64.09 68.74 64.09 70.48 64.01 72.84 61.03 72.65 55.88 72.5 52.76 71.58 50.11 70.22 48.86 69.7 48.38 69.15 48.12 68.56 48.12M68.78 66.66C67.64 66.66 66.28 66 64.98 64.78 63.18 63.09 61.19 60.04 61.08 56.55 60.89 53.64 62.15 50.15 64.21 47.83 65.5 46.4 66.94 45.62 68.38 45.55 69.67 45.48 70.92 45.99 71.99 46.95 73.91 48.68 75.08 51.91 75.27 55.77 75.53 62.39 72.25 66.48 68.93 66.66L68.78 66.66" fill="#000000"/><path d="M63.81 27.86C66.05 27.75 67.75 20.14 67.45 13.26 67.12 6.24 68.56 6.16 66.2 6.27 63.55 6.38 57.91 11.49 58.24 16.68 58.42 22.49 61.93 27.93 63.81 27.86" fill="#BC1142"/><path d="M66.24 7.56C65.43 7.6 63.73 8.55 62.18 10.28 60.34 12.3 59.38 14.58 59.49 16.61 59.68 21.98 62.66 26.2 63.7 26.57 64.76 25.95 66.42 20.21 66.13 13.33 65.98 10.58 66.13 8.85 66.2 7.82 66.24 7.71 66.24 7.63 66.24 7.56M63.77 29.15C63.03 29.15 62.26 28.78 61.45 28.04 59.38 26.13 57.1 21.53 56.95 16.68 56.8 14.03 58.02 11.05 60.3 8.52 62.22 6.38 64.47 5.02 66.16 4.95 67.09 4.91 67.79 4.87 68.38 5.46 68.97 6.09 68.89 6.82 68.82 7.96 68.75 8.99 68.63 10.58 68.75 13.19 68.97 18.11 68.04 28.93 63.88 29.11 63.84 29.15 63.81 29.15 63.77 29.15" fill="#000000"/><path d="M67.12 40.47C68.93 41.65 69.96 44.7 69.81 48.56 69.67 52.39 68.41 56.44 66.46 59.08 64.51 61.77 62.22 62.69 60.41 61.55 58.61 60.37 57.58 57.32 57.72 53.46 57.87 49.63 59.12 45.59 61.08 42.94 63.03 40.29 65.32 39.33 67.12 40.47" fill="#BC1142"/><path d="M65.5 41.28C64.32 41.28 63.07 42.42 62.15 43.67 60.34 46.14 59.16 49.93 59.05 53.49 58.94 56.8 59.75 59.56 61.15 60.44 62.55 61.33 64.29 59.93 65.43 58.31 67.23 55.85 68.41 52.06 68.52 48.49 68.63 45.18 67.82 42.42 66.42 41.54 66.13 41.36 65.8 41.28 65.5 41.28M62.07 63.35C61.26 63.35 60.45 63.13 59.71 62.65 57.5 61.22 56.29 57.8 56.43 53.46 56.58 49.37 57.95 45.07 60.05 42.2 62.41 38.93 65.39 37.86 67.82 39.44 70.03 40.88 71.25 44.3 71.1 48.64 70.96 52.72 69.59 57.02 67.49 59.89 65.87 62.14 63.92 63.35 62.07 63.35" fill="#000000"/><path d="M59.12 27.57C60.08 23.04 61.85 19.84 63.77 19.14 65.69 18.48 67.42 20.43 68.34 24.29 69.26 28.15 69.22 33.3 68.27 37.83 67.31 42.35 65.54 45.55 63.62 46.25 61.7 46.95 59.97 44.96 59.05 41.1 58.13 37.24 58.17 32.09 59.12 27.57" fill="#BC1142"/><path d="M60.41 27.82C59.49 32.16 59.46 37.13 60.34 40.81 61.11 44.01 62.18 44.81 62.52 44.96 62.77 45.11 62.96 45.11 63.22 45.03 64.36 44.63 66.05 42.13 67.01 37.57 67.93 33.23 67.97 28.26 67.09 24.59 66.31 21.39 65.24 20.58 64.91 20.43 64.65 20.28 64.47 20.28 64.21 20.36 63.07 20.76 61.37 23.26 60.41 27.82M62.88 47.65C62.33 47.65 61.78 47.5 61.26 47.2 59.71 46.36 58.53 44.37 57.8 41.39 56.84 37.39 56.84 31.98 57.87 27.27 58.98 22.16 60.97 18.78 63.33 17.93 64.28 17.6 65.24 17.67 66.13 18.15 67.68 19 68.86 20.98 69.59 23.96 70.55 27.97 70.55 33.38 69.52 38.08 68.41 43.2 66.42 46.58 64.06 47.43 63.7 47.57 63.29 47.65 62.88 47.65" fill="#000000"/><path d="M56.36 26.83C59.35 26.39 59.86 19.62 58.76 12.08 57.58 4.43 61.78 1.09 58.72 1.53 55.25 2.04 46.92 9.69 47.88 15.36 48.77 21.75 53.93 27.2 56.36 26.83" fill="#BC1142"/><mask fill="white"/><path d="M58.35 3C56.65 3.62 53.6 5.9 51.35 8.99 49.65 11.31 48.88 13.52 49.17 15.17L49.17 15.21C49.73 19.29 52.31 23.12 54.55 24.81 55.44 25.47 56.03 25.58 56.21 25.58 57.5 25.4 58.83 21.02 57.54 12.3 56.88 8.04 57.8 5.02 58.35 3.22 58.31 3.11 58.31 3.04 58.35 3L58.35 3ZM56.14 28.12C55.18 28.12 54.11 27.68 53.01 26.83 50.43 24.88 47.29 20.54 46.63 15.54 46.15 12.52 47.77 9.47 49.28 7.45 51.94 3.81 55.99 0.65 58.57 0.28 58.98 0.2 60.08 0.06 60.78 0.83 61.48 1.64 61.19 2.63 60.82 3.92 60.3 5.61 59.53 8.18 60.12 11.9 60.64 15.5 61.96 27.31 56.65 28.12L56.14 28.12Z" fill="#000000" mask="url(#mask-2)"/><path d="M47.11 29.26C49.28 28.63 48.4 21.17 46.55 14.51 44.64 7.74 46.85 7.04 44.6 7.67 42.06 8.37 37.71 14.62 39.18 19.59 40.66 25.25 45.3 29.77 47.11 29.26" fill="#BC1142"/><path d="M44.38 9.18C43.57 9.69 42.5 10.87 41.58 12.49 40.25 14.88 39.81 17.34 40.4 19.25 41.76 24.4 45.6 27.86 46.74 28.04 47.44 27.12 47.33 22.09 45.3 14.91 44.53 12.16 44.38 10.32 44.38 9.18M46.81 30.58C46.22 30.58 45.56 30.4 44.86 29.99 42.43 28.6 39.15 24.62 37.89 19.95 37.16 17.42 37.67 14.22 39.33 11.24 40.73 8.74 42.61 6.9 44.23 6.46 45.04 6.24 45.74 6.05 46.37 6.57 47 7.08 47 7.78 46.96 8.44 46.92 9.36 46.89 11.05 47.77 14.22 48.77 17.78 49.43 21.39 49.61 24.11 49.73 25.51 49.98 29.85 47.44 30.54 47.26 30.58 47.03 30.58 46.81 30.58" fill="#000000"/><path d="M46.85 40.33C46.67 46.76 52.53 52.94 55.92 52.98 60.05 52.98 64.28 47.87 64.4 40.29 64.47 32.53 61 27.6 56.73 27.57 51.9 27.53 46.78 34.63 46.85 40.33" fill="#BC1142"/><path d="M56.73 28.85C55.29 28.85 53.67 29.7 52.16 31.21 49.72 33.67 48.1 37.31 48.14 40.33L48.14 40.36 48.14 40.4C48.03 43.97 50.06 47.35 51.97 49.34 53.67 51.1 55.18 51.73 55.95 51.73 59.35 51.73 63.03 47.13 63.14 40.29 63.18 36.02 62.07 32.38 60.08 30.4 59.09 29.37 57.94 28.85 56.73 28.85M55.95 54.27L55.95 54.27C54.19 54.27 52.05 53.09 50.09 51.1 47.14 48.05 45.45 44.04 45.56 40.33 45.52 36.65 47.4 32.35 50.35 29.4 52.38 27.38 54.63 26.28 56.77 26.28 58.68 26.28 60.45 27.09 61.93 28.56 64.4 31.06 65.76 35.33 65.72 40.29 65.69 44.08 64.62 47.61 62.74 50.22 60.89 52.79 58.42 54.27 55.95 54.27" fill="#000000"/><path d="M47.51 42.64C49.47 39.92 51.79 38.97 53.56 40.14 55.36 41.32 56.36 44.45 56.21 48.34 56.07 52.24 54.78 56.32 52.82 59.05 50.87 61.77 48.55 62.72 46.78 61.55 44.97 60.37 43.97 57.24 44.12 53.35 44.27 49.45 45.56 45.37 47.51 42.64" fill="#BC1142"/><path d="M51.94 40.92C50.76 40.92 49.47 42.09 48.55 43.38 46.74 45.92 45.52 49.74 45.38 53.38 45.23 56.77 46.04 59.52 47.44 60.44 48.8 61.33 50.57 59.89 51.75 58.27 53.56 55.74 54.77 51.91 54.92 48.27 55.07 44.89 54.26 42.13 52.86 41.21 52.56 41.03 52.27 40.92 51.94 40.92M48.4 63.31C47.51 63.31 46.7 63.05 46.04 62.61 43.83 61.18 42.61 57.69 42.79 53.31 42.94 49.19 44.34 44.81 46.44 41.91 49.32 37.94 52.34 37.83 54.26 39.08 56.47 40.51 57.69 44 57.5 48.38 57.36 52.5 55.95 56.88 53.85 59.78 52.01 62.36 50.06 63.31 48.4 63.31" fill="#000000"/><path d="M37.16 38.67C38.96 42.9 40.29 27.68 37.63 21.2 34.87 14.58 37.82 13.08 34.72 14.36 34.72 14.36 33.84 14.73 31.22 17.49 25.84 23.15 22.34 32.79 23.19 35.69 25.36 41.28 37.16 38.67 37.16 38.67" fill="#BC1142"/><path d="M24.37 35.33C25.88 38.93 33.87 38.08 36.86 37.42L37.38 37.31C37.97 34.22 38.22 26.09 36.42 21.68 35.28 18.89 35.05 16.97 35.02 15.69 34.61 15.98 33.73 16.72 32.14 18.37 26.87 23.92 23.81 32.94 24.37 35.33M37.75 40.7C37.38 40.7 36.93 40.58 36.53 40.11 33.43 40.66 24.14 41.76 21.97 36.21L21.93 36.1C20.9 32.53 24.77 22.45 30.26 16.64 32.84 13.92 33.95 13.33 34.21 13.22 35.28 12.78 36.09 12.45 36.86 12.97 37.6 13.44 37.6 14.25 37.6 14.95 37.6 15.94 37.6 17.78 38.81 20.76 40.36 24.51 40.44 30.03 40.4 32.24 40.29 39.81 38.85 40.4 38.37 40.62 38.26 40.62 38.04 40.7 37.75 40.7" fill="#000000"/><path d="M30.41 44.52C31.96 40.92 36.82 52.98 34.5 58.57 32.14 64.23 31.41 65.08 29.12 65.45 22.19 66.59 19.39 52.13 21.23 47.98 23.15 43.2 30.41 44.52 30.41 44.52" fill="#BC1142"/><path d="M28.16 45.66C26.21 45.66 23.37 46.1 22.41 48.42 21.31 50.96 22.26 58.57 25.18 62.28 26.32 63.75 27.53 64.34 28.94 64.12 30.41 63.86 30.89 63.79 33.32 58.02 34.87 54.3 32.7 47.46 31.33 45.51L31.15 45.92 30.19 45.73C30.15 45.77 29.3 45.66 28.16 45.66M28.38 66.77C26.43 66.77 24.62 65.78 23.15 63.86 19.76 59.53 18.54 50.92 20.05 47.42 21.67 43.34 26.61 42.79 29.78 43.16 30.41 42.53 31.22 42.46 31.88 42.75 34.91 44 37.75 54.16 35.68 59.08 33.32 64.75 32.36 66.22 29.34 66.73 29.01 66.73 28.71 66.77 28.38 66.77" fill="#000000"/><path d="M45.15 26.87C46.15 22.71 47.99 19.77 49.95 19.14 51.9 18.52 53.71 20.32 54.66 23.85 55.62 27.38 55.59 32.13 54.59 36.28 53.6 40.44 51.75 43.38 49.8 44 47.85 44.63 46.04 42.83 45.08 39.3 44.12 35.77 44.12 31.02 45.15 26.87" fill="#BC1142"/><path d="M50.72 20.28C50.61 20.28 50.46 20.32 50.35 20.36 49.1 20.76 47.4 23.01 46.41 27.16 45.45 31.1 45.41 35.62 46.33 38.97 46.85 40.88 47.62 42.24 48.47 42.68 48.77 42.87 49.06 42.87 49.39 42.79 50.65 42.39 52.34 40.14 53.34 35.99 54.3 32.05 54.33 27.53 53.41 24.18 52.9 22.27 52.12 20.91 51.27 20.47 51.09 20.36 50.9 20.28 50.72 20.28M49.02 45.4C48.4 45.4 47.81 45.26 47.22 44.92 45.71 44.12 44.53 42.28 43.83 39.59 42.83 35.88 42.83 30.88 43.9 26.5 45.01 21.87 47.14 18.63 49.58 17.86 50.57 17.53 51.61 17.64 52.53 18.15 54.04 18.96 55.22 20.8 55.92 23.48 56.91 27.2 56.91 32.2 55.84 36.58 54.74 41.21 52.6 44.45 50.17 45.22 49.8 45.37 49.43 45.4 49.02 45.4" fill="#000000"/><path d="M43.79 49.23C47.03 49.08 50.09 44.52 49.84 37.97 49.54 31.32 46.63 27.2 43.27 27.35 39.48 27.53 35.79 33.82 36.12 38.71 36.27 44.26 41.14 49.34 43.79 49.23" fill="#BC1142"/><path d="M43.46 28.63L43.35 28.63C42.43 28.67 41.39 29.29 40.4 30.4 38.45 32.57 37.23 35.95 37.41 38.64L37.41 38.67C37.49 41.95 39.48 44.92 41.14 46.47 42.32 47.57 43.27 47.94 43.75 47.9 46.81 47.76 48.77 42.57 48.58 37.97 48.4 34.22 47.29 31.06 45.63 29.52 44.93 28.93 44.2 28.63 43.46 28.63M43.68 50.51C42.39 50.51 40.84 49.74 39.37 48.38 37.27 46.43 34.94 42.86 34.83 38.78 34.61 35.4 36.09 31.35 38.48 28.67 39.96 27.05 41.58 26.13 43.24 26.06 44.71 25.98 46.11 26.54 47.33 27.64 49.54 29.66 50.94 33.41 51.13 37.9 51.42 45.55 47.66 50.33 43.83 50.48 43.79 50.51 43.75 50.51 43.68 50.51" fill="#000000"/><path d="M33.88 42.94C35.83 40.25 38.11 39.33 39.92 40.47 41.73 41.65 42.76 44.7 42.61 48.57 42.46 52.39 41.21 56.44 39.26 59.08 37.3 61.77 35.02 62.69 33.21 61.55 31.41 60.37 30.37 57.32 30.52 53.46 30.67 49.63 31.96 45.62 33.88 42.94" fill="#BC1142"/><path d="M38.26 41.28C37.08 41.28 35.83 42.42 34.91 43.67 33.1 46.14 31.92 49.93 31.81 53.49 31.7 56.8 32.51 59.56 33.91 60.44 35.31 61.33 37.05 59.93 38.19 58.31 39.99 55.85 41.17 52.06 41.28 48.49 41.39 45.18 40.58 42.42 39.18 41.54 38.92 41.36 38.59 41.28 38.26 41.28M34.87 63.35C34.06 63.35 33.25 63.13 32.51 62.65 30.3 61.22 29.08 57.8 29.23 53.46 29.38 49.37 30.74 45.07 32.84 42.2 35.2 38.93 38.19 37.86 40.62 39.44 42.83 40.88 44.05 44.3 43.9 48.64 43.75 52.72 42.39 57.02 40.29 59.89 38.67 62.14 36.71 63.35 34.87 63.35" fill="#000000"/><path d="M33.17 26.5C34.13 22.53 35.9 19.7 37.82 19.11 39.74 18.52 41.47 20.25 42.39 23.63 43.31 27.01 43.27 31.54 42.32 35.55 41.36 39.52 39.59 42.35 37.67 42.94 35.75 43.53 34.02 41.8 33.1 38.41 32.18 35.03 32.18 30.51 33.17 26.5" fill="#BC1142"/><path d="M34.43 26.83C33.51 30.58 33.47 34.92 34.35 38.08 34.83 39.89 35.61 41.17 36.42 41.61 36.71 41.76 37.01 41.8 37.3 41.69 38.48 41.32 40.1 39.19 41.06 35.22 41.98 31.46 42.02 27.12 41.14 23.96 40.66 22.16 39.88 20.87 39.07 20.43 38.78 20.28 38.48 20.25 38.19 20.36 37.01 20.73 35.39 22.86 34.43 26.83M36.93 44.34C36.31 44.34 35.72 44.19 35.16 43.86 33.69 43.05 32.55 41.28 31.85 38.75 30.85 35.18 30.89 30.36 31.92 26.2 33.03 21.72 35.05 18.63 37.41 17.89 38.41 17.6 39.4 17.67 40.33 18.19 41.8 19 42.94 20.76 43.64 23.3 44.64 26.87 44.6 31.69 43.57 35.84 42.46 40.33 40.44 43.42 38.08 44.15 37.67 44.26 37.3 44.34 36.93 44.34" fill="#000000"/><path d="M24.92 40C24.81 46.43 28.49 52.61 30.63 52.65 33.25 52.65 35.9 47.53 35.98 39.96 36.01 32.2 33.84 27.27 31.15 27.23 28.12 27.2 24.88 34.3 24.92 40" fill="#BC1142"/><path d="M31.15 28.52C30.82 28.52 30.34 28.78 29.86 29.26 27.79 31.32 26.17 36.1 26.21 40 26.1 46.14 29.56 51.18 30.67 51.32 32.03 51.32 34.65 47.43 34.72 39.92 34.76 32.53 32.7 28.52 31.15 28.52M30.67 53.93L30.67 53.93C29.78 53.93 28.86 53.46 27.98 52.54 25.73 50.26 23.55 45.22 23.63 40 23.59 35.44 25.54 29.96 28.05 27.46 29.05 26.46 30.12 25.95 31.18 25.95 34.87 25.98 37.34 31.61 37.3 39.96 37.23 47.94 34.39 53.93 30.67 53.93" fill="#000000"/><path d="M1.33 50.74C1.4 46.39 17.25 41.28 23.44 31.28 25.51 27.93 24.11 35.8 26.21 44.08 28.31 52.35 23.96 64.2 20.09 64.12 6.93 63.9 1.25 55.08 1.33 50.74" fill="#FFFFFF"/><path d="M2.62 50.77C2.54 54.23 7.52 62.61 20.13 62.83 20.57 62.83 21.2 62.39 21.82 61.58 24.51 58.2 26.43 50.11 24.99 44.41 24 40.51 23.74 36.65 23.59 34.11 23.59 33.89 23.55 33.67 23.55 33.45 19.94 38.38 14.27 42.02 9.62 45 6.3 47.09 2.62 49.48 2.62 50.77M20.13 65.41L20.05 65.41C5.9 65.15-0.07 55.55 0 50.7 0.04 48.05 3.43 45.84 8.15 42.83 13.01 39.7 19.09 35.77 22.3 30.58 22.6 30.07 23.33 28.93 24.51 29.22 25.8 29.55 25.91 30.84 26.1 33.93 26.25 36.54 26.47 40.11 27.42 43.75 29.16 50.48 26.95 59.19 23.78 63.17 22.63 64.67 21.42 65.41 20.13 65.41" fill="#000000"/><path d="M5.23 47.09C5.23 47.09 8.81 51.69 4.57 57.02L1.14 51.69 5.23 47.09Z" fill="#000000"/><path d="M18.25 43.78C19.16 43.78 19.91 44.53 19.91 45.44 19.91 46.35 19.16 47.09 18.25 47.09 17.33 47.09 16.59 46.35 16.59 45.44 16.59 44.53 17.33 43.78 18.25 43.78" fill="#000000"/><g transform="translate(106.000000, 12.000000)" fill="#232323"><path d="M171.43 6.89C171.43 9.84 172.63 11.31 174.31 11.31 176.37 8.31 177.18 6.33 177.18 5.11 177.18 3.54 175.25 1.31 173.53 1.31 172.16 1.31 171.43 2.78 171.43 6.89L171.43 6.89 171.43 6.89ZM165.89 26.18C164.82 29.33 164.35 31.41 164.35 33.64 164.35 36.43 165.2 37.75 167.74 37.75 171.69 37.75 178.51 29.17 178.51 25.98 178.51 24.96 177.66 24.15 176.84 24.15 173.96 28.97 172.03 30.59 171.43 30.59 171.04 30.59 170.83 30.39 170.83 29.83 170.83 28.67 171.39 27.04 172.59 23.54 173.36 21.41 174.09 19.28 174.09 17.96 174.09 15.98 173.92 14.71 171.95 14.71 169.28 14.71 165.46 20.04 165.46 23.03 165.46 24.05 165.55 25.21 165.89 26.18L165.89 26.18 165.89 26.18Z"/><path d="M52.57 29.69C54.34 26.38 55.15 22.64 55.15 20.47 55.15 17.93 53.59 15.51 50.55 15.51 49.51 15.51 48.61 15.79 47.92 16.19 47.85 15.16 47.09 14.39 45.95 14.39 40.59 14.39 33.39 22.52 33.39 29.84 33.39 35.32 36.12 37.99 41.14 37.99 44.7 37.99 47.62 36.44 49.56 34.15 50.24 34.61 51.04 34.85 51.9 34.85 59.57 34.85 60.12 28.16 60.12 26.16 60.12 25.48 59.99 24.85 59.38 24.85 57.22 28.1 54.48 29.89 53.18 29.89 52.9 29.89 52.7 29.82 52.57 29.69L52.57 29.69ZM44.48 20.25C44.07 21.67 43.85 23.2 43.85 24.97 43.85 27.76 44.58 29.89 45.76 31.43 45.09 32.5 43.99 33.01 42.9 33.01 41.08 33.01 40.13 31.16 40.13 28.43 40.13 23.61 44.74 19.37 44.48 20.25L44.48 20.25 44.48 20.25ZM50.07 28.28C49.7 27.1 49.56 25.7 49.56 24.28 49.56 22.7 49.75 21.12 49.93 19.82 51.03 19.97 51.24 20.79 51.24 22.15 51.24 23.09 50.85 26.22 50.07 28.28L50.07 28.28 50.07 28.28 50.07 28.28Z"/><path d="M111.54 25.27C108.91 29.01 105.41 31.49 102.82 31.49 100.9 31.49 100.16 30.4 100.16 27.67 100.16 22.65 101.89 19.47 102.82 19.47 103.12 19.47 103.47 19.82 103.47 20.52 103.47 21.16 103.32 22.3 102.97 23.64 103.37 24.24 104.01 24.59 105.1 24.59 107.47 24.59 109.69 22.06 109.69 18.88 109.69 15.85 108.01 14.06 104.65 14.06 99.89 14.06 94.49 20.18 93.47 26.99 90.77 30.12 88.22 31.69 86.58 31.69 85.54 31.69 85.24 31.14 85.24 29.95 85.24 29.2 85.64 26.42 86.97 20.96 88.4 21.21 89.44 21.26 90.58 21.26 92.21 21.26 93.44 19.82 93.44 17.94 93.44 17.19 93.1 16.3 92.5 15.85 91.86 16 89.79 16.15 88.26 16.2 90.87 10.94 91.47 9.74 91.47 8.2 91.47 6.07 82.76 8.19 82.32 12.55 82.12 14.39 81.44 15.4 81.39 16.45 79.37 16.5 78.28 17.89 78.28 19.42 78.28 20.52 79.12 20.62 80.11 20.72 78.23 27.02 77.74 30.05 77.74 31.49 77.74 36.06 80.31 38.04 84.11 38.04 87.23 38.04 90.92 35.36 93.6 32.46 94.34 35.81 96.44 37.64 100.21 37.64 103.43 37.64 107.19 35.29 109.96 32.58 109.91 32.96 109.89 33.29 109.89 33.57 109.89 36.55 110.58 38.24 113.49 38.24 115.71 38.24 118.73 36.16 121.1 31.64 120.9 32.68 120.8 33.52 120.8 34.22 120.8 36.8 122.03 37.45 124.06 37.45 126.13 37.45 128.75 35.86 131.07 33.77 133.94 31.24 136.41 28.01 136.41 26.23 136.41 25.33 135.42 24.69 134.38 24.69 131.22 29.16 128.85 31.14 127.71 31.14 127.32 31.14 127.02 30.99 127.02 30.35 127.02 29.4 129.1 24.79 130.13 21.96 130.87 19.97 131.07 18.98 131.07 18.08 131.07 16.05 129.05 14.06 126.28 14.06 125.54 14.06 124.7 14.36 124.21 15.01 123.96 19.28 123.27 22.75 121.59 28.11 120.6 29.16 119.02 30.35 118.18 30.35 117.49 30.35 117.2 29.85 117.2 29.06 117.2 28.26 117.49 26.77 117.99 24.98 120.5 20.86 121.79 17.89 121.79 16.3 121.79 14.81 120.95 14.31 119.42 14.31 115.96 14.31 111.22 19.87 111.22 22.95 111.22 23.7 111.28 24.48 111.54 25.27L111.54 25.27Z"/><path d="M17.51 3.21C10.73 4.22 6.02 7.82 6.02 11.12 6.02 12.9 7.24 13.81 8.35 13.81 9.77 12.49 12.65 11.17 15.54 10.67 14.27 15.95 12.45 24.27 10.83 30.21 9.51 34.98 8.25 37.41 6.63 37.41 5.67 37.41 4.61 36.7 3.54 35.54 1.72 35.64 0 37.52 0 39.55 0 42.59 2.18 44.62 5.67 44.62 11.23 44.62 15.38 40.66 17.86 33.61 26.01 33.25 35.68 25.03 35.68 14.73 35.68 8.64 32.44 3.66 23.38 3 23.38 0.67 23.28 0.26 21.86 0.26 20.24 0.26 17.92 1.53 17.51 3.21L17.51 3.21 17.51 3.21 17.51 3.21 17.51 3.21 17.51 3.21 17.51 3.21ZM27.73 16.96C27.73 22.44 24.54 27.37 20.14 27.37 19.99 27.37 19.69 27.37 19.43 27.31 20.55 21.58 21.46 14.98 21.96 10.72 26.57 11.58 27.73 14.12 27.73 16.96L27.73 16.96 27.73 16.96 27.73 16.96 27.73 16.96 27.73 16.96 27.73 16.96 27.73 16.96 27.73 16.96 27.73 16.96Z"/><path d="M152.3 0.26C150.68 0.26 148.35 1.53 147.94 3.21 141.16 4.22 136.45 7.82 136.45 11.12 136.45 12.9 137.67 13.81 138.78 13.81 140.2 12.49 143.08 11.17 145.97 10.67 144.7 15.95 142.88 24.27 141.26 30.21 139.95 34.98 138.68 37.41 137.06 37.41 136.1 37.41 135.04 36.7 133.98 35.54 132.15 35.64 130.43 37.52 130.43 39.55 130.43 42.59 132.61 44.62 136.1 44.62 141.67 44.62 145.82 40.66 148.3 33.61 156.45 33.25 166.11 25.03 166.11 14.73 166.11 8.64 162.87 3.66 153.81 3 153.81 0.67 153.71 0.26 152.3 0.26L152.3 0.26 152.3 0.26 152.3 0.26 152.3 0.26 152.3 0.26 152.3 0.26 152.3 0.26 152.3 0.26 152.3 0.26 152.3 0.26 152.3 0.26 152.3 0.26 152.3 0.26 152.3 0.26 152.3 0.26 152.3 0.26ZM158.17 16.96C158.17 22.44 154.98 27.37 150.57 27.37 150.42 27.37 150.12 27.37 149.87 27.31 150.98 21.58 151.89 14.98 152.4 10.72 157 11.58 158.17 14.12 158.17 16.96L158.17 16.96 158.17 16.96 158.17 16.96 158.17 16.96 158.17 16.96 158.17 16.96 158.17 16.96 158.17 16.96 158.17 16.96 158.17 16.96 158.17 16.96 158.17 16.96 158.17 16.96 158.17 16.96 158.17 16.96 158.17 16.96Z"/><path d="M64.17 29.72C63.93 29.71 63.61 29.71 63.12 29.75L63.12 29.75C63.17 31.86 62.07 34.51 61.75 35.35 59.66 39.2 56.92 38.45 55.69 37.41 54.77 36.64 55.77 35.54 56.92 33.55 57.89 31.86 56.69 33.98 58.27 29.94 58.72 28.79 58.27 27.25 58.27 27.25 58.27 27.25 60.51 23.48 59.83 19.43 56.77 19.75 56.63 14.39 64.48 14.39 64.49 14.39 64.5 14.4 64.5 14.43 65.4 14.34 66.29 14.4 66.78 14.58 72.3 14.88 75.21 18.28 75.21 21.07 75.21 24.01 72.94 26.57 70.03 28.13 70.04 29.27 70.61 31.29 72.35 31.29 73.93 31.29 77.75 29.39 80.37 24.85 81.1 24.85 81.91 25.52 81.91 26.46 81.91 29.25 76.02 37.72 71.59 37.72 68.65 37.72 64.27 34.01 64.17 29.72L64.17 29.72ZM69.43 20.97C69.43 23.48 67.49 25.73 64.81 25.73 64.71 25.73 64.53 25.73 64.37 25.71 65.05 23.08 65.61 20.06 65.92 18.11 68.72 18.5 69.43 19.67 69.43 20.97L69.43 20.97 69.43 20.97 69.43 20.97 69.43 20.97 69.43 20.97Z"/></g><path d="M1.78 80.6C0.38 79.71 0.59 79 2.24 79L26.26 79C27.92 79 28.12 79.72 26.71 80.6 26.71 80.6 22.58 83.19 19.24 85.28L15.09 87.88C14.63 88.17 13.88 88.18 13.4 87.88L1.78 80.6Z" stroke="#BC1142" stroke-width="2"/><path d="M40.78 80.6C39.38 79.71 39.59 79 41.24 79L65.26 79C66.92 79 67.12 79.72 65.71 80.6 65.71 80.6 61.58 83.19 58.24 85.28L54.09 87.88C53.63 88.17 52.88 88.18 52.4 87.88L40.78 80.6Z" stroke="#BC1142" stroke-width="2" fill="#BC1142"/><g transform="translate(115.500000, 79.000000)" fill="#BC1142"><path d="M15.85 0C10.6 0 6.34 4.26 6.34 9.51 6.34 11.12 6.74 12.63 7.45 13.96L0.83 20.57 0.84 20.57C0.32 21.08 0 21.78 0 22.57 0 24.11 1.25 25.36 2.8 25.36 3.58 25.36 4.28 25.04 4.79 24.52L4.79 24.52 11.4 17.91C12.73 18.62 14.24 19.02 15.85 19.02 21.1 19.02 25.36 14.76 25.36 9.51 25.36 4.26 21.1 0 15.85 0L15.85 0ZM3.8 23.53C3.55 23.8 3.19 23.96 2.8 23.96 2.02 23.96 1.4 23.34 1.4 22.56 1.4 22.17 1.56 21.82 1.83 21.56L1.82 21.55 8.21 15.16C8.77 15.92 9.44 16.58 10.19 17.14L3.8 23.53 3.8 23.53ZM15.85 17.44C11.47 17.44 7.93 13.89 7.93 9.51 7.93 5.13 11.47 1.59 15.85 1.59 20.23 1.59 23.78 5.13 23.78 9.51 23.78 13.89 20.23 17.44 15.85 17.44L15.85 17.44Z"/><path d="M15.55 4C12.48 4 10 6.48 10 9.55 10 9.77 10.18 9.94 10.4 9.94 10.62 9.94 10.79 9.77 10.79 9.55 10.79 6.92 12.92 4.79 15.55 4.79 15.77 4.79 15.94 4.62 15.94 4.4 15.94 4.18 15.77 4 15.55 4L15.55 4Z"/></g><g transform="translate(218.000000, 111.000000)" fill="#C4C4C4"><path d="M31.39 9.88L26.39 1.88C25.66 0.71 24.38 0 23 0L4 0C1.79 0 0 1.79 0 4L0 20C0 22.21 1.79 24 4 24L23 24C24.38 24 25.66 23.29 26.39 22.12L31.39 14.12C32.2 12.83 32.2 11.18 31.39 9.88L31.39 9.88ZM29.7 13.06L24.7 21.06C24.33 21.65 23.69 22 23 22L4 22C2.9 22 2 21.11 2 20L2 4C2 2.9 2.9 2 4 2L23 2C23.69 2 24.33 2.36 24.7 2.94L29.7 10.94C30.1 11.59 30.1 12.42 29.7 13.06L29.7 13.06Z"/><path d="M23 9C21.34 9 20 10.35 20 12 20 13.66 21.34 15 23 15 24.66 15 26 13.66 26 12 26 10.35 24.66 9 23 9L23 9ZM23 14C21.9 14 21 13.11 21 12 21 10.9 21.9 10 23 10 24.1 10 25 10.9 25 12 25 13.11 24.1 14 23 14L23 14Z"/></g><g transform="translate(260.000000, 111.000000)"><path d="M31.39 9.88L26.39 1.88C25.66 0.71 24.38 0 23 0L4 0C1.79 0 0 1.79 0 4L0 20C0 22.21 1.79 24 4 24L23 24C24.38 24 25.66 23.29 26.39 22.12L31.39 14.12C32.2 12.83 32.2 11.18 31.39 9.88Z" fill="#FFFFFF"/><path d="M23 9C21.34 9 20 10.35 20 12 20 13.66 21.34 15 23 15 24.66 15 26 13.66 26 12 26 10.35 24.66 9 23 9ZM23 14C21.9 14 21 13.11 21 12 21 10.9 21.9 10 23 10 24.1 10 25 10.9 25 12 25 13.11 24.1 14 23 14Z" fill="#BC1142"/></g><g transform="translate(151.994407, 79.000000)" fill="#FFFFFF"><path d="M62.6 14.67L59.63 14.67 60.18 15.22 60.18 4.87 59.63 5.42 62.6 5.42 62.05 4.87 62.05 15.22 62.6 14.67 62.6 14.67ZM62.6 15.77C62.9 15.77 63.15 15.52 63.15 15.22L63.15 4.87C63.15 4.56 62.9 4.32 62.6 4.32L59.63 4.32C59.33 4.32 59.08 4.56 59.08 4.87L59.08 15.22C59.08 15.52 59.33 15.77 59.63 15.77L62.6 15.77 62.6 15.77ZM61.2 3.17C60.53 3.17 60.1 2.74 60.1 2.14 60.1 1.52 60.54 1.1 61.24 1.1 61.93 1.1 62.34 1.51 62.36 2.15 62.36 2.74 61.92 3.17 61.2 3.17L61.2 3.17ZM61.2 4.27C62.52 4.27 63.46 3.36 63.46 2.14 63.43 0.89 62.53 0 61.24 0 59.94 0 59 0.91 59 2.14 59 3.35 59.92 4.27 61.2 4.27L61.2 4.27ZM72.09 15.27L72.09 9.52C72.09 7.89 71.18 6.76 69.73 6.76 68.69 6.76 67.72 7.44 67.38 8.29 67.27 8.56 67.24 8.88 67.24 9.29L67.24 15.27 67.79 14.72 64.83 14.72 65.38 15.27 65.38 8.22C65.38 8.05 65.38 7.91 65.38 7.62 65.38 6.12 65.37 5.55 65.34 4.89L64.81 5.47 67.51 5.42 66.95 4.92 67.09 6.44C67.12 6.72 67.36 6.94 67.64 6.94L67.7 6.94C67.89 6.94 68.07 6.84 68.17 6.68 68.67 5.89 69.61 5.29 70.85 5.29 72.76 5.29 73.9 6.59 73.9 9.14L73.9 15.27 74.45 14.72 71.54 14.72 72.09 15.27 72.09 15.27ZM70.99 15.27C70.99 15.58 71.24 15.82 71.54 15.82L74.45 15.82C74.75 15.82 75 15.58 75 15.27L75 9.14C75 6.01 73.4 4.19 70.85 4.19 69.21 4.19 67.92 5 67.24 6.1L67.7 6.39 67.7 5.84 67.64 5.84 67.64 6.39 68.19 6.34 68.04 4.81C68.01 4.53 67.77 4.31 67.48 4.32L64.78 4.37C64.47 4.37 64.23 4.63 64.24 4.94 64.27 5.58 64.28 6.14 64.28 7.62 64.28 7.91 64.28 8.05 64.28 8.22L64.28 15.27C64.28 15.58 64.52 15.82 64.83 15.82L67.79 15.82C68.09 15.82 68.34 15.58 68.34 15.27L68.34 9.29C68.34 9.01 68.36 8.8 68.4 8.7 68.58 8.26 69.15 7.86 69.73 7.86 70.51 7.86 70.99 8.45 70.99 9.52L70.99 15.27 70.99 15.27Z"/><path d="M16.42 3.5C16.5 3.49 16.64 3.48 16.81 3.45 17.09 3.42 17.37 3.37 17.64 3.3 18.1 3.19 18.47 3.04 18.74 2.84L18.37 2.33 17.76 2.16C17.77 2.12 17.77 2.11 17.77 2.12 17.74 2.18 17.68 2.26 17.59 2.38 17.3 2.74 16.82 3.25 16.09 3.9 15.95 4.03 15.88 4.22 15.89 4.41 15.89 4.42 15.89 4.44 15.89 4.48 15.91 4.93 15.88 5.56 15.76 6.29 15.58 7.4 15.23 8.49 14.69 9.51 13.46 11.79 11.36 13.43 8.17 14.18 8.16 14.18 8.12 14.19 8.05 14.2 7.94 14.22 7.8 14.24 7.65 14.26 6.18 14.44 4.55 14.37 3.04 13.86 2.3 13.61 1.62 13.27 1.01 12.81L0.52 13.94C0.59 13.95 0.71 13.97 0.88 13.99 1.89 14.09 3.02 14.03 4.1 13.68 4.99 13.39 5.77 12.92 6.38 12.24 6.75 11.83 6.46 11.18 5.91 11.19 5.91 11.19 5.91 11.19 5.91 11.19 5.83 11.19 5.68 11.17 5.48 11.13 5.14 11.07 4.81 10.95 4.51 10.77 3.95 10.43 3.52 9.91 3.29 9.15L2.55 9.96C2.61 9.97 2.7 9.99 2.82 10 3.1 10.04 3.39 10.06 3.67 10.04 3.94 10.02 4.2 9.97 4.42 9.87 4.98 9.61 4.89 8.8 4.29 8.67 4.24 8.66 4.12 8.63 3.96 8.57 3.69 8.46 3.43 8.32 3.18 8.13 2.46 7.6 2.05 6.82 2.07 5.7L1.06 6.2C1.17 6.28 1.34 6.38 1.55 6.49 1.91 6.66 2.29 6.78 2.66 6.78 2.76 6.78 2.86 6.78 2.95 6.76 3.49 6.68 3.68 6.01 3.27 5.66 3.24 5.63 3.18 5.57 3.09 5.48 2.94 5.33 2.79 5.14 2.65 4.94 1.95 3.92 1.78 2.83 2.46 1.68L1.43 1.77C1.54 1.9 1.74 2.12 2.03 2.4 2.49 2.85 3.03 3.31 3.62 3.74 5.45 5.07 7.42 5.83 9.45 5.72 9.85 5.7 10.13 5.32 10.03 4.93 9.97 4.69 9.94 4.45 9.94 4.2 9.94 2.58 11.25 1.26 12.87 1.26 13.67 1.26 14.42 1.58 14.97 2.14 15.08 2.26 15.24 2.33 15.41 2.33 16.31 2.34 17.29 2.1 18.21 1.44L17.22 0.97C17.21 0.96 17.21 0.96 17.21 0.95 17.21 0.95 17.2 1.03 17.11 1.18 16.93 1.52 16.57 1.92 15.99 2.37 15.49 2.75 15.8 3.55 16.42 3.5L16.42 3.5ZM16.32 2.24L16.76 3.37C18.03 2.38 18.5 1.52 18.48 0.9 18.48 0.89 18.48 0.89 18.47 0.88 18.44 0.38 17.88 0.12 17.48 0.41 16.8 0.9 16.08 1.08 15.43 1.07L15.42 1.7 15.87 1.25C15.08 0.46 14.01 0 12.87 0 10.55 0 8.67 1.88 8.67 4.2 8.67 4.56 8.72 4.91 8.8 5.25L9.42 5.09 9.38 4.46C7.69 4.55 5.98 3.89 4.36 2.72 3.82 2.33 3.34 1.91 2.91 1.49 2.76 1.35 2.63 1.21 2.52 1.09 2.45 1.02 2.41 0.97 2.39 0.95 2.11 0.62 1.59 0.67 1.37 1.04 0.41 2.67 0.66 4.26 1.61 5.66 1.92 6.1 2.23 6.43 2.45 6.62L2.77 5.51C2.74 5.52 2.71 5.52 2.68 5.52 2.52 5.52 2.32 5.46 2.11 5.35 1.97 5.28 1.86 5.22 1.81 5.18 1.39 4.88 0.81 5.17 0.8 5.68 0.78 7.22 1.39 8.37 2.42 9.14 3.02 9.59 3.61 9.82 4.03 9.91L4.16 9.29 3.9 8.72C3.83 8.75 3.72 8.77 3.58 8.78 3.4 8.79 3.2 8.78 3 8.75 2.91 8.74 2.85 8.73 2.82 8.72 2.35 8.62 1.94 9.07 2.08 9.53 2.41 10.59 3.04 11.36 3.86 11.85 4.3 12.11 4.77 12.28 5.23 12.37 5.52 12.43 5.76 12.45 5.92 12.45 5.92 12.45 5.92 12.45 5.92 12.45L5.44 11.39C4.99 11.9 4.4 12.25 3.71 12.48 2.82 12.77 1.86 12.82 1 12.73 0.87 12.72 0.79 12.7 0.74 12.7 0.09 12.58-0.28 13.42 0.25 13.82 0.97 14.36 1.77 14.77 2.64 15.06 4.36 15.64 6.16 15.72 7.81 15.51 8.1 15.48 8.32 15.44 8.45 15.41 12.01 14.58 14.4 12.7 15.8 10.11 16.42 8.96 16.8 7.73 17.01 6.49 17.14 5.67 17.17 4.97 17.15 4.43 17.15 4.38 17.15 4.35 17.15 4.33L16.94 4.84C18.31 3.6 18.87 2.89 18.98 2.5 19.14 1.92 18.47 1.46 17.99 1.82 17.88 1.91 17.64 2 17.34 2.07 17.12 2.13 16.88 2.17 16.64 2.2 16.49 2.22 16.38 2.23 16.32 2.24L16.32 2.24Z"/><g transform="translate(90.000000, 0.000000)"><path d="M8.58 0.17L7.75 0.17 3.42 0.17 3.01 0.17 2.93 0.57 0.26 12.83 0.13 13.45 0.75 13.45 5.08 13.45 5.48 13.45 5.57 13.05 6.31 9.64 5.82 10.04 8.58 10.04C11.14 10.04 13.42 6.98 13.42 4.09 13.42 1.5 11.5 0.17 8.58 0.17L8.58 0.17ZM8.58 1.19C11.01 1.19 12.42 2.17 12.42 4.09 12.42 6.47 10.52 9.02 8.58 9.02L5.82 9.02 5.42 9.02 5.33 9.42 4.59 12.83 5.08 12.43 0.75 12.43 1.24 13.05 3.9 0.79 3.42 1.19 7.75 1.19 8.58 1.19 8.58 1.19Z"/><path d="M2.11 12.83L1.59 15.21 1.46 15.83 2.08 15.83 6.42 15.83 6.82 15.83 6.9 15.43 7.64 12.03 7.16 12.43 9.92 12.43C12.48 12.43 14.75 9.36 14.75 6.47 14.75 5.14 14.23 4.11 13.27 3.44L12.71 4.28C13.39 4.76 13.75 5.47 13.75 6.47 13.75 8.85 11.85 11.4 9.92 11.4L7.16 11.4 6.76 11.4 6.67 11.8 5.93 15.21 6.42 14.81 2.08 14.81 2.57 15.43 3.09 13.05 2.11 12.83 2.11 12.83Z"/><path d="M6.2 6.64C6.41 6.66 6.8 6.67 7.08 6.67 8.5 6.67 9.42 5.37 9.42 4.09 9.42 3.24 8.74 2.95 7.66 2.89 7.46 2.87 7.29 2.87 6.96 2.87 6.94 2.87 6.94 2.87 6.92 2.87L6.53 2.87 6.43 3.26 5.76 6 5.62 6.58 6.2 6.64 6.2 6.64ZM6.3 5.62L6.25 6.13 6.73 6.25 7.4 3.51 6.92 3.89C6.94 3.89 6.94 3.89 6.96 3.89 7.27 3.89 7.43 3.9 7.61 3.91 8.18 3.94 8.42 4.04 8.42 4.09 8.42 4.86 7.86 5.65 7.08 5.65 6.83 5.65 6.47 5.64 6.3 5.62L6.3 5.62Z"/></g><path d="M43.17 0L40.77 0 40.81 0C40.8 0 40.8 0 40.76 0 40.57-0.01 40.32 0.01 40.03 0.05 39.59 0.12 39.16 0.25 38.75 0.46 37.83 0.94 37.16 1.76 36.85 2.95L36.87 2.9C36.83 3.01 36.78 3.21 36.73 3.5 36.65 4.04 36.6 4.72 36.62 5.57L37.16 5.01 34.54 5.01C34.24 5.01 34 5.25 34 5.55L34 7.63C34 7.93 34.24 8.18 34.54 8.18L37.37 8.18 36.83 7.63 36.83 15.46C36.83 15.76 37.07 16 37.37 16L40.2 16C40.5 16 40.74 15.76 40.74 15.46L40.74 7.64 40.2 8.18 43.03 8.18C43.33 8.18 43.58 7.94 43.58 7.64L43.58 5.55C43.58 5.25 43.33 5.01 43.03 5.01L40.2 5.01 40.74 5.55 40.74 4.3C40.74 3.68 41.16 3.25 42 3.25L43.17 3.25C43.47 3.25 43.72 3.01 43.72 2.71L43.72 0.55C43.72 0.25 43.47 0 43.17 0L43.17 0ZM43.17 1.09L42.63 0.55 42.63 2.71 43.17 2.17 42 2.17C40.56 2.17 39.66 3.08 39.66 4.3L39.66 5.55C39.66 5.86 39.9 6.1 40.2 6.1L43.03 6.1 42.49 5.55 42.49 7.64 43.03 7.1 40.2 7.1C39.9 7.1 39.65 7.34 39.65 7.64L39.65 15.46 40.2 14.91 37.37 14.91 37.92 15.46 37.92 7.63C37.92 7.33 37.67 7.09 37.37 7.09L34.54 7.09 35.09 7.63 35.09 5.55 34.54 6.1 37.16 6.1C37.47 6.1 37.71 5.85 37.71 5.54 37.69 4.76 37.73 4.14 37.81 3.67 37.84 3.44 37.88 3.31 37.89 3.26L37.91 3.22C38.13 2.33 38.6 1.77 39.25 1.43 39.54 1.27 39.87 1.18 40.19 1.13 40.41 1.09 40.59 1.08 40.72 1.09 40.74 1.09 40.74 1.09 40.74 1.09L40.77 1.09 43.17 1.09 43.17 1.09Z"/></g><g transform="translate(277.973855, 88.435716) rotate(49.000000) translate(-277.973855, -88.435716) translate(267.973855, 77.935716)" fill="#FFFFFF"><path d="M19.71 0.1C19.61 0.03 19.49 0 19.38 0 19.25 0 19.13 0.04 19.03 0.11L0.28 12.83C0.09 12.96-0.02 13.19 0 13.43 0.03 13.66 0.18 13.87 0.39 13.95L5.28 15.95 7.58 20.04C7.69 20.24 7.9 20.36 8.12 20.36L8.13 20.36C8.34 20.36 8.55 20.25 8.66 20.06L9.96 17.85 16.02 20.32C16.09 20.35 16.17 20.36 16.25 20.36 16.36 20.36 16.46 20.34 16.56 20.28 16.72 20.19 16.83 20.02 16.87 19.83L19.99 0.74C20.03 0.49 19.92 0.24 19.71 0.1L19.71 0.1ZM1.96 13.22L16.44 3.39 5.91 14.87C5.86 14.83 5.81 14.79 5.75 14.76L1.96 13.22 1.96 13.22ZM6.37 15.31C6.37 15.31 6.37 15.31 6.36 15.31L18.2 2.41 8.11 18.42 6.37 15.31 6.37 15.31ZM15.76 18.84L10.42 16.67C10.3 16.62 10.16 16.6 10.03 16.59L18.25 3.62 15.76 18.84 15.76 18.84Z"/></g><path d="M102.51 78L78.07 78C75.82 78 74 79.79 74 82L74 95C74 97.21 75.82 99 78.07 99L102.51 99C104.76 99 106.58 97.21 106.58 95L106.58 82C106.58 79.79 104.76 78 102.51 78L102.51 78ZM76.04 83.25L83.16 88.5 76.04 93.75 76.04 83.25 76.04 83.25ZM104.55 95C104.55 96.1 103.63 97 102.51 97L78.07 97C76.95 97 76.04 96.1 76.04 95L84.01 89.13 88.46 92.4C89 92.8 89.65 93 90.29 93 90.94 93 91.58 92.8 92.12 92.4L96.57 89.13 104.55 95 104.55 95 104.55 95ZM104.55 93.75L97.42 88.5 104.55 83.25 104.55 93.75 104.55 93.75ZM91.51 91.6C91.16 91.86 90.73 92 90.29 92 89.85 92 89.42 91.86 89.07 91.6L84.86 88.5 84.01 87.88 76.04 82 76.04 82C76.04 80.9 76.95 80 78.07 80L102.51 80C103.63 80 104.55 80.9 104.55 82L91.51 91.6 91.51 91.6Z" fill="#BC1142"/></g></g></svg>