<?xml version="1.0" encoding="UTF-8" standalone="no"?>
<svg width="37px" height="27px" viewBox="0 0 37 27" version="1.1" xmlns="http://www.w3.org/2000/svg" xmlns:xlink="http://www.w3.org/1999/xlink">
    <!-- Generator: Sketch 3.7.2 (28276) - http://www.bohemiancoding.com/sketch -->
    <title>PortcuPI Logo</title>
    <desc>Created with Sketch.</desc>
    <defs>
        <polygon id="path-1" points="0 0.0843602481 36.9747065 0.0843602481 36.9747065 26.7070132 0 26.7070132"></polygon>
    </defs>
    <g id="Page-1" stroke="none" stroke-width="1" fill="none" fill-rule="evenodd">
        <g id="PortcuPI-Logo">
            <path d="M21.2929918,23.1184385 C29.9538334,23.1184385 36.9746215,23.9217685 36.9746215,24.9128954 C36.9746215,25.9035984 29.9538334,26.7069284 21.2929918,26.7069284 C12.6321502,26.7069284 5.61136199,25.9035984 5.61136199,24.9128954 C5.61136199,23.9217685 12.6321502,23.1184385 21.2929918,23.1184385" id="Fill-1" fill="#000000"></path>
            <path d="M8.1576936,25.4007859 C8.64673543,26.1757132 13.9123266,26.2189531 19.408205,26.0036013 C25.7241101,25.7454336 32.3565541,25.1137915 32.4572517,24.7547305 C33.2772784,23.7788648 32.9178262,22.3146422 33.4642275,20.8936595 C34.975116,19.5587327 34.600793,17.9796276 34.600793,16.5298183 C34.600793,15.0083664 33.9681402,14.4195403 32.4572517,13.0846136 C31.9104256,11.6780442 32.4572517,11.3049939 31.637225,10.3287042 C31.4502759,9.65424614 30.1985667,8.29049278 26.8895678,7.90302913 C26.0695411,7.64443741 25.8392538,5.21876234 24.8033859,5.04622656 C21.4943869,2.37637308 17.4227207,4.08477408 16.1569903,5.97927634 L15.6819697,6.22345474 C12.2722732,6.20904143 12.2867192,9.84077131 11.2364052,11.4915191 C11.1212616,11.6492176 10.9487586,11.3622232 10.690004,11.9222227 C10.5315222,12.2520331 9.97025003,11.6636309 9.76885487,11.9222227 C8.94882817,12.1231611 8.01365782,25.9031321 8.1576936,25.4007859" id="Fill-3" fill="#000000"></path>
            <path d="M32.4141259,25.3720441 C33.478886,25.3148148 34.5003078,23.8073522 34.4140563,21.6542583 C34.3133587,19.4579244 33.3492962,18.0945949 32.2416229,18.1374109 C30.9899137,18.1950642 29.7670967,20.2760916 29.8818155,21.8984367 C29.9251537,23.7357096 31.5363149,25.4008707 32.4141259,25.3720441" id="Fill-5" fill="#BC1142"></path>
            <path d="M32.3134283,18.6398843 L32.2700901,18.6398843 C31.9824435,18.6542976 31.6659046,18.8552361 31.3493658,19.1998838 C30.7162882,19.9031684 30.327944,20.9939168 30.3857282,21.8697372 L30.3857282,21.8841505 C30.4141955,22.9460723 31.0472731,23.9079487 31.5796531,24.4102949 C31.9250841,24.7261159 32.2271768,24.869825 32.3707877,24.869825 L32.3852338,24.869825 C33.0616496,24.8409984 33.9823739,23.6781836 33.9105684,21.6687988 C33.8527841,20.4483306 33.493332,19.4148116 32.960952,18.9268787 C32.7451108,18.7403536 32.5292695,18.6398843 32.3134283,18.6398843 M32.3852338,25.8745174 C31.9395301,25.8745174 31.4071501,25.6159257 30.9036622,25.1424062 C30.1983543,24.4819375 29.4216658,23.2907199 29.3783276,21.9269665 C29.3065221,20.7929783 29.795564,19.4292249 30.6015695,18.5250018 C31.1050574,17.9654263 31.6659046,17.6635946 32.2271768,17.6351919 C32.7306647,17.6063653 33.2197065,17.8073038 33.6369429,18.1803541 C34.3851642,18.8552361 34.8457388,20.1185202 34.9175442,21.6255588 C35.0182418,24.2093564 33.7376405,25.8028748 32.443018,25.8745174 L32.3852338,25.8745174" id="Fill-7" fill="#000000"></path>
            <path d="M32.8313623,21.8265397 C34.3133587,21.5107187 37.6368037,18.3529323 35.5072836,16.5296487 C33.9105684,15.151906 34.4858618,10.9601767 33.2052605,11.1899418 C30.9610216,11.5774054 28.5438548,14.1467897 28.5727469,16.5296487 C28.4864954,19.2283288 31.2486683,22.156774 32.8313623,21.8265397" id="Fill-9" fill="#BC1142"></path>
            <path d="M33.2917244,11.6923728 C31.3640244,12.0226071 29.0620012,14.3194102 29.0908933,16.5297335 L29.0908933,16.5441468 L29.0908933,16.5585601 C29.0331091,18.1516547 30.1123152,19.8024024 31.1337371,20.6638096 C31.7379225,21.1661558 32.3276619,21.4247475 32.7304523,21.3386916 C33.5938172,21.1517425 35.3061009,19.7019332 35.6511069,18.3958331 C35.8095888,17.7930176 35.6511069,17.3190741 35.1909573,16.9171972 C34.2413408,16.1134433 33.9821614,14.6348074 33.752299,13.3287072 C33.6371554,12.7403051 33.4786735,11.8500713 33.2917244,11.6923728 M32.5723953,22.3577973 C31.9393177,22.3577973 31.2055425,22.0419763 30.4862134,21.4247475 C29.2489503,20.3768152 28.0261333,18.4674757 28.0834927,16.5297335 C28.0690466,15.295276 28.6447648,13.9171094 29.6661867,12.7691317 C30.6587164,11.6491328 31.9248716,10.8886189 33.1192214,10.6876804 C34.2413408,10.4867419 34.4856493,11.8360819 34.7159366,13.1421821 C34.9173318,14.218941 35.1476191,15.5678571 35.8240349,16.1422699 C36.5862773,16.7883252 36.8454567,17.6493085 36.6007234,18.6255982 C36.1401488,20.4056418 34.082859,22.0563896 32.9178262,22.3001441 L32.8171287,21.8122112 L32.9178262,22.3001441 C32.8171287,22.343384 32.701985,22.3577973 32.5723953,22.3577973" id="Fill-11" fill="#000000"></path>
            <path d="M22.5734231,17.376685 C23.1776086,15.9701156 25.0768414,20.6781805 24.1705632,22.8601011 C23.249414,25.0704244 22.9617673,25.4006587 22.0699352,25.5443679 C19.3651217,25.9894848 18.2718944,20.3479462 18.9912236,18.726025 C19.7390199,16.8599255 22.5734231,17.376685 22.5734231,17.376685" id="Fill-13" fill="#BC1142"></path>
            <path d="M21.6958246,17.8216747 C20.9331573,17.8216747 19.8254839,17.9937866 19.4515857,18.8984336 C19.0199032,19.8887127 19.3938014,22.8599739 20.5303669,24.3097832 C20.9764955,24.884196 21.4510912,25.1135371 21.9979173,25.0274812 C22.5736355,24.927012 22.7605846,24.8981854 23.710201,22.6446221 C24.3288326,21.1664102 23.4365756,18.4533168 22.9041955,17.7356188 L22.7461386,17.8933173 L22.4869591,17.8505013 C22.4725131,17.878904 22.1419531,17.8216747 21.6958246,17.8216747 M21.7820761,26.0610002 C21.0198336,26.0610002 20.3145257,25.6735366 19.7392324,24.927012 C18.4157178,23.2334482 17.9406971,19.8742994 18.5308614,18.5105461 C19.1635141,16.9174515 21.0916391,16.7020997 22.3289022,16.845385 C22.5736355,16.6016305 22.8897495,16.5728039 23.1489289,16.6876864 C24.3288326,17.1756193 25.436506,21.1375835 24.6309253,23.0609124 C23.710201,25.2716596 23.335878,25.8456484 22.1563992,26.0465869 C22.0268094,26.0465869 21.8972197,26.0610002 21.7820761,26.0610002" id="Fill-15" fill="#000000"></path>
            <path d="M27.6376616,14.2043581 C27.004584,15.6974073 24.9617402,10.6875108 25.9113567,8.40512098 C26.8894403,6.06550184 27.2493173,4.65850855 28.0837901,5.0031562 C29.0334065,5.39061985 29.6231459,10.9745052 31.4501484,12.8261915 C30.6590138,14.7643576 27.6376616,14.2043581 27.6376616,14.2043581" id="Fill-17" fill="#BC1142"></path>
            <path d="M27.8390567,5.44823069 C27.6087694,5.51987332 27.177087,6.58221895 26.846527,7.44362611 C26.7024912,7.78784983 26.5444343,8.17573741 26.3715064,8.60601706 C25.7384287,10.1423062 26.6880452,13.1419701 27.2777846,13.8740814 L27.4651585,13.6875562 L27.7239131,13.7307962 C27.7528052,13.7307962 28.4432422,13.8596681 29.2059095,13.7591989 C29.9970441,13.6587296 30.5438702,13.3717352 30.8459629,12.9126289 C29.8963465,11.749814 29.3066071,9.75441863 28.7886731,7.98878831 C28.5010265,7.02733584 28.1267034,5.70639849 27.8679489,5.47705731 L27.8390567,5.44823069 Z M27.3355688,14.979667 C27.2348713,14.979667 27.1197276,14.9508403 27.0334761,14.9220137 C26.1556651,14.5489634 25.5803718,12.553568 25.4796742,12.151691 C25.278279,11.4195797 24.8899348,9.55348015 25.4507821,8.21855341 C25.6232851,7.80226314 25.7817669,7.41479949 25.9113567,7.07015184 C26.48665,5.64916917 26.8176349,4.78776202 27.4507125,4.52959422 C27.6232155,4.4579516 27.9108622,4.40029837 28.2707392,4.54400753 C28.8893707,4.80217533 29.1914635,5.74963841 29.7527356,7.68738059 C30.2562235,9.41019491 30.8748551,11.5344623 31.7955793,12.467512 L32.0258666,12.6972771 L31.8962769,12.9986849 C31.2198611,14.6782592 29.1770174,14.9076004 27.8535028,14.7499019 C27.709467,14.9076004 27.5225179,14.979667 27.3355688,14.979667 L27.3355688,14.979667 Z" id="Fill-19" fill="#000000"></path>
            <path d="M29.2345892,16.6733155 C29.9972565,15.6109699 30.9035347,15.2379195 31.5939717,15.6970258 C32.2988548,16.156556 32.6876239,17.3766002 32.6298397,18.8980521 C32.5724803,20.4199279 32.0689924,22.0130225 31.3063251,23.0753681 C30.5436577,24.1377137 29.6373795,24.5107641 28.9469425,24.0516578 C28.2420595,23.5921276 27.8532904,22.3720834 27.9110746,20.8506315 C27.968434,19.3287557 28.4719219,17.7356612 29.2345892,16.6733155" id="Fill-21" fill="#BC1142"></path>
            <path d="M30.9610216,15.9986455 C30.500447,15.9986455 29.9969591,16.4581757 29.637507,16.9605219 C28.9326239,17.950801 28.4576033,19.4438502 28.4002439,20.8648329 C28.3424596,22.1853463 28.6589985,23.2621052 29.2058245,23.6207423 C29.7382046,23.9653899 30.4286416,23.4053905 30.8892161,22.7737484 C31.5940992,21.7834693 32.068695,20.2904201 32.1264792,18.8694375 C32.1838386,17.548924 31.8672998,16.4721651 31.3208986,16.113528 C31.205755,16.0418854 31.0906113,15.9986455 30.9610216,15.9986455 M29.5797227,24.7403172 C29.2347167,24.7403172 28.9181779,24.639848 28.6589985,24.4677361 C27.7960584,23.9077367 27.3210378,22.5444073 27.3928432,20.8360063 C27.4506275,19.2284984 27.9974536,17.5200974 28.8174803,16.3861091 C29.9395997,14.8358306 31.1190786,14.7930146 31.8672998,15.2809475 C32.7306647,15.8409469 33.2052605,17.2042764 33.133455,18.9126774 C33.0760956,20.5201852 32.5292695,22.2285862 31.7092428,23.3625745 C30.9899137,24.3816802 30.2272464,24.7403172 29.5797227,24.7403172" id="Fill-23" fill="#000000"></path>
            <path d="M29.3640939,10.3430327 C29.7379921,8.7927542 30.428854,7.68759255 31.1766504,7.45782746 C31.9248716,7.22806236 31.7090304,8.10388282 32.0689074,9.43880956 C32.4283595,10.759323 33.3061705,12.3240148 32.9322723,13.8742934 C32.5579492,15.4245719 31.8675122,16.5297335 31.119291,16.7594986 C30.3710697,16.9892637 29.6950788,16.3143817 29.3352018,14.9938683 C28.9613036,13.6733549 28.9757497,11.9077246 29.3640939,10.3430327" id="Fill-25" fill="#BC1142"></path>
            <path d="M29.8532632,10.4722438 C29.4933862,11.9364664 29.4793651,13.6300302 29.8243711,14.8644877 C30.0113202,15.5681963 30.3138378,16.0705425 30.6299517,16.2426543 C30.7450954,16.3003076 30.860239,16.314297 30.9753827,16.271481 C31.4359573,16.1277718 32.0690349,15.2951912 32.4429331,13.7449127 C32.6876664,12.7402203 32.3133433,11.6778747 31.9394452,10.658769 C31.8098554,10.2857186 31.6802657,9.92665767 31.5795682,9.56802064 C31.4644245,9.13731706 31.3926191,8.74985341 31.3497058,8.43403238 C31.3208136,8.2759099 31.2919215,8.08938473 31.2630294,7.96008887 C30.8028797,8.16102735 30.2131402,8.97919458 29.8532632,10.4722438 M30.8317718,17.305 C30.5870384,17.305 30.3567511,17.2473467 30.1409099,17.1184748 C29.5656166,16.8026538 29.1194881,16.1133585 28.8462875,15.1230794 C28.4575183,13.7304994 28.4719644,11.8504105 28.8747547,10.2280654 C29.3064371,8.47684838 30.0979966,7.2712175 31.0187209,6.98422309 C31.3208136,6.88375385 31.5940142,6.91215655 31.8098554,7.0414524 C32.1837536,7.2712175 32.255984,7.71633439 32.3422355,8.2759099 C32.3855737,8.57731762 32.4429331,8.92196527 32.5436306,9.29501561 C32.6298822,9.61083664 32.7594719,9.95548429 32.8746155,10.3145452 C33.2774058,11.4197069 33.7235343,12.682991 33.4069955,13.9746778 C32.9753131,15.7258948 32.1837536,16.9315257 31.2630294,17.218944 C31.1194185,17.2761734 30.9753827,17.305 30.8317718,17.305" id="Fill-27" fill="#000000"></path>
            <path d="M27.6520227,19.3001834 C28.9181779,19.2429541 30.1121028,17.4629105 30.0114052,14.9079396 C29.8962615,12.3097287 28.759696,10.7017969 27.4506275,10.7594502 C25.9686311,10.8310928 24.5299728,13.2855945 24.6595625,15.194934 C24.7169219,17.3624412 26.6161547,19.3434234 27.6520227,19.3001834" id="Fill-29" fill="#BC1142"></path>
            <path d="M27.5225604,11.2617116 L27.4792222,11.2617116 C27.1197701,11.2761249 26.7169798,11.5198794 26.3286355,11.950583 C25.5659682,12.7975768 25.0909476,14.1180902 25.1631779,15.1660226 L25.1631779,15.1804359 C25.19207,16.4581333 25.9687585,17.6205243 26.6162822,18.2237636 C27.0764319,18.6540433 27.450755,18.7977524 27.6377041,18.7833391 C28.8316289,18.7261098 29.5942963,16.7018878 29.5224908,14.9078548 C29.4502605,13.4436322 29.0190029,12.2091747 28.3714792,11.6063592 C28.0978538,11.3765941 27.8102071,11.2617116 27.5225604,11.2617116 M27.623258,19.8024448 C27.1197701,19.8024448 26.5155846,19.5010371 25.9398664,18.9698643 C25.1198397,18.2093503 24.2135615,16.8167703 24.1702233,15.2236758 C24.0839718,13.9027384 24.65969,12.3240572 25.5948603,11.2761249 C26.1701537,10.6444828 26.8032313,10.2854219 27.450755,10.2570192 C28.0260483,10.2281926 28.5728744,10.4435444 29.0474702,10.8742479 C29.9108351,11.6635885 30.4576612,13.1278111 30.5294666,14.8790282 C30.6446103,17.8647027 29.1770599,19.7308022 27.6806174,19.7880315 C27.6665962,19.8024448 27.6377041,19.8024448 27.623258,19.8024448" id="Fill-31" fill="#000000"></path>
            <path d="M17.1495626,17.376685 C17.753748,15.9701156 19.6529809,20.6781805 18.7467026,22.8601011 C17.8255535,25.0704244 17.5379068,25.4006587 16.6460747,25.5443679 C13.9412612,25.9894848 12.8480339,20.3479462 13.567363,18.726025 C14.3296054,16.8599255 17.1495626,17.376685 17.1495626,17.376685" id="Fill-33" fill="#BC1142"></path>
            <path d="M16.2863251,17.8216747 C15.5236578,17.8216747 14.4159844,17.9937866 14.0420862,18.8984336 C13.6104038,19.8887127 13.984302,22.8599739 15.1208675,24.3097832 C15.566996,24.884196 16.0415918,25.1135371 16.5884179,25.0274812 C17.1641361,24.927012 17.3510852,24.8981854 18.3007016,22.6446221 C18.9048871,21.1948129 18.0559682,18.5249594 17.5235882,17.7644454 L17.4517828,17.9221439 L17.0774597,17.8505013 C17.0630136,17.8649146 16.7324536,17.8216747 16.2863251,17.8216747 M16.3581306,26.0610002 C15.5958881,26.0610002 14.8905802,25.6735366 14.3152868,24.927012 C12.9917722,23.2334482 12.5167516,19.8742994 13.1069159,18.5105461 C13.7399935,16.9174515 15.6676936,16.7020997 16.9049567,16.845385 C17.14969,16.6016305 17.4662288,16.5728039 17.7249834,16.6876864 C18.9048871,17.1756193 20.0125604,21.1375835 19.2069798,23.0609124 C18.2862555,25.2716596 17.9119325,25.8456484 16.7324536,26.0465869 C16.61731,26.0465869 16.4877203,26.0610002 16.3581306,26.0610002" id="Fill-35" fill="#000000"></path>
            <path d="M26.8751217,25.5155837 C27.9398818,25.4583544 28.9613036,23.9508918 28.8750521,21.7977979 C28.7743545,19.601464 27.8102921,18.2381345 26.7026187,18.2809505 C25.4509095,18.3386038 24.2280925,20.4196312 24.3428113,22.0419763 C24.3861495,23.8792492 25.9973107,25.5588236 26.8751217,25.5155837" id="Fill-37" fill="#BC1142"></path>
            <path d="M26.7600206,18.7834239 L26.7166824,18.7834239 C26.4290357,18.7978372 26.1124969,18.9987757 25.7959581,19.3434234 C25.1628805,20.046708 24.7745362,21.1374564 24.8323205,22.0132768 L24.8323205,22.0276901 C24.8607877,23.0896119 25.4938653,24.0514882 26.0262454,24.5538345 C26.3716763,24.8840688 26.6882151,25.0133646 26.831826,25.0133646 C27.5082418,24.984538 28.4289661,23.8217232 28.3571606,21.8123383 C28.2993764,20.5918702 27.9399243,19.5587751 27.4075442,19.0704183 C27.2061491,18.8838932 26.9903078,18.7834239 26.7600206,18.7834239 M26.8462721,26.018057 C26.4001436,26.018057 25.8681884,25.7594653 25.3642756,25.2859457 C24.6593926,24.6254771 23.8827041,23.4342595 23.8393659,22.0705061 C23.7675604,20.9365179 24.2566023,19.5727645 25.0621829,18.6685414 C25.5660957,18.1089659 26.1269429,17.8071342 26.6882151,17.7787315 C27.191703,17.7499049 27.6807448,17.9508434 28.0979812,18.3238937 C28.8462025,18.9987757 29.3063522,20.2620598 29.3785825,21.7690984 C29.4792801,24.352896 28.1986788,25.9464144 26.9040563,26.018057 L26.8462721,26.018057" id="Fill-39" fill="#000000"></path>
            <path d="M24.9041259,10.8741632 C25.7819369,10.8309232 26.4434818,7.85966203 26.3283381,5.17539524 C26.1987484,2.43389914 26.7600206,2.40507252 25.8392963,2.44831245 C24.8034283,2.49112845 22.6021028,4.48652387 22.7316925,6.51032198 C22.8034979,8.7782985 24.1703507,10.9029898 24.9041259,10.8741632" id="Fill-41" fill="#BC1142"></path>
            <path d="M25.8536574,2.95057386 C25.5371186,2.96498717 24.8751488,3.33803751 24.2709633,4.0129195 C23.5516342,4.80226011 23.177736,5.69206996 23.2206494,6.4818345 C23.2928797,8.57727523 24.4579124,10.228023 24.8611276,10.3717322 C25.278364,10.1275538 25.9254628,7.88840386 25.8103192,5.20413707 C25.7529598,4.12780205 25.8103192,3.45292006 25.8392113,3.0510431 C25.8536574,3.00780318 25.8536574,2.97940048 25.8536574,2.95057386 M24.8895949,11.3764246 C24.6019482,11.3764246 24.2998555,11.2331393 23.9833167,10.9461449 C23.177736,10.1996203 22.285479,8.40516337 22.2281196,6.51066111 C22.1707602,5.4771421 22.645356,4.31432722 23.5371882,3.32362421 C24.2854094,2.49104367 25.1632204,1.96029477 25.8247652,1.93146815 C26.1846422,1.91705484 26.4578428,1.90264153 26.6881301,2.13240663 C26.9184174,2.37658504 26.8895253,2.66357945 26.8606332,3.10827242 C26.8321659,3.5105733 26.7888277,4.12780205 26.8321659,5.14690776 C26.9184174,7.07023663 26.5585404,11.2903686 24.9329331,11.3624352 C24.918487,11.3764246 24.904041,11.3764246 24.8895949,11.3764246" id="Fill-43" fill="#000000"></path>
            <path d="M26.1989608,15.797707 C26.9038439,16.2572372 27.3066342,17.4484548 27.2492748,18.9554934 C27.1914906,20.4485426 26.7024487,22.0276477 25.9402063,23.0611668 C25.177539,24.1086752 24.2852819,24.4677361 23.5803989,24.0226192 C22.8755158,23.563513 22.4727255,22.3718715 22.5300849,20.8648329 C22.5878692,19.3717837 23.076911,17.7931024 23.8395783,16.7595834 C24.6018207,15.7260644 25.4940778,15.3525901 26.1989608,15.797707" id="Fill-45" fill="#BC1142"></path>
            <path d="M25.5659257,16.1134857 C25.1053511,16.1134857 24.6163093,16.5586025 24.2568572,17.0465354 C23.5515492,18.0084118 23.0913995,19.4866238 23.0480613,20.8792038 C23.005148,22.1708906 23.3216868,23.2476495 23.868088,23.5922972 C24.4149141,23.9365209 25.09133,23.3909348 25.5370336,22.7597167 C26.2419166,21.7978403 26.7024912,20.3192044 26.7458294,18.9270483 C26.7887427,17.6349376 26.4722039,16.5586025 25.9258027,16.2139549 C25.8106591,16.1423123 25.6810694,16.1134857 25.5659257,16.1134857 M24.2279651,24.7262855 C23.9114262,24.7262855 23.5948874,24.6398056 23.3072408,24.4532804 C22.4438759,23.8937049 21.9692801,22.5587782 22.0266395,20.8647905 C22.0844238,19.271272 22.6168038,17.5921216 23.4368305,16.4725466 C24.3575548,15.1948492 25.5225875,14.7785589 26.4722039,15.3957877 C27.3355688,15.9557871 27.8101646,17.2907138 27.7528052,18.9842776 C27.6950209,20.5777961 27.1630658,22.2569465 26.3426142,23.3769454 C25.7099615,24.2523419 24.9472942,24.7262855 24.2279651,24.7262855" id="Fill-47" fill="#000000"></path>
            <path d="M23.076996,10.759323 C23.4508942,8.99369268 24.141756,7.74482187 24.8895524,7.47224077 C25.6377737,7.21364905 26.3141895,7.97458697 26.6736416,9.48162557 C27.0335186,10.9890881 27.0190725,12.9984729 26.6451743,14.7641032 C26.2708513,16.5297335 25.5804143,17.7786043 24.832193,18.0511854 C24.0839718,18.3241905 23.4079808,17.5488392 23.0481038,16.0418006 C22.6886517,14.5343381 22.7030978,12.5249533 23.076996,10.759323" id="Fill-49" fill="#BC1142"></path>
            <path d="M23.5805264,10.8597922 C23.2206494,12.5537799 23.2066282,14.4915221 23.5516342,15.9269181 C23.853727,17.1757889 24.2709633,17.4916099 24.4005531,17.5488392 C24.5012506,17.6064925 24.5730561,17.6064925 24.6737537,17.5776659 C25.1198822,17.4195434 25.7818519,16.4436776 26.1557501,14.663634 C26.5156271,12.9700702 26.5296483,11.0319041 26.1846422,9.59650812 C25.8825495,8.34763731 25.4653131,8.03181628 25.3357234,7.97458697 C25.2350258,7.91735765 25.1632204,7.91735765 25.0625228,7.94576035 C24.6163943,8.10388282 23.9544245,9.07974861 23.5805264,10.8597922 M24.5445888,18.5967716 C24.3287476,18.5967716 24.1129064,18.5395423 23.9115112,18.4246597 C23.3073257,18.0944254 22.8467512,17.3190741 22.5591045,16.1566832 C22.1847814,14.5919913 22.1847814,12.4817134 22.5879966,10.6444404 C23.0192542,8.64904503 23.7963676,7.3285316 24.7170919,6.99829726 C25.09099,6.86942532 25.4653131,6.89782802 25.8103192,7.08477711 C26.4149295,7.41458753 26.8750792,8.18993876 27.1627259,9.35275363 C27.537049,10.9170215 27.537049,13.0272995 27.1342586,14.8645725 C26.7025762,16.8599679 25.9254628,18.1804813 25.0047385,18.5107156 C24.8611276,18.5679449 24.7026458,18.5967716 24.5445888,18.5967716" id="Fill-51" fill="#000000"></path>
            <path d="M21.9979598,10.4722438 C23.1634174,10.3001319 23.3648126,7.65868115 22.9331301,4.71624657 C22.4725556,1.73057206 24.1130338,0.424048021 22.9186841,0.596583804 C21.5662773,0.797522285 18.3150627,3.78319679 18.6889609,5.99352008 C19.0343918,8.49126169 21.0483434,10.615953 21.9979598,10.4722438" id="Fill-53" fill="#BC1142"></path>
            <g id="Group-57">
                <mask id="mask-2" fill="white">
                    <use xlink:href="#path-1"></use>
                </mask>
                <g id="Clip-56"></g>
                <path d="M22.7748607,1.17061502 C22.112891,1.41479343 20.9189661,2.30460328 20.0411552,3.51023416 C19.3796103,4.41488124 19.0775176,5.27586448 19.1926612,5.92191985 L19.1926612,5.93633315 C19.4085024,7.52942769 20.4154782,9.0224769 21.2928643,9.68294558 C21.6382952,9.94111337 21.8685825,9.9843533 21.940388,9.9843533 C22.4438759,9.91228675 22.9618098,8.20430967 22.4583219,4.80234489 C22.1995674,3.13718382 22.5590195,1.95995563 22.7748607,1.25667095 C22.7604147,1.21385495 22.7604147,1.18502833 22.7748607,1.17061502 L22.7748607,1.17061502 Z M21.9114958,10.9746324 C21.5375977,10.9746324 21.1203613,10.8025205 20.6886788,10.4722862 C19.681703,9.71134827 18.458886,8.0177845 18.1997066,6.06562901 C18.0127575,4.88840083 18.6458351,3.69718325 19.2355745,2.90741872 C20.2714424,1.48643605 21.8541365,0.25197855 22.8611123,0.108269384 C23.0195941,0.0798666871 23.4508517,0.0222134523 23.7244772,0.323621173 C23.9976778,0.639442202 23.8825341,1.02690585 23.7389232,1.52967598 C23.5375281,2.18972073 23.2354353,3.19441313 23.4652977,4.64422242 C23.6666929,6.0512157 24.1846269,10.6588114 22.112891,10.9746324 L21.9114958,10.9746324 Z" id="Fill-55" fill="#000000" mask="url(#mask-2)"></path>
            </g>
            <path d="M18.3868256,11.4196221 C19.2357445,11.1754437 18.8903135,8.26183573 18.1709844,5.66362487 C17.4227632,3.02217409 18.2861281,2.74959299 17.4083171,2.9937714 C16.4157874,3.2663525 14.7179497,5.70644088 15.2936679,7.64460698 C15.8689613,9.85493026 17.6819426,11.6205606 18.3868256,11.4196221" id="Fill-58" fill="#BC1142"></path>
            <path d="M17.322193,3.58213114 C17.0056542,3.78306962 16.5884179,4.24259981 16.2289657,4.87381795 C15.7110318,5.80686773 15.5381039,6.76874412 15.7683912,7.51526873 C16.3007712,9.52465353 17.7967888,10.8739936 18.2429173,10.9460601 C18.5161179,10.5869992 18.4732046,8.62043037 17.68207,5.82128104 C17.3795524,4.74494601 17.322193,4.02724802 17.322193,3.58213114 M18.2718095,11.9363392 C18.0415222,11.9363392 17.7827676,11.8646966 17.5091421,11.7065741 C16.5595257,11.1614119 15.2793493,9.61113339 14.7898826,7.78784983 C14.5022359,6.79757074 14.7036311,5.54869993 15.3511548,4.38588506 C15.8979809,3.41001927 16.6317561,2.69232128 17.2648337,2.5197855 C17.5809476,2.43372957 17.8545731,2.36208695 18.0988815,2.56302543 C18.3436149,2.76396391 18.3436149,3.03654501 18.3291688,3.29513672 C18.3147228,3.65377376 18.3007016,4.31424243 18.6457076,5.54869993 C19.0340519,6.94085599 19.2932313,8.34784927 19.3650368,9.41019491 C19.408375,9.95535711 19.5090725,11.6493448 18.5161179,11.9219259 C18.4443125,11.9363392 18.358061,11.9363392 18.2718095,11.9363392" id="Fill-60" fill="#000000"></path>
            <path d="M18.2861281,15.7402657 C18.2143226,18.2524207 20.5018997,20.6636824 21.8254143,20.6780957 C23.4365756,20.6780957 25.091075,18.6827003 25.1344132,15.7258524 C25.1633054,12.696938 23.8108986,10.7736091 22.1419531,10.7591958 C20.2571663,10.7447825 18.2572359,13.5155291 18.2861281,15.7402657" id="Fill-62" fill="#BC1142"></path>
            <path d="M22.1418256,11.2617116 C21.5805535,11.2617116 20.9479007,11.5919459 20.3577364,12.1803481 C19.40812,13.1422245 18.7754673,14.5632071 18.7894885,15.7404353 L18.7894885,15.7544247 L18.7894885,15.768838 C18.7465752,17.161418 19.5377097,18.4819314 20.285931,19.2572826 C20.9479007,19.946154 21.5376401,20.1899085 21.8397329,20.1899085 C23.1632475,20.1899085 24.6019057,18.3958755 24.6452439,15.726022 C24.65969,14.0608609 24.2280075,12.6398783 23.4508942,11.864527 C23.0625499,11.4626501 22.6164214,11.2617116 22.1418256,11.2617116 M21.8397329,21.1806115 L21.8397329,21.1806115 C21.1492959,21.1806115 20.3148231,20.7210813 19.5521558,19.946154 C18.4011442,18.7545125 17.7395994,17.1902446 17.7825127,15.7404353 C17.7680666,14.3050393 18.5018418,12.6254649 19.6528534,11.4770634 C20.443988,10.6877228 21.3217989,10.2570192 22.1562717,10.2570192 C22.9044929,10.2570192 23.5949299,10.5728402 24.1702233,11.146829 C25.1342858,12.1231187 25.6666658,13.7882798 25.6522197,15.726022 C25.6377737,17.204234 25.2205373,18.5824007 24.4867621,19.6015064 C23.767433,20.6061988 22.8037954,21.1806115 21.8397329,21.1806115" id="Fill-64" fill="#000000"></path>
            <path d="M18.545095,16.6446161 C19.3077624,15.5822704 20.2140406,15.2092201 20.9044776,15.6683264 C21.6093606,16.1278566 21.9981298,17.3479008 21.9403455,18.8693527 C21.8829861,20.3912285 21.3794982,21.984323 20.6168309,23.0466687 C19.8541636,24.1090143 18.9478854,24.4820647 18.2574484,24.0229584 C17.5525653,23.5634282 17.1637962,22.343384 17.2215804,20.8219321 C17.2789398,19.3000562 17.7824277,17.7069617 18.545095,16.6446161" id="Fill-66" fill="#BC1142"></path>
            <path d="M20.2715274,15.9699461 C19.8109528,15.9699461 19.3074649,16.4294762 18.9480128,16.9318225 C18.2431298,17.9221015 17.7681091,19.4151508 17.7107497,20.8361334 C17.6529655,22.1566469 17.9695043,23.2334058 18.5163304,23.5920428 C19.0487104,23.9366905 19.7391474,23.376691 20.199722,22.745049 C20.904605,21.7547699 21.3792008,20.2617207 21.4369851,18.840738 C21.4943444,17.5202246 21.1778056,16.4434656 20.6314044,16.0848286 C20.5162608,16.013186 20.4011171,15.9699461 20.2715274,15.9699461 M18.8902286,24.7116178 C18.5452225,24.7116178 18.2286837,24.6111485 17.9695043,24.4390367 C17.1065643,23.8790373 16.6315436,22.5157078 16.7033491,20.8073068 C16.7611333,19.199799 17.3079594,17.491398 18.1279861,16.3574097 C19.2501056,14.8071312 20.4295844,14.7643152 21.1778056,15.2522481 C22.0411705,15.8122475 22.5157663,17.1755769 22.4439608,18.8839779 C22.3866015,20.4914858 21.8397754,22.1998868 21.0197487,23.333875 C20.3004196,24.3385674 19.5377522,24.7116178 18.8902286,24.7116178" id="Fill-68" fill="#000000"></path>
            <path d="M14.5023209,15.0943376 C15.207204,16.7450853 15.7251379,10.8025629 14.68927,8.27599469 C13.6104888,5.69219714 14.7615003,5.10379501 13.5527045,5.60614121 C13.5527045,5.60614121 13.2076984,5.74985037 12.1858517,6.8261854 C10.0856486,9.0369326 8.71879581,12.7975344 9.04978068,13.9315227 C9.89869951,16.1134433 14.5023209,15.0943376 14.5023209,15.0943376" id="Fill-70" fill="#BC1142"></path>
            <path d="M9.51005784,13.7881103 C10.0997973,15.1946796 13.2218471,14.8648692 14.3873047,14.6062775 L14.5886999,14.5630376 C14.8189872,13.3574067 14.9196848,10.185207 14.2148017,8.4628166 C13.7686732,7.37164435 13.6824217,6.62511974 13.6679756,6.12277354 C13.5094938,6.23765609 13.1644877,6.5246505 12.5458562,7.17070587 C10.4885664,9.33821315 9.29421662,12.8550605 9.51005784,13.7881103 M14.7327357,15.8839749 C14.5886999,15.8839749 14.4161969,15.840735 14.257715,15.6542098 C13.0493441,15.8695616 9.42380633,16.3002652 8.5748875,14.1327579 L8.56044143,14.089518 C8.15765111,12.6973619 9.6681148,8.76422432 11.812081,6.49624781 C12.8190568,5.43390217 13.2507392,5.20413707 13.3514368,5.16132107 C13.7686732,4.98878528 14.085212,4.85948942 14.3873047,5.06085183 C14.6749514,5.247377 14.6749514,5.56319803 14.6749514,5.83577913 C14.6749514,6.22324278 14.6749514,6.94094077 15.1495472,8.10375565 C15.7541575,9.56797824 15.7826248,11.7210722 15.7686036,12.5824794 C15.7252654,15.5393273 15.1639932,15.7690924 14.9770441,15.8551483 C14.9341308,15.8551483 14.8474544,15.8839749 14.7327357,15.8839749" id="Fill-72" fill="#000000"></path>
            <path d="M11.8695253,17.376685 C12.4737108,15.9701156 14.3729436,20.6781805 13.4666654,22.8601011 C12.5455163,25.0704244 12.2578696,25.4006587 11.3660374,25.5443679 C8.66122399,25.9894848 7.56799668,20.3479462 8.2873258,18.726025 C9.03512217,16.8599255 11.8695253,17.376685 11.8695253,17.376685" id="Fill-74" fill="#BC1142"></path>
            <path d="M10.9919268,17.8216747 C10.2292595,17.8216747 9.12158613,17.9937866 8.74768794,18.8984336 C8.31600549,19.8887127 8.68990368,22.8599739 9.82646918,24.3097832 C10.2725977,24.884196 10.7471935,25.1135371 11.2940196,25.0274812 C11.8697378,24.927012 12.0566869,24.8981854 13.0063033,22.6446221 C13.6104888,21.1948129 12.7615699,18.5249594 12.2291899,17.7644454 L12.1573845,17.9221439 L11.7830614,17.8505013 C11.7690402,17.8649146 11.4380553,17.8216747 10.9919268,17.8216747 M11.0781783,26.0610002 C10.3159359,26.0610002 9.61062796,25.6735366 9.03533461,24.927012 C7.71182002,23.2334482 7.23679937,19.8742994 7.82696366,18.5105461 C8.45961639,16.9174515 10.3877413,16.7020997 11.6250044,16.845385 C11.8697378,16.6016305 12.1858517,16.5728039 12.4450311,16.6876864 C13.6249348,17.1756193 14.7326082,21.1375835 13.9270276,23.0609124 C13.0063033,25.2716596 12.6319802,25.8456484 11.4525014,26.0465869 C11.3229117,26.0465869 11.207768,26.0610002 11.0781783,26.0610002" id="Fill-76" fill="#000000"></path>
            <path d="M17.6243283,10.4866147 C18.0126725,8.86469356 18.7320016,7.716292 19.494669,7.47211359 C20.2573363,7.2283591 20.9622193,7.93164378 21.3361175,9.30938653 C21.7104406,10.6875532 21.6959945,12.5392394 21.3072254,14.1611606 C20.9188811,15.7835057 20.199552,16.9319072 19.4368847,17.1756617 C18.6746423,17.4198401 17.9697592,16.7165554 17.5954361,15.3383888 C17.221538,13.9602221 17.221538,12.1085359 17.6243283,10.4866147" id="Fill-78" fill="#BC1142"></path>
            <path d="M19.7967617,7.91714569 C19.7534235,7.91714569 19.6960641,7.931559 19.6527259,7.94597231 C19.1636841,8.10367086 18.5021392,8.97949133 18.1133701,10.6014125 C17.7394719,12.1372777 17.7250258,13.902908 18.0849029,15.2090081 C18.286298,15.9555327 18.5883907,16.4867056 18.9189507,16.6588174 C19.0340944,16.730884 19.149238,16.730884 19.2788277,16.7020574 C19.7678696,16.5439349 20.4298393,15.6685383 20.8181836,14.0466172 C21.1925066,12.510328 21.2065278,10.7451216 20.8470757,9.4385976 C20.6456805,8.692073 20.3435878,8.1613241 20.0126029,7.98878831 C19.9407975,7.94597231 19.8685671,7.91714569 19.7967617,7.91714569 M19.134792,17.7211631 C18.8904835,17.7211631 18.6601962,17.6639337 18.4299089,17.5346379 C17.8401695,17.2188169 17.3795949,16.5011189 17.1063943,15.4531865 C16.7180501,14.0033773 16.7180501,12.0512218 17.1352864,10.3432447 C17.5669689,8.53437444 18.4010168,7.27109033 19.3506332,6.9696826 C19.7394023,6.84038675 20.1421926,6.88362667 20.5016448,7.08456515 C21.0913842,7.40038618 21.5519587,8.11808417 21.8251594,9.1660165 C22.2139285,10.6158258 22.2139285,12.5679813 21.7966921,14.2759584 C21.3650097,16.0848286 20.5305369,17.3481127 19.5809205,17.6495204 C19.4368847,17.7067498 19.2932738,17.7211631 19.134792,17.7211631" id="Fill-80" fill="#000000"></path>
            <path d="M17.0919907,19.2140427 C18.3581459,19.1568134 19.5520708,17.3767698 19.4513733,14.8217988 C19.3362296,12.223588 18.1996641,10.6156562 16.8905956,10.6733095 C15.4085991,10.7449521 13.9699409,13.1994538 14.0995306,15.1087933 C14.15689,17.2763005 16.0561228,19.2572826 17.0919907,19.2140427" id="Fill-82" fill="#BC1142"></path>
            <path d="M16.9625285,11.1756133 L16.9191903,11.1756133 C16.5597382,11.1900266 16.1569478,11.4337811 15.7686036,11.8644846 C15.0059363,12.7114785 14.5313405,14.0319919 14.603146,15.0799242 L14.603146,15.0943376 C14.6320381,16.372035 15.4087266,17.5344259 16.0562503,18.1376653 C16.5164,18.5679449 16.890723,18.7116541 17.0776721,18.6972408 C18.271597,18.6400115 19.0342643,16.6157895 18.9624589,14.8217564 C18.8902286,13.3575339 18.458971,12.1230764 17.8114473,11.5202609 C17.5378218,11.2904958 17.2501752,11.1756133 16.9625285,11.1756133 M17.04878,19.7163465 C16.5452921,19.7163465 15.9411066,19.4149388 15.3653884,18.883766 C14.5453617,18.123252 13.6390835,16.730672 13.5961702,15.1375775 C13.5094938,13.8166401 14.085212,12.2379589 15.0203823,11.1900266 C15.5956757,10.5583845 16.2287533,10.1993236 16.876277,10.1709209 C17.4515703,10.1420942 17.9983964,10.357446 18.4729922,10.7881496 C19.3363571,11.5774902 19.8831832,13.0417128 19.9549886,14.7929298 C20.0701323,17.7786043 18.6025819,19.6447039 17.1065643,19.7019332 C17.0921182,19.7163465 17.0776721,19.7163465 17.04878,19.7163465" id="Fill-84" fill="#000000"></path>
            <path d="M13.2218896,16.7594562 C13.9845569,15.7115239 14.8763891,15.3528869 15.5812721,15.7975798 C16.2861552,16.25711 16.6889455,17.4483276 16.6315861,18.9557901 C16.5742267,20.4484154 16.08476,22.0275206 15.3225176,23.0610396 C14.5598502,24.1089719 13.6680181,24.467609 12.963135,24.022916 C12.2578271,23.5633858 11.8550368,22.3721682 11.9128211,20.8647057 C11.9701804,19.3720804 12.4736683,17.8073886 13.2218896,16.7594562" id="Fill-86" fill="#BC1142"></path>
            <path d="M14.9339609,16.1134857 C14.4733863,16.1134857 13.9843445,16.5586025 13.6248923,17.0465354 C12.9195844,18.0084118 12.4594347,19.4866238 12.4160965,20.8792038 C12.3731832,22.1708906 12.689722,23.2476495 13.2361232,23.5922972 C13.7829493,23.9365209 14.4593651,23.3909348 14.9050687,22.7597167 C15.6099518,21.7978403 16.0705264,20.3192044 16.1138646,18.9270483 C16.1567779,17.6349376 15.8402391,16.5586025 15.2938379,16.2139549 C15.1927154,16.1423123 15.0635506,16.1134857 14.9339609,16.1134857 M13.6104463,24.7262855 C13.2939075,24.7262855 12.9773687,24.6398056 12.689722,24.4532804 C11.8263571,23.8937049 11.3517613,22.5587782 11.4091207,20.8647905 C11.466905,19.271272 11.9988601,17.5921216 12.8188868,16.4725466 C13.740036,15.1948492 14.9050687,14.7785589 15.8546852,15.3957877 C16.7180501,15.9557871 17.1926458,17.2907138 17.1352864,18.9842776 C17.0775022,20.5777961 16.5451221,22.2569465 15.7250954,23.3769454 C15.0920178,24.2523419 14.3297754,24.7262855 13.6104463,24.7262855" id="Fill-88" fill="#000000"></path>
            <path d="M12.948519,10.3430327 C13.3224172,8.7927542 14.0132791,7.68759255 14.7610755,7.45782746 C15.5092967,7.22806236 16.1857125,7.90294434 16.5451646,9.22345777 C16.9050416,10.5439712 16.8905956,12.3096015 16.5166974,13.8742934 C16.1423743,15.4245719 15.4519373,16.5297335 14.7037161,16.7594986 C13.9554948,16.9892637 13.2795039,16.3143817 12.9196269,14.9938683 C12.5601748,13.6733549 12.5601748,11.9077246 12.948519,10.3430327" id="Fill-90" fill="#BC1142"></path>
            <path d="M13.4376883,10.4722438 C13.0778113,11.9364664 13.0637901,13.6300302 13.4087962,14.8644877 C13.5957453,15.5681963 13.8982629,16.0705425 14.2143768,16.2426543 C14.3295205,16.3003076 14.4446641,16.314297 14.5598078,16.271481 C15.0203823,16.1277718 15.65346,15.2951912 16.0273581,13.7449127 C16.3868103,12.2806901 16.4012563,10.5871263 16.0562503,9.35266885 C15.8693012,8.64938417 15.5667836,8.14703797 15.2502447,7.97450218 C15.135526,7.91727287 15.0203823,7.90285956 14.9052387,7.94567556 C14.4446641,8.08938473 13.8115865,8.92196527 13.4376883,10.4722438 M14.4161969,17.305 C14.1714635,17.305 13.9411762,17.2473467 13.725335,17.1184748 C13.1500416,16.8026538 12.7039131,16.1133585 12.4307125,15.1230794 C12.0419434,13.7304994 12.0563895,11.8504105 12.4591798,10.2280654 C12.8908622,8.47684838 13.6824217,7.2712175 14.603146,6.98422309 C14.9914902,6.86934054 15.3798345,6.89816716 15.7397115,7.09910564 C16.3150048,7.41492667 16.7611333,8.10379804 17.0343339,9.09407713 C17.4226782,10.4866571 17.408657,12.36717 17.0058667,13.9890911 C16.5741842,15.7403081 15.7826248,16.945939 14.8619005,17.2329334 C14.7038435,17.2761734 14.5598078,17.305 14.4161969,17.305" id="Fill-92" fill="#000000"></path>
            <path d="M9.72585658,15.6110971 C9.68251838,18.123252 11.1216015,20.5345137 11.9556494,20.5489271 C12.9774961,20.5489271 14.0133641,18.5535316 14.0418313,15.5966838 C14.0562774,12.5677693 13.2073585,10.6444404 12.1570446,10.6300271 C10.9775657,10.6156138 9.71141051,13.3863605 9.72585658,15.6110971" id="Fill-94" fill="#BC1142"></path>
            <path d="M12.157257,11.1325429 C12.0276673,11.1325429 11.8407182,11.2330121 11.6537691,11.4195373 C10.8481885,12.2232912 10.2151109,14.0893908 10.2295569,15.6112666 C10.1862187,18.0081151 11.5386254,19.9746839 11.9703079,20.0323371 C12.5026879,20.0323371 13.5241098,18.5108852 13.5530019,15.58244 C13.5670231,12.6972347 12.7614425,11.1325429 12.157257,11.1325429 M11.9703079,21.0514428 L11.9703079,21.0514428 C11.624877,21.0514428 11.2654248,20.8649177 10.9199939,20.5058567 C10.0421829,19.6160468 9.19368899,17.649478 9.22215624,15.6112666 C9.20813506,13.831223 9.9703775,11.6925423 10.948886,10.7162526 C11.3372303,10.328789 11.7544667,10.1278505 12.1717031,10.1278505 C13.6103613,10.1422638 14.5744238,12.3381738 14.5599777,15.5968533 C14.5310856,18.7118237 13.4234122,21.0514428 11.9703079,21.0514428" id="Fill-96" fill="#000000"></path>
            <path d="M0.518188893,19.802572 C0.547081026,18.1085843 6.73339645,16.1136128 9.15056324,12.2093019 C9.95614387,10.9027778 9.40931778,13.9745082 10.2293445,17.2043612 C11.0493712,20.4342141 9.3519584,25.056223 7.84106982,25.0273964 C2.70506839,24.9413405 0.489296761,21.4965597 0.518188893,19.802572" id="Fill-98" fill="#FFFFFF"></path>
            <path d="M1.02176177,19.8169005 C0.992869635,21.1662406 2.93501577,24.4389095 7.85560086,24.5249654 C8.02810389,24.5249654 8.27283725,24.3528536 8.5175706,24.0370325 C9.56745971,22.7165191 10.315681,19.5587327 9.75483369,17.3335722 C9.36606455,15.8121203 9.26536697,14.3046578 9.20800759,13.3143787 C9.20800759,13.2283228 9.19356153,13.1422668 9.19356153,13.055787 C7.78379542,14.9795398 5.56802379,16.4005225 3.75546736,17.5633373 C2.46042001,18.3815046 1.02176177,19.3145543 1.02176177,19.8169005 M7.85560086,25.5300818 L7.82670873,25.5300818 C2.30236305,25.4296125 -0.028552225,21.6830001 0.000339907441,19.7880739 C0.0147859737,18.7545549 1.33830057,17.8935717 3.17974913,16.7163435 C5.07898196,15.4962993 7.45281055,13.9604341 8.7045197,11.936212 C8.81966334,11.7352736 9.10731001,11.2905806 9.56745971,11.4054631 C10.0713725,11.5343351 10.1142858,12.0366813 10.1860913,13.2427361 C10.2438755,14.2618418 10.330127,15.6539978 10.7040252,17.0754044 C11.380441,19.702018 10.5170761,23.1039828 9.27981304,24.6542613 C8.83368452,25.2426634 8.35908876,25.5300818 7.85560086,25.5300818" id="Fill-100" fill="#000000"></path>
            <path d="M2.04322611,18.3815046 C2.04322611,18.3815046 3.43897104,20.1759615 1.78447158,22.2569889 L0.446086028,20.1759615 L2.04322611,18.3815046 Z" id="Fill-102" fill="#000000"></path>
            <path d="M7.12182568,17.0896058 C7.47957826,17.0896058 7.76934935,17.3787198 7.76934935,17.7356612 C7.76934935,18.0921786 7.47957826,18.3812926 7.12182568,18.3812926 C6.76407309,18.3812926 6.474302,18.0921786 6.474302,17.7356612 C6.474302,17.3787198 6.76407309,17.0896058 7.12182568,17.0896058" id="Fill-104" fill="#000000"></path>
        </g>
    </g>
</svg>