<?xml version="1.0" encoding="UTF-8" standalone="no"?>
<svg width="90px" height="65px" viewBox="0 0 90 65" version="1.1" xmlns="http://www.w3.org/2000/svg" xmlns:xlink="http://www.w3.org/1999/xlink">
    <!-- Generator: Sketch 3.7.2 (28276) - http://www.bohemiancoding.com/sketch -->
    <title>PortcuPI Logo</title>
    <desc>Created with Sketch.</desc>
    <defs>
        <polygon id="path-1" points="0 0.20531746 89.9896932 0.20531746 89.9896932 65 0 65"></polygon>
    </defs>
    <g id="Page-1" stroke="none" stroke-width="1" fill="none" fill-rule="evenodd">
        <g id="PortcuPI-Logo">
            <path d="M51.8232591,56.2660635 C72.9021682,56.2660635 89.9894864,58.2212222 89.9894864,60.6334444 C89.9894864,63.0446349 72.9021682,64.9997937 51.8232591,64.9997937 C30.74435,64.9997937 13.6570318,63.0446349 13.6570318,60.6334444 C13.6570318,58.2212222 30.74435,56.2660635 51.8232591,56.2660635" id="Fill-1" fill="#000000"></path>
            <path d="M19.8543386,61.820881 C21.0445773,63.7069127 33.8600659,63.8121508 47.2360318,63.2880238 C62.6077932,62.6596905 78.7499523,61.1223889 78.9950318,60.2485 C80.9908273,57.8734206 80.1159864,54.3097698 81.4458273,50.8513571 C85.1230545,47.6023889 84.2120205,43.7591349 84.2120205,40.2305635 C84.2120205,36.527627 82.6722591,35.0945317 78.9950318,31.8455635 C77.6641568,28.4222302 78.9950318,27.5142937 76.9992364,25.1381825 C76.5442364,23.4966746 73.4978045,20.1775476 65.4443045,19.2345317 C63.4485091,18.6051667 62.8880318,12.7015159 60.3669182,12.2815952 C52.3134182,5.78365873 42.403725,9.94159524 39.3231682,14.5524683 L38.1670545,15.146754 C29.868475,15.1116746 29.9036341,23.9506429 27.3473614,27.9682619 C27.0671227,28.3520714 26.6472818,27.6535794 26.0175205,29.0165159 C25.6318045,29.8192143 24.2657705,28.3871508 23.7756114,29.0165159 C21.7798159,29.5055635 19.5037818,63.0435 19.8543386,61.820881" id="Fill-3" fill="#000000"></path>
            <path d="M78.8900716,61.7509286 C81.4815034,61.6116429 83.967458,57.942754 83.7575375,52.7025159 C83.512458,47.3570397 81.1661057,44.0389444 78.4702307,44.1431508 C75.4237989,44.2834683 72.4476852,49.3483095 72.7268898,53.2968016 C72.832367,57.7683889 76.7536398,61.8210873 78.8900716,61.7509286" id="Fill-5" fill="#BC1142"></path>
            <path d="M78.644992,45.3660794 L78.5395148,45.3660794 C77.8394352,45.4011587 77.0690375,45.8902063 76.2986398,46.7290159 C74.7578443,48.4406825 73.8126852,51.0953651 73.9533216,53.2269524 L73.9533216,53.2620317 C74.0226057,55.8465556 75.5634011,58.1875873 76.859117,59.4102063 C77.699833,60.1788571 78.4350716,60.528619 78.7845943,60.528619 L78.8197534,60.528619 C80.4660261,60.4584603 82.7069011,57.628381 82.5321398,52.7379048 C82.3915034,49.7675079 81.5166625,47.2521111 80.2209466,46.0645714 C79.6956284,45.6106032 79.1703102,45.3660794 78.644992,45.3660794 M78.8197534,62.9738571 C77.734992,62.9738571 76.4392761,62.3444921 75.2138784,61.1920317 C73.4972875,59.5845714 71.6069693,56.6853651 71.501492,53.3662381 C71.3267307,50.6063175 72.5169693,47.2871905 74.4786398,45.0864762 C75.7040375,43.7245714 77.0690375,42.9899683 78.4350716,42.9208413 C79.6604693,42.8506825 80.850708,43.3397302 81.8661852,44.2476667 C83.6872193,45.8902063 84.8081739,48.9648095 84.9829352,52.6326667 C85.2280148,58.9211587 82.1112648,62.7994921 78.9603898,62.9738571 L78.8197534,62.9738571" id="Fill-7" fill="#000000"></path>
            <path d="M79.9055489,53.1218175 C83.512458,52.3531667 91.601117,44.6676905 86.4182534,40.2301508 C82.5321398,36.8769762 83.9322989,26.6750714 80.8155489,27.2342778 C75.3534807,28.1772937 69.4705375,34.4307063 69.5408557,40.2301508 C69.3309352,46.798246 76.0535602,53.9255476 79.9055489,53.1218175" id="Fill-9" fill="#BC1142"></path>
            <path d="M81.0259864,28.4571032 C76.3343159,29.2608333 70.7316114,34.8508333 70.8019295,40.2303571 L70.8019295,40.2654365 L70.8019295,40.3005159 C70.6612932,44.1778175 73.2878841,48.1954365 75.7738386,50.2919444 C77.2443159,51.5145635 78.6796341,52.1439286 79.6599523,51.9344841 C81.761225,51.4794841 85.9286114,47.9509127 86.7682932,44.7721032 C87.1540091,43.3049603 86.7682932,42.1514683 85.6483727,41.173373 C83.3371795,39.2171825 82.7063841,35.6184524 82.1469409,32.4396429 C81.8667023,31.0075794 81.4809864,28.8409127 81.0259864,28.4571032 M79.2752705,54.4148016 C77.734475,54.4148016 75.9486,53.6461508 74.1978841,52.1439286 C71.1866114,49.5934524 68.2104977,44.9464683 68.3501,40.2303571 C68.3149409,37.2259127 69.7161341,33.8717063 72.2020886,31.0777381 C74.617725,28.3518651 77.6993159,26.5009127 80.6061455,26.0118651 C83.3371795,25.5228175 83.9317818,28.8068651 84.4922591,31.9856746 C84.9824182,34.6063095 85.5428955,37.8893254 87.1891682,39.2873413 C89.0443273,40.8597222 89.6751227,42.9551984 89.0794864,45.3313095 C87.9585318,49.6636111 82.9514636,53.6812302 80.1159864,54.2744841 L79.8709068,53.0869444 L80.1159864,54.2744841 C79.8709068,54.3797222 79.5906682,54.4148016 79.2752705,54.4148016" id="Fill-11" fill="#000000"></path>
            <path d="M54.9395955,42.2916825 C56.4100727,38.8683492 61.0324591,50.3269206 58.8267432,55.6373175 C56.5848341,61.0168413 55.8847545,61.8205714 53.7141977,62.1703333 C47.131175,63.2536667 44.4704591,49.5231905 46.221175,45.5757302 C48.041175,41.0339841 54.9395955,42.2916825 54.9395955,42.2916825" id="Fill-13" fill="#BC1142"></path>
            <path d="M52.8036807,43.3747063 C50.9474875,43.3747063 48.2516125,43.7935952 47.3416125,45.9953413 C46.2909761,48.4055 47.2009761,55.6370079 49.9671693,59.1655794 C51.0529648,60.5635952 52.2080443,61.1217698 53.5389193,60.9123254 C54.9401125,60.6678016 55.3951125,60.5976429 57.7063057,55.112881 C59.211942,51.5151825 57.0403511,44.9120079 55.7446352,43.1652619 L55.3599534,43.5490714 L54.729158,43.4448651 C54.6939989,43.5139921 53.8894761,43.3747063 52.8036807,43.3747063 M53.0136011,63.4277222 C51.158442,63.4277222 49.4418511,62.4847063 48.041692,60.6678016 C44.8204989,56.5459762 43.6643852,48.3704206 45.1007375,45.0512937 C46.6404989,41.1739921 51.3332034,40.6498651 54.3444761,40.9985952 C54.9401125,40.4053413 55.7094761,40.3351825 56.3402716,40.6147857 C59.211942,41.8023254 61.907817,51.4450238 59.9471807,56.1260556 C57.7063057,61.5066111 56.7952716,62.9035952 53.9246352,63.3926429 C53.6092375,63.3926429 53.2938398,63.4277222 53.0136011,63.4277222" id="Fill-15" fill="#000000"></path>
            <path d="M67.2650284,34.5708175 C65.724233,38.204627 60.7523239,26.0114524 63.063517,20.4565317 C65.4439943,14.7623254 66.3198693,11.3379603 68.3508239,12.1767698 C70.662017,13.1197857 72.0973352,26.7099444 76.5439261,31.2166111 C74.6184489,35.933754 67.2650284,34.5708175 67.2650284,34.5708175" id="Fill-17" fill="#BC1142"></path>
            <path d="M67.7551875,13.26 C67.1947102,13.4343651 66.1440739,16.0199206 65.3395511,18.1164286 C64.9889943,18.9542063 64.6043125,19.898254 64.1834375,20.9454762 C62.642642,24.6845238 64.9538352,31.9851587 66.3891534,33.7669841 L66.8451875,33.3130159 L67.4749489,33.418254 C67.545267,33.418254 69.2256648,33.7319048 71.081858,33.487381 C73.0073352,33.2428571 74.3382102,32.5443651 75.0734489,31.4269841 C72.7622557,28.5969048 71.3269375,23.7404762 70.0663807,19.443254 C69.3663011,17.103254 68.455267,13.8883333 67.8255057,13.3301587 L67.7551875,13.26 Z M66.5297898,36.4577778 C66.2847102,36.4577778 66.0044716,36.387619 65.7945511,36.3174603 C63.6581193,35.4095238 62.2579602,30.5530952 62.0128807,29.575 C61.5227216,27.7931746 60.5775625,23.2514286 61.9425625,20.0024603 C62.3624034,18.9892857 62.7481193,18.0462698 63.063517,17.2074603 C64.4636761,13.7490476 65.269233,11.6525397 66.8100284,11.0242063 C67.2298693,10.8498413 67.9299489,10.7095238 68.8058239,11.0592857 C70.3114602,11.687619 71.0466989,13.9935714 72.412733,18.7096825 C73.6381307,22.9026984 75.143767,28.0727778 77.384642,30.3436508 L77.9451193,30.9028571 L77.6297216,31.6364286 C75.9834489,35.7242063 71.0115398,36.282381 67.7903466,35.8985714 C67.4397898,36.282381 66.9847898,36.4577778 66.5297898,36.4577778 L66.5297898,36.4577778 Z" id="Fill-19" fill="#000000"></path>
            <path d="M71.1516591,40.5798095 C73.0078523,37.994254 75.2135682,37.0863175 76.8939659,38.2036984 C78.6095227,39.3221111 79.5557159,42.2914762 79.4150795,45.9944127 C79.2754773,49.698381 78.0500795,53.5756825 76.1938864,56.1612381 C74.3376932,58.7467937 72.1319773,59.6547302 70.4515795,58.5373492 C68.7360227,57.4189365 67.7898295,54.4495714 67.9304659,50.7466349 C68.0700682,47.0426667 69.2954659,43.1653651 71.1516591,40.5798095" id="Fill-21" fill="#BC1142"></path>
            <path d="M75.3534807,38.9377857 C74.2325261,38.9377857 73.0071284,40.0561984 72.1322875,41.2788175 C70.4167307,43.6889762 69.260617,47.3227857 69.1210148,50.7811984 C68.9803784,53.9950873 69.7507761,56.6157222 71.0816511,57.4885794 C72.377367,58.3273889 74.0577648,56.9644524 75.1787193,55.4271508 C76.8942761,53.0169921 78.0493557,49.3831825 78.189992,45.9247698 C78.3295943,42.710881 77.5591966,40.090246 76.2293557,39.2173889 C75.949117,39.0430238 75.6688784,38.9377857 75.3534807,38.9377857 M71.9916511,60.2134206 C71.1519693,60.2134206 70.3815716,59.9688968 69.7507761,59.5500079 C67.6505375,58.1870714 66.4944239,54.8689762 66.6691852,50.7110397 C66.8098216,46.7986587 68.1406966,42.6407222 70.136492,39.8808016 C72.8675261,36.1077063 75.7381625,36.0035 77.5591966,37.1910397 C79.6604693,38.5539762 80.8155489,41.8720714 80.6407875,46.0300079 C80.5011852,49.9423889 79.1703102,54.1003254 77.1745148,56.860246 C75.4237989,59.3405635 73.5676057,60.2134206 71.9916511,60.2134206" id="Fill-23" fill="#000000"></path>
            <path d="M71.46685,25.1730556 C72.37685,21.3999603 74.0582818,18.7101984 75.8782818,18.1509921 C77.6993159,17.5917857 77.1739977,19.723373 78.0498727,22.9723413 C78.9247136,26.1862302 81.0611455,29.9944048 80.1511455,33.7675 C79.2401114,37.5405952 77.5597136,40.2303571 75.7386795,40.7895635 C73.9176455,41.3487698 72.2724068,39.7062302 71.3965318,36.4923413 C70.4865318,33.2784524 70.5216909,28.9812302 71.46685,25.1730556" id="Fill-25" fill="#BC1142"></path>
            <path d="M72.6573989,25.4875317 C71.7815239,29.0511825 71.7473989,33.1730079 72.5870807,36.1774524 C73.0420807,37.8901508 73.7783534,39.1127698 74.547717,39.5316587 C74.8279557,39.6719762 75.1081943,39.7060238 75.388433,39.6018175 C76.5093875,39.2520556 78.050183,37.2257063 78.960183,33.4526111 C79.5558193,31.007373 78.6447852,28.4218175 77.7347852,25.9415 C77.4193875,25.0335635 77.1039898,24.1596746 76.8589102,23.2868175 C76.5786716,22.2385635 76.4039102,21.2955476 76.299467,20.5268968 C76.2291489,20.1420556 76.1588307,19.6880873 76.0885125,19.3734048 C74.968592,19.8624524 73.5332739,21.8537222 72.6573989,25.4875317 M75.0389102,42.1172143 C74.4432739,42.1172143 73.8827966,41.9768968 73.3574784,41.663246 C71.9573193,40.8945952 70.8715239,39.2169762 70.2066034,36.8068175 C69.2604102,33.4175317 69.2955693,28.8417381 70.2758875,24.893246 C71.3265239,20.6311032 73.2530352,17.6968175 75.4939102,16.9983254 C76.2291489,16.7538016 76.8940693,16.8229286 77.4193875,17.1376111 C78.3293875,17.6968175 78.505183,18.7801508 78.7151034,20.1420556 C78.8205807,20.875627 78.960183,21.7144365 79.2052625,22.622373 C79.415183,23.3910238 79.7305807,24.2298333 80.0108193,25.1037222 C80.9911375,27.7934841 82.076933,30.8680873 81.3065352,34.0118175 C80.2558989,38.2739603 78.3293875,41.208246 76.0885125,41.9077698 C75.7389898,42.0470556 75.388433,42.1172143 75.0389102,42.1172143" id="Fill-27" fill="#000000"></path>
            <path d="M67.2999807,46.973127 C70.3815716,46.8338413 73.287367,42.5015397 73.0422875,36.2832063 C72.7620489,29.9596349 69.9958557,26.0462222 66.8098216,26.1865397 C63.2029125,26.3609048 59.7014807,32.3347143 60.0168784,36.9816984 C60.1564807,42.2570159 64.778867,47.0783651 67.2999807,46.973127" id="Fill-29" fill="#BC1142"></path>
            <path d="M66.9848932,27.4089524 L66.8794159,27.4089524 C66.004575,27.4440317 65.0242568,28.0372857 64.0790977,29.0855397 C62.2229045,31.1469683 61.0667909,34.3608571 61.2425864,36.9113333 L61.2425864,36.9464127 C61.3129045,40.0560952 63.2032227,42.8851429 64.7791773,44.3533175 C65.8990977,45.4005397 66.8101318,45.7503016 67.2651318,45.7152222 C70.1709273,45.5759365 72.0271205,40.6493492 71.8523591,36.283 C71.6765636,32.7193492 70.6269614,29.7149048 69.0510068,28.2477619 C68.3850523,27.6885556 67.6849727,27.4089524 66.9848932,27.4089524 M67.2299727,48.1955397 C66.004575,48.1955397 64.5340977,47.4619683 63.1329045,46.1691905 C61.1371091,44.3182381 58.9313932,40.9289524 58.8259159,37.0516508 C58.6159955,33.8367302 60.0171886,29.9945079 62.2932227,27.4440317 C63.6933818,25.9067302 65.2341773,25.0328413 66.8101318,24.9637143 C68.2102909,24.8935556 69.5411659,25.4176825 70.6962455,26.4659365 C72.7975182,28.3870476 74.1283932,31.9506984 74.3031545,36.2128413 C74.5833932,43.4794286 71.0116432,48.0211746 67.369575,48.1604603 C67.33545,48.1955397 67.2651318,48.1955397 67.2299727,48.1955397" id="Fill-31" fill="#000000"></path>
            <path d="M41.738908,42.2916825 C43.2093852,38.8683492 47.8317716,50.3269206 45.6260557,55.6373175 C43.3841466,61.0168413 42.684067,61.8205714 40.5135102,62.1703333 C33.9304875,63.2536667 31.2697716,49.5231905 33.0204875,45.5757302 C34.8756466,41.0339841 41.738908,42.2916825 41.738908,42.2916825" id="Fill-33" fill="#BC1142"></path>
            <path d="M39.6379455,43.3747063 C37.7817523,43.3747063 35.0858773,43.7935952 34.1758773,45.9953413 C33.1252409,48.4055 34.0352409,55.6370079 36.8014341,59.1655794 C37.8872295,60.5635952 39.0423091,61.1217698 40.3731841,60.9123254 C41.7743773,60.6678016 42.2293773,60.5976429 44.5405705,55.112881 C46.0110477,51.5843095 43.9449341,45.086373 42.6492182,43.2354206 L42.4744568,43.6192302 L41.5634227,43.4448651 C41.5282636,43.4799444 40.7237409,43.3747063 39.6379455,43.3747063 M39.8127068,63.4277222 C37.9575477,63.4277222 36.2409568,62.4847063 34.8407977,60.6678016 C31.6196045,56.5459762 30.4634909,48.3704206 31.8998432,45.0512937 C33.4406386,41.1739921 38.1323091,40.6498651 41.1435818,40.9985952 C41.7392182,40.4053413 42.5096159,40.3351825 43.1393773,40.6147857 C46.0110477,41.8023254 48.7069227,51.4450238 46.7462864,56.1260556 C44.5054114,61.5066111 43.5943773,62.9035952 40.7237409,63.3926429 C40.4435023,63.3926429 40.1281045,63.4277222 39.8127068,63.4277222" id="Fill-35" fill="#000000"></path>
            <path d="M65.4091455,62.1002778 C68.0005773,61.9609921 70.4865318,58.2921032 70.2766114,53.0518651 C70.0315318,47.7063889 67.6851795,44.3882937 64.9893045,44.4925 C61.9428727,44.6328175 58.9667591,49.6976587 59.2459636,53.6461508 C59.3514409,58.1177381 63.2727136,62.2055159 65.4091455,62.1002778" id="Fill-37" fill="#BC1142"></path>
            <path d="M65.1290102,45.7154286 L65.023533,45.7154286 C64.3234534,45.7505079 63.5530557,46.2395556 62.782658,47.0783651 C61.2418625,48.7900317 60.2967034,51.4447143 60.4373398,53.5763016 L60.4373398,53.611381 C60.5066239,56.1959048 62.0474193,58.5369365 63.3431352,59.7595556 C64.1838511,60.5632857 64.9542489,60.8779683 65.3037716,60.8779683 C66.9500443,60.8078095 69.1909193,57.9777302 69.016158,53.087254 C68.8755216,50.1168571 68.0006807,47.6024921 66.7049648,46.4139206 C66.2148057,45.9599524 65.6894875,45.7154286 65.1290102,45.7154286 M65.3389307,63.3232063 C64.2531352,63.3232063 62.9584534,62.6938413 61.7320216,61.541381 C60.0164648,59.9339206 58.1261466,57.0347143 58.0206693,53.7155873 C57.845908,50.9556667 59.0361466,47.6365397 60.996783,45.4358254 C62.2232148,44.0739206 63.5882148,43.3393175 64.9542489,43.2701905 C66.1796466,43.2000317 67.3698852,43.6890794 68.3853625,44.5970159 C70.2063966,46.2395556 71.326317,49.3141587 71.5021125,52.9820159 C71.747192,59.2705079 68.630442,63.1488413 65.479567,63.3232063 L65.3389307,63.3232063" id="Fill-39" fill="#000000"></path>
            <path d="M60.6121011,26.4657302 C62.748533,26.3604921 64.3586125,19.1289841 64.0783739,12.5959683 C63.7629761,5.92366667 65.1290102,5.85350794 62.8881352,5.95874603 C60.3670216,6.06295238 55.0093966,10.919381 55.3247943,15.8449365 C55.4995557,21.3647778 58.8262261,26.5358889 60.6121011,26.4657302" id="Fill-41" fill="#BC1142"></path>
            <path d="M62.9230875,7.18115873 C62.1526898,7.2162381 60.5415761,8.1241746 59.0710989,9.76671429 C57.320383,11.6878254 56.410383,13.8534603 56.5148261,15.7756032 C56.6906216,20.8755238 59.5260989,24.8931429 60.5074511,25.2429048 C61.5229284,24.648619 63.0978489,19.1989365 62.8176102,12.6659206 C62.678008,10.0463175 62.8176102,8.40377778 62.8879284,7.42568254 C62.9230875,7.32044444 62.9230875,7.25131746 62.9230875,7.18115873 M60.5767352,27.6881429 C59.8766557,27.6881429 59.141417,27.3394127 58.3710193,26.6409206 C56.410383,24.8240159 54.238792,20.4566349 54.0991898,15.8457619 C53.9595875,13.3303651 55.114667,10.5002857 57.2852239,8.08909524 C59.106258,6.06274603 61.2426898,4.771 62.8527693,4.70084127 C63.7286443,4.6657619 64.3935648,4.63068254 64.954042,5.18988889 C65.5145193,5.7841746 65.4442011,6.48266667 65.373883,7.56496825 C65.3045989,8.54409524 65.1991216,10.0463175 65.3045989,12.5266349 C65.5145193,17.2076667 64.6386443,27.4786984 60.6822125,27.6540952 C60.6470534,27.6881429 60.6118943,27.6881429 60.5767352,27.6881429" id="Fill-43" fill="#000000"></path>
            <path d="M63.7634932,38.4487381 C65.47905,39.5671508 66.4593682,42.4663571 66.3197659,46.1342143 C66.1791295,49.7680238 64.9888909,53.6112778 63.1337318,56.1266746 C61.2775386,58.676119 59.1059477,59.5500079 57.3903909,58.4666746 C55.6748341,57.3492937 54.6945159,54.4490556 54.8341182,50.7811984 C54.9747545,47.1473889 56.1649932,43.3051667 58.0211864,40.7897698 C59.8763455,38.274373 62.0479364,37.3654048 63.7634932,38.4487381" id="Fill-45" fill="#BC1142"></path>
            <path d="M62.2228011,39.2172857 C61.1018466,39.2172857 59.911608,40.300619 59.036767,41.4881587 C57.3201761,43.8291905 56.2002557,47.4268889 56.0947784,50.8161746 C55.9903352,53.9599048 56.760733,56.5805397 58.0905739,57.4193492 C59.4214489,58.257127 61.0677216,56.9292698 62.152483,55.393 C63.8680398,53.0519683 64.9889943,49.4532381 65.0944716,46.0649841 C65.1989148,42.9202222 64.428517,40.300619 63.0986761,39.4618095 C62.8184375,39.2874444 62.5030398,39.2172857 62.2228011,39.2172857 M58.9664489,60.1792698 C58.1960511,60.1792698 57.4256534,59.9687937 56.7255739,59.5148254 C54.6243011,58.1529206 53.4692216,54.9039524 53.6088239,50.7810952 C53.7494602,46.9027619 55.0451761,42.8160159 57.0409716,40.0911746 C59.2818466,36.9814921 62.1173239,35.9683175 64.428517,37.4705397 C66.5297898,38.8334762 67.6848693,42.0824444 67.545267,46.2042698 C67.4046307,50.0826032 66.1099489,54.1693492 64.1131193,56.8952222 C62.573358,59.0257778 60.7171648,60.1792698 58.9664489,60.1792698" id="Fill-47" fill="#000000"></path>
            <path d="M56.1652,26.1862302 C57.0752,21.8890079 58.7566318,18.8494841 60.5766318,18.1860714 C62.3976659,17.5567063 64.0439386,19.4086905 64.9187795,23.0765476 C65.7946545,26.7454365 65.7594955,31.6359127 64.8494955,35.9331349 C63.9384614,40.2303571 62.2580636,43.269881 60.4370295,43.9332937 C58.6159955,44.5977381 56.9707568,42.7106746 56.0948818,39.0428175 C55.2200409,35.3739286 55.2552,30.4834524 56.1652,26.1862302" id="Fill-49" fill="#BC1142"></path>
            <path d="M57.3907011,26.430754 C56.5148261,30.5536111 56.4807011,35.2697222 57.320383,38.7632143 C58.0556216,41.8027381 59.0710989,42.5713889 59.3864966,42.7106746 C59.6315761,42.8509921 59.8063375,42.8509921 60.051417,42.7808333 C61.1372125,42.3959921 62.7483261,40.0209127 63.6583261,35.6886111 C64.5342011,31.5667857 64.5683261,26.8496429 63.7286443,23.3561508 C62.9934057,20.316627 61.9779284,19.5479762 61.6625307,19.4086905 C61.4174511,19.2694048 61.2426898,19.2694048 60.9976102,19.3385317 C59.9118148,19.723373 58.3007011,22.0984524 57.3907011,26.430754 M59.7370534,45.2611508 C59.2117352,45.2611508 58.686417,45.1218651 58.196258,44.8422619 C56.7257807,44.0385317 55.6048261,42.1514683 54.9047466,39.3224206 C53.9937125,35.514246 53.9937125,30.3782143 54.9750648,25.906627 C56.024667,21.0501984 57.9160193,17.8363095 60.1568943,17.0325794 C61.0668943,16.7189286 61.9779284,16.7880556 62.8176102,17.2430556 C64.2891216,18.045754 65.409042,19.9328175 66.1091216,22.7628968 C67.0201557,26.5700397 67.0201557,31.7060714 66.0398375,36.1776587 C64.9892011,41.0340873 63.0978489,44.2479762 60.8569739,45.0517063 C60.5074511,45.1909921 60.1217352,45.2611508 59.7370534,45.2611508" id="Fill-51" fill="#000000"></path>
            <path d="M53.5390227,25.4875317 C56.3755341,25.0686429 56.8656932,18.6398333 55.8150568,11.4784841 C54.6941023,4.21189683 58.6867273,1.03205556 55.7798977,1.45197619 C52.4883864,1.94102381 44.5755227,9.20761111 45.4855227,14.5871349 C46.3262386,20.6661825 51.2278295,25.8372937 53.5390227,25.4875317" id="Fill-53" fill="#BC1142"></path>
            <g id="Group-57">
                <mask id="mask-2" fill="white">
                    <use xlink:href="#path-1"></use>
                </mask>
                <g id="Clip-56"></g>
                <path d="M55.429858,2.84906349 C53.8187443,3.44334921 50.9129489,5.60898413 48.776517,8.54326984 C47.1664375,10.7450159 46.4311989,12.8404921 46.7114375,14.412873 L46.7114375,14.4479524 C47.2367557,18.325254 49.6875511,21.9590635 51.8229489,23.5665238 C52.6636648,24.1948571 53.224142,24.3000952 53.3989034,24.3000952 C54.6243011,24.1246984 55.884858,19.9677937 54.6594602,11.6880317 C54.0296989,7.63533333 54.9045398,4.7701746 55.429858,3.05850794 C55.3946989,2.95430159 55.3946989,2.88414286 55.429858,2.84906349 L55.429858,2.84906349 Z M53.3285852,26.710254 C52.4185852,26.710254 51.403108,26.2913651 50.3524716,25.4876349 C47.9016761,23.6356508 44.9255625,19.5138254 44.294767,14.7626349 C43.839767,11.8974762 45.3805625,8.99826984 46.8158807,7.07612698 C49.3369943,3.61771429 53.188983,0.613269841 55.6397784,0.263507937 C56.0254943,0.194380952 57.0750966,0.0540634921 57.7410511,0.787634921 C58.4059716,1.55628571 58.125733,2.49930159 57.7762102,3.72295238 C57.2860511,5.32938095 56.5508125,7.77461905 57.1102557,11.3031905 C57.6004148,14.7275556 58.8609716,25.9416032 53.8187443,26.710254 L53.3285852,26.710254 Z" id="Fill-55" fill="#000000" mask="url(#mask-2)"></path>
            </g>
            <path d="M44.7501807,27.7932778 C46.8162943,27.1989921 45.9755784,20.1078016 44.2248625,13.7842302 C42.4038284,7.35542063 44.5051011,6.69200794 42.3686693,7.28629365 C39.953033,7.94970635 35.8208057,13.8884365 37.2219989,18.6055794 C38.622158,23.9851032 43.0346239,28.2823254 44.7501807,27.7932778" id="Fill-58" fill="#BC1142"></path>
            <path d="M42.1590591,8.71825397 C41.3886614,9.20730159 40.3731841,10.3257143 39.4983432,11.8619841 C38.2377864,14.1328571 37.8169114,16.4738889 38.3773886,18.2907937 C39.6731045,23.1812698 43.3141386,26.4653175 44.3999341,26.6407143 C45.0648545,25.7668254 44.9604114,20.9805556 43.0349341,14.1679365 C42.2986614,11.5483333 42.1590591,9.8015873 42.1590591,8.71825397 M44.4702523,29.050873 C43.909775,29.050873 43.2800136,28.8765079 42.6140591,28.4916667 C40.3028659,27.1648413 37.18715,23.391746 35.9958773,18.9542063 C35.2957977,16.5440476 35.7859568,13.5045238 37.3619114,10.6744444 C38.6927864,8.29936508 40.4786614,6.55261905 42.0194568,6.13269841 C42.7888205,5.92325397 43.454775,5.74888889 44.0493773,6.23793651 C44.6450136,6.72698413 44.6450136,7.39039683 44.6098545,8.0197619 C44.5746955,8.89261905 44.5405705,10.5000794 45.3802523,13.5045238 C46.3254114,16.8927778 46.9562068,20.3171429 47.1309682,22.9026984 C47.2364455,24.2295238 47.481525,28.352381 45.0648545,29.0157937 C44.8900932,29.050873 44.6801727,29.050873 44.4702523,29.050873" id="Fill-60" fill="#000000"></path>
            <path d="M44.5051011,38.3089365 C44.3303398,44.4230635 49.8978852,50.2916349 53.1190784,50.3267143 C57.0403511,50.3267143 61.0671011,45.4702857 61.1725784,38.2738571 C61.2428966,30.9020317 57.9513852,26.221 53.8894761,26.1859206 C49.3022489,26.1508413 44.434783,32.8943333 44.5051011,38.3089365" id="Fill-62" fill="#BC1142"></path>
            <path d="M53.8891659,27.4089524 C52.5231318,27.4089524 50.9833705,28.2126825 49.5470182,29.644746 C47.235825,31.9857778 45.6960636,35.4441905 45.7301886,38.3093492 L45.7301886,38.3433968 L45.7301886,38.3784762 C45.6257455,41.7677619 47.5512227,44.9816508 49.3722568,46.8687143 C50.9833705,48.5453016 52.4186886,49.1385556 53.1539273,49.1385556 C56.3751205,49.1385556 59.8765523,44.7722063 59.9820295,38.2742698 C60.0171886,34.2215714 58.9665523,30.7631587 57.0752,28.8760952 C56.1300409,27.898 55.0442455,27.4089524 53.8891659,27.4089524 M53.1539273,51.549746 L53.1539273,51.549746 C51.4735295,51.549746 49.442575,50.4313333 47.5863818,48.5453016 C44.7850295,45.6450635 43.17495,41.8379206 43.2793932,38.3093492 C43.2442341,34.8158571 45.0301091,30.7280794 47.8314614,27.9330794 C49.7569386,26.0119683 51.8933705,24.9637143 53.924325,24.9637143 C55.7453591,24.9637143 57.4257568,25.7323651 58.8259159,27.1293492 C61.1722682,29.5054603 62.4679841,33.5581587 62.432825,38.2742698 C62.3976659,41.8719683 61.3821886,45.2261746 59.5963136,47.7064921 C57.8455977,50.1517302 55.5002795,51.549746 53.1539273,51.549746" id="Fill-64" fill="#000000"></path>
            <path d="M45.1353795,40.5099603 C46.9915727,37.9244048 49.1972886,37.0164683 50.8776864,38.1338492 C52.5932432,39.2522619 53.5394364,42.221627 53.3988,45.9245635 C53.2591977,49.6285317 52.0338,53.5058333 50.1776068,56.0913889 C48.3214136,58.6769444 46.1156977,59.584881 44.4353,58.4675 C42.7197432,57.3490873 41.77355,54.3797222 41.9141864,50.6767857 C42.0537886,46.9728175 43.2791864,43.0955159 45.1353795,40.5099603" id="Fill-66" fill="#BC1142"></path>
            <path d="M49.3372011,38.8679365 C48.2162466,38.8679365 46.9908489,39.9863492 46.116008,41.2089683 C44.4004511,43.619127 43.2443375,47.2529365 43.1047352,50.7113492 C42.9640989,53.9252381 43.7344966,56.545873 45.0653716,57.4187302 C46.3610875,58.2575397 48.0414852,56.8946032 49.1624398,55.3573016 C50.8779966,52.9471429 52.0330761,49.3133333 52.1737125,45.8549206 C52.3133148,42.6410317 51.542917,40.0203968 50.2130761,39.1475397 C49.9328375,38.9731746 49.6525989,38.8679365 49.3372011,38.8679365 M45.9753716,60.1435714 C45.1356898,60.1435714 44.365292,59.8990476 43.7344966,59.4801587 C41.634258,58.1172222 40.4781443,54.799127 40.6529057,50.6411905 C40.793542,46.7288095 42.124417,42.570873 44.1202125,39.8109524 C46.8512466,36.0378571 49.721883,35.9336508 51.542917,37.1211905 C53.6441898,38.484127 54.7992693,41.8022222 54.624508,45.9601587 C54.4849057,49.8725397 53.1540307,54.0304762 51.1582352,56.7903968 C49.4075193,59.2356349 47.5513261,60.1435714 45.9753716,60.1435714" id="Fill-68" fill="#000000"></path>
            <path d="M35.2960045,36.7368651 C37.0115614,40.7544841 38.2721182,26.2914683 35.7510045,20.1422619 C33.1254477,13.8537698 35.9268,12.4217063 32.9848114,13.6443254 C32.9848114,13.6443254 32.1451295,13.9940873 29.6581409,16.6136905 C24.5466295,21.994246 21.2199591,31.1468651 22.0255159,33.9067857 C24.0916295,39.2171825 35.2960045,36.7368651 35.2960045,36.7368651" id="Fill-70" fill="#BC1142"></path>
            <path d="M23.1457466,33.557746 C24.5810648,36.9810794 32.1795648,36.178381 35.0160761,35.5490159 L35.5062352,35.4437778 C36.0667125,32.5094921 36.311792,24.7889365 34.5962352,20.5969524 C33.5104398,17.9412381 33.3005193,16.1243333 33.2653602,14.9017143 C32.8796443,15.1813175 32.0399625,15.8798095 30.5343261,17.4521905 C25.527258,22.7275079 22.6204284,31.286873 23.1457466,33.557746 M35.856792,38.6586984 C35.5062352,38.6586984 35.0863943,38.5534603 34.7006784,38.0994921 C31.7597239,38.623619 22.9358261,39.671873 20.8697125,34.3965556 L20.8345534,34.2913175 C19.8542352,30.9030635 23.5304284,21.3305238 28.7484511,15.8106825 C31.1992466,13.225127 32.249883,12.6659206 32.4949625,12.5617143 C33.5104398,12.1417937 34.2808375,11.8271111 35.0160761,12.3171905 C35.7161557,12.7711587 35.7161557,13.5398095 35.7161557,14.2032222 C35.7161557,15.1462381 35.7161557,16.8929841 36.8712352,19.7230635 C38.3427466,23.2867143 38.4120307,28.5269524 38.3779057,30.6234603 C38.2724284,37.8198889 36.9063943,38.3790952 36.4513943,38.5885397 C36.3469511,38.5885397 36.1359966,38.6586984 35.856792,38.6586984" id="Fill-72" fill="#000000"></path>
            <path d="M28.8882602,42.2916825 C30.3587375,38.8683492 34.9811239,50.3269206 32.775408,55.6373175 C30.5334989,61.0168413 29.8334193,61.8205714 27.6628625,62.1703333 C21.0798398,63.2536667 18.4191239,49.5231905 20.1698398,45.5757302 C21.9898398,41.0339841 28.8882602,42.2916825 28.8882602,42.2916825" id="Fill-74" fill="#BC1142"></path>
            <path d="M26.7523455,43.3747063 C24.8961523,43.3747063 22.2002773,43.7935952 21.2902773,45.9953413 C20.2396409,48.4055 21.1496409,55.6370079 23.9158341,59.1655794 C25.0016295,60.5635952 26.1567091,61.1217698 27.4875841,60.9123254 C28.8887773,60.6678016 29.3437773,60.5976429 31.6549705,55.112881 C33.1254477,51.5843095 31.0593341,45.086373 29.7636182,43.2354206 L29.5888568,43.6192302 L28.6778227,43.4448651 C28.6436977,43.4799444 27.8381409,43.3747063 26.7523455,43.3747063 M26.9622659,63.4277222 C25.1071068,63.4277222 23.3905159,62.4847063 21.9903568,60.6678016 C18.7691636,56.5459762 17.61305,48.3704206 19.0494023,45.0512937 C20.5891636,41.1739921 25.2818682,40.6498651 28.2931409,40.9985952 C28.8887773,40.4053413 29.6581409,40.3351825 30.2889364,40.6147857 C33.1606068,41.8023254 35.8564818,51.4450238 33.8958455,56.1260556 C31.6549705,61.5066111 30.7439364,62.9035952 27.8733,63.3926429 C27.5579023,63.3926429 27.2776636,63.4277222 26.9622659,63.4277222" id="Fill-76" fill="#000000"></path>
            <path d="M42.8944011,25.5225079 C43.8395602,21.5750476 45.5902761,18.7800476 47.4464693,18.1857619 C49.3026625,17.5925079 51.0182193,19.3041746 51.9282193,22.6573492 C52.8392534,26.0115556 52.8040943,30.5182222 51.8579011,34.4656825 C50.912742,38.4141746 49.1620261,41.2091746 47.305833,41.8024286 C45.4506739,42.3967143 43.735117,40.6850476 42.824083,37.3308413 C41.914083,33.9766349 41.914083,29.4699683 42.8944011,25.5225079" id="Fill-78" fill="#BC1142"></path>
            <path d="M48.181708,19.2688889 C48.0762307,19.2688889 47.9366284,19.3039683 47.8311511,19.3390476 C46.6409125,19.7228571 45.030833,21.8544444 44.0846398,25.8019048 C43.1746398,29.5399206 43.1394807,33.8371429 44.0153557,37.0159524 C44.5055148,38.8328571 45.2407534,40.1256349 46.0452761,40.5445238 C46.3255148,40.7199206 46.6057534,40.7199206 46.9211511,40.6497619 C48.1113898,40.2649206 49.7225034,38.1343651 50.6676625,34.1869048 C51.5786966,30.4478571 51.6128216,26.1516667 50.7379807,22.9718254 C50.2478216,21.1549206 49.512583,19.8631746 48.7070261,19.443254 C48.5322648,19.3390476 48.3564693,19.2688889 48.181708,19.2688889 M46.5705943,43.1300794 C45.975992,43.1300794 45.4155148,42.9907937 44.8550375,42.6761111 C43.4197193,41.9074603 42.2987648,40.1607143 41.6338443,37.6102381 C40.6886852,34.0816667 40.6886852,29.3304762 41.7041625,25.1735714 C42.7547989,20.7711111 44.7847193,17.6965079 47.0959125,16.9629365 C48.0421057,16.648254 49.0224239,16.7534921 49.8972648,17.2425397 C51.332583,18.0111905 52.4535375,19.7579365 53.118458,22.3084127 C54.0646511,25.8369841 54.0646511,30.5881746 53.0491739,34.7450794 C51.9985375,39.1475397 49.967583,42.2221429 47.6563898,42.9557143 C47.305833,43.095 46.9563102,43.1300794 46.5705943,43.1300794" id="Fill-80" fill="#000000"></path>
            <path d="M41.5987886,46.7634762 C44.6803795,46.6241905 47.586175,42.2918889 47.3410955,36.0735556 C47.0608568,29.7499841 44.2946636,25.8365714 41.1086295,25.9768889 C37.5017205,26.151254 34.0002886,32.1250635 34.3156864,36.7720476 C34.4552886,42.0473651 39.077675,46.8687143 41.5987886,46.7634762" id="Fill-82" fill="#BC1142"></path>
            <path d="M41.2837011,27.1994048 L41.1782239,27.1994048 C40.303383,27.2344841 39.3230648,27.8277381 38.3779057,28.8759921 C36.5217125,30.9374206 35.366633,34.1513095 35.5413943,36.7017857 L35.5413943,36.7368651 C35.6117125,39.8465476 37.5020307,42.6755952 39.0779852,44.1437698 C40.1979057,45.1909921 41.1089398,45.540754 41.5639398,45.5056746 C44.4697352,45.3663889 46.3259284,40.4398016 46.151167,36.0734524 C45.9753716,32.5098016 44.9257693,29.5053571 43.3498148,28.0382143 C42.6838602,27.4790079 41.9837807,27.1994048 41.2837011,27.1994048 M41.4936216,47.9859921 C40.2682239,47.9859921 38.7977466,47.2524206 37.3965534,45.9596429 C35.400758,44.1086905 33.195042,40.7194048 33.0905989,36.8421032 C32.8796443,33.6271825 34.2808375,29.7849603 36.5568716,27.2344841 C37.9570307,25.6971825 39.4978261,24.8232937 41.0737807,24.7541667 C42.4739398,24.6840079 43.8048148,25.2081349 44.9598943,26.2563889 C47.061167,28.1775 48.392042,31.7411508 48.5668034,36.0032937 C48.847042,43.269881 45.275292,47.811627 41.634258,47.9509127 C41.5990989,47.9859921 41.5639398,47.9859921 41.4936216,47.9859921" id="Fill-84" fill="#000000"></path>
            <path d="M32.1796682,40.7894603 C34.0358614,38.2389841 36.2064182,37.366127 37.921975,38.4484286 C39.6375318,39.5668413 40.61785,42.4660476 40.4782477,46.1349365 C40.3386455,49.7677143 39.1473727,53.6109683 37.2922136,56.1263651 C35.4360205,58.6768413 33.2654636,59.5496984 31.5499068,58.4673968 C29.8333159,57.3489841 28.8529977,54.4497778 28.9936341,50.7808889 C29.1332364,47.1481111 30.3586341,43.3399365 32.1796682,40.7894603" id="Fill-86" fill="#BC1142"></path>
            <path d="M36.3465375,39.2172857 C35.225583,39.2172857 34.0353443,40.300619 33.1605034,41.4881587 C31.4439125,43.8291905 30.323992,47.4268889 30.2185148,50.8161746 C30.1140716,53.9599048 30.8844693,56.5805397 32.2143102,57.4193492 C33.5451852,58.257127 35.191458,56.9292698 36.2762193,55.393 C37.9917761,53.0519683 39.1127307,49.4532381 39.218208,46.0649841 C39.3226511,42.9202222 38.5522534,40.300619 37.2224125,39.4618095 C36.9762989,39.2874444 36.6619352,39.2172857 36.3465375,39.2172857 M33.1253443,60.1792698 C32.3549466,60.1792698 31.5845489,59.9687937 30.8844693,59.5148254 C28.7831966,58.1529206 27.628117,54.9039524 27.7677193,50.7810952 C27.9083557,46.9027619 29.2030375,42.8160159 31.198833,40.0911746 C33.440742,36.9814921 36.2762193,35.9683175 38.5874125,37.4705397 C40.6886852,38.8334762 41.8437648,42.0824444 41.7041625,46.2042698 C41.5635261,50.0826032 40.2678102,54.1693492 38.2720148,56.8952222 C36.7312193,59.0257778 34.8760602,60.1792698 33.1253443,60.1792698" id="Fill-88" fill="#000000"></path>
            <path d="M31.5143341,25.1730556 C32.4243341,21.3999603 34.1057659,18.7101984 35.9257659,18.1509921 C37.7468,17.5917857 39.3930727,19.2343254 40.2679136,22.4482143 C41.1437886,25.6621032 41.1086295,29.9593254 40.1986295,33.7675 C39.2875955,37.5405952 37.6071977,40.2303571 35.7861636,40.7895635 C33.9651295,41.3487698 32.3198909,39.7062302 31.4440159,36.4923413 C30.569175,33.2784524 30.569175,28.9812302 31.5143341,25.1730556" id="Fill-90" fill="#BC1142"></path>
            <path d="M32.704883,25.4875317 C31.829008,29.0511825 31.794883,33.1730079 32.6345648,36.1774524 C33.0895648,37.8901508 33.8258375,39.1127698 34.5952011,39.5316587 C34.8754398,39.6719762 35.1556784,39.7060238 35.435917,39.6018175 C36.5568716,39.2520556 38.097667,37.2257063 39.007667,33.4526111 C39.882508,29.8889603 39.917667,25.7671349 39.0779852,22.7626905 C38.6229852,21.0510238 37.8867125,19.8284048 37.1163148,19.4084841 C36.8371102,19.2691984 36.5568716,19.234119 36.276633,19.3383254 C35.1556784,19.6880873 33.614883,21.7144365 32.704883,25.4875317 M35.0863943,42.1172143 C34.490758,42.1172143 33.9302807,41.9768968 33.4049625,41.663246 C32.0048034,40.8945952 30.919008,39.2169762 30.2540875,36.8068175 C29.3078943,33.4175317 29.3430534,28.8417381 30.3233716,24.893246 C31.374008,20.6311032 33.3005193,17.6968175 35.5413943,16.9983254 C36.4865534,16.7187222 37.4317125,16.788881 38.3075875,17.2779286 C39.7077466,18.0465794 40.793542,19.7231667 41.4584625,22.1333254 C42.4036216,25.5226111 42.3694966,30.0994365 41.3891784,34.0468968 C40.338542,38.3090397 38.4120307,41.2433254 36.1711557,41.9418175 C35.7864739,42.0470556 35.435917,42.1172143 35.0863943,42.1172143" id="Fill-92" fill="#000000"></path>
            <path d="M23.6709614,37.9945635 C23.5654841,44.1086905 27.06795,49.9772619 29.0978705,50.0123413 C31.5848591,50.0123413 34.1059727,45.1559127 34.1752568,37.9594841 C34.2104159,30.5876587 32.1443023,25.906627 29.5880295,25.8715476 C26.7173932,25.8364683 23.6358023,32.5799603 23.6709614,37.9945635" id="Fill-94" fill="#BC1142"></path>
            <path d="M29.5885466,27.0945794 C29.2731489,27.0945794 28.8181489,27.3391032 28.3631489,27.7930714 C26.4025125,29.7492619 24.861717,34.2910079 24.8968761,37.9949762 C24.7913989,43.8284683 28.0829102,48.6147381 29.1335466,48.7550556 C30.4292625,48.7550556 32.915217,45.052119 32.9855352,37.9248175 C33.0196602,30.902754 31.0590239,27.0945794 29.5885466,27.0945794 M29.1335466,51.235373 L29.1335466,51.235373 C28.2928307,51.235373 27.4179898,50.7814048 26.5772739,49.9075159 C24.440842,47.741881 22.3757625,42.9556111 22.4450466,37.9949762 C22.4109216,33.6626746 24.2660807,28.4575159 26.647592,26.0814048 C27.5927511,25.1383889 28.6082284,24.6493413 29.6237057,24.6493413 C33.1251375,24.6844206 35.4714898,30.0288651 35.4363307,37.9598968 C35.3660125,45.5411667 32.6701375,51.235373 29.1335466,51.235373" id="Fill-96" fill="#000000"></path>
            <path d="M1.26117727,48.1958492 C1.33149545,44.0729921 16.3878591,39.2175952 22.2708023,29.7152143 C24.2314386,26.535373 22.9005636,34.0114048 24.8963591,41.8722778 C26.8921545,49.7331508 22.7609614,60.9822778 19.0837341,60.912119 C6.58364318,60.7026746 1.19085909,52.3187063 1.26117727,48.1958492" id="Fill-98" fill="#FFFFFF"></path>
            <path d="M2.48678182,48.2307222 C2.41646364,51.5147698 7.14329318,59.4798492 19.1191,59.6892937 C19.5389409,59.6892937 20.1345773,59.2704048 20.7302136,58.501754 C23.2854523,55.2878651 25.1064864,47.6023889 23.7414864,42.186754 C22.7952932,38.4838175 22.5502136,34.8149286 22.4106114,32.4047698 C22.4106114,32.1953254 22.3754523,31.985881 22.3754523,31.7754048 C18.9443386,36.4574683 13.5515545,39.915881 9.14012273,42.7459603 C5.98821364,44.7372302 2.48678182,47.0081032 2.48678182,48.2307222 M19.1191,62.1355635 L19.0487818,62.1355635 C5.60353182,61.8910397 -0.0694909091,52.7724683 0.000827272727,48.1605635 C0.0359863636,45.6451667 3.25717955,43.5496905 7.73892955,40.6845317 C12.3613159,37.7151667 18.1387818,33.9771508 21.1852136,29.0505635 C21.4654523,28.5615159 22.1655318,27.4792143 23.2854523,27.7588175 C24.5118841,28.0724683 24.6163273,29.2950873 24.7910886,32.2304048 C24.931725,34.7107222 25.1416455,38.0989762 26.0516455,41.5584206 C27.6979182,47.951119 25.5966455,56.230881 22.5853727,60.0039762 C21.4995773,61.4360397 20.3444977,62.1355635 19.1191,62.1355635" id="Fill-100" fill="#000000"></path>
            <path d="M4.97283977,44.7372302 C4.97283977,44.7372302 8.36982841,49.1046111 4.34307841,54.1694524 L1.08569205,49.1046111 L4.97283977,44.7372302 Z" id="Fill-102" fill="#000000"></path>
            <path d="M17.333225,41.5929841 C18.2039295,41.5929841 18.9091795,42.2966349 18.9091795,43.1653651 C18.9091795,44.0330635 18.2039295,44.7367143 17.333225,44.7367143 C16.4625205,44.7367143 15.7572705,44.0330635 15.7572705,43.1653651 C15.7572705,42.2966349 16.4625205,41.5929841 17.333225,41.5929841" id="Fill-104" fill="#000000"></path>
        </g>
    </g>
</svg>