<?xml version="1.0" encoding="UTF-8" standalone="no"?>
<svg width="70px" height="18px" viewBox="0 0 70 18" version="1.1" xmlns="http://www.w3.org/2000/svg" xmlns:xlink="http://www.w3.org/1999/xlink">
    <!-- Generator: Sketch 3.7.2 (28276) - http://www.bohemiancoding.com/sketch -->
    <title>Typeface</title>
    <desc>Created with Sketch.</desc>
    <defs></defs>
    <g id="Page-1" stroke="none" stroke-width="1" fill="none" fill-rule="evenodd">
        <g id="Typeface" fill="#232323">
            <path d="M66.9114025,2.68976016 C66.9114025,3.83877996 67.3806644,4.41328986 68.0342791,4.41328986 C68.8387279,3.24445938 69.1571556,2.47184262 69.1571556,1.99638615 C69.1571556,1.38225488 68.4029848,0.510584693 67.7326107,0.510584693 C67.1963115,0.510584693 66.9114025,1.08509459 66.9114025,2.68976016 L66.9114025,2.68976016 Z M64.7494463,10.2178209 C64.3304625,11.4460834 64.1461096,12.2583216 64.1461096,13.1299917 C64.1461096,14.2195795 64.4812967,14.7346573 65.4700984,14.7346573 C67.0119586,14.7346573 69.6766954,11.3866514 69.6766954,10.1385781 C69.6766954,9.74236442 69.3415084,9.42539344 69.0230808,9.42539344 C67.9002042,11.3074086 67.1460335,11.9413506 66.9114025,11.9413506 C66.7605684,11.9413506 66.6767716,11.8621078 66.6767716,11.6441903 C66.6767716,11.1885445 66.8946432,10.5546025 67.363905,9.18766521 C67.6655733,8.35561639 67.9504823,7.52356757 67.9504823,7.00848973 C67.9504823,6.23587298 67.8834449,5.74060582 67.1125148,5.74060582 C66.073435,5.74060582 64.5818528,7.82072786 64.5818528,8.98955834 C64.5818528,9.38577207 64.6153715,9.84141785 64.7494463,10.2178209 L64.7494463,10.2178209 Z" id="i"></path>
            <path d="M20.5190049,11.5875928 C21.2096732,10.2970251 21.5254767,8.83781315 21.5254767,7.98914039 C21.5254767,6.99647652 20.9178969,6.05223528 19.7297407,6.05223528 C19.3246874,6.05223528 18.9736413,6.16118619 18.7036058,6.31855973 C18.6766022,5.91907305 18.3795632,5.61643163 17.9340046,5.61643163 C15.8412295,5.61643163 13.0328604,8.78811374 13.0328604,11.6450488 C13.0328604,13.7877501 14.0995006,14.8288366 16.0572579,14.8288366 C17.4478246,14.8288366 18.5868092,14.223365 19.3430842,13.3298569 C19.6082788,13.5074546 19.9220269,13.6035918 20.2588464,13.6035918 C23.2526042,13.6035918 23.4652469,10.9909204 23.4652469,10.2113716 C23.4652469,9.9471177 23.4131178,9.70110917 23.1769747,9.70110917 C22.3318308,10.9695277 21.2653872,11.6647678 20.7558152,11.6647678 C20.6473661,11.6647678 20.5711042,11.6396747 20.5190049,11.5875928 Z M17.3612098,7.90559927 C17.200096,8.45942258 17.1169756,9.05399023 17.1169756,9.74764279 C17.1169756,10.8366727 17.4009756,11.6652824 17.8597449,12.2689837 C17.597591,12.6832885 17.171591,12.8845223 16.7455909,12.8845223 C16.0355909,12.8845223 15.6642063,12.1624482 15.6642063,11.0970929 C15.6642063,9.21496513 17.4612918,7.56157047 17.3612098,7.90559927 L17.3612098,7.90559927 Z M19.5423333,11.0379065 C19.3992924,10.5762525 19.3456521,10.0317375 19.3456521,9.47538532 C19.3456521,8.8598467 19.4171725,8.24430807 19.488693,7.73530497 C19.9178155,7.79449138 19.998276,8.11409798 19.998276,8.64677563 C19.998276,9.01373135 19.8462951,10.2329713 19.5423333,11.0379065 L19.5423333,11.0379065 L19.5423333,11.0379065 Z" id="O"></path>
            <path d="M43.5351136,9.86147791 C42.5108037,11.3215835 41.1448185,12.2904199 40.133885,12.2904199 C39.3821556,12.2904199 39.0930289,11.8641124 39.0930289,10.7983438 C39.0930289,8.84120499 39.7676578,7.60103783 40.133885,7.60103783 C40.2495356,7.60103783 40.3844614,7.73668112 40.3844614,8.00796768 C40.3844614,8.25987664 40.3266361,8.70556171 40.1917103,9.22875723 C40.3459112,9.46128857 40.5964876,9.59693185 41.0205401,9.59693185 C41.9457455,9.59693185 42.8131255,8.60867365 42.8131255,7.36850649 C42.8131255,6.18647217 42.1577717,5.48887814 40.8470641,5.48887814 C38.9894619,5.48887814 36.8816748,7.87827296 36.4813203,10.5332919 C35.4288277,11.7563842 34.4331763,12.3679303 33.7923731,12.3679303 C33.3875957,12.3679303 33.2719451,12.1547766 33.2719451,11.6897139 C33.2719451,11.3990498 33.426146,10.3139035 33.946574,8.18236619 C34.5055522,8.27925425 34.9103296,8.29863186 35.3536572,8.29863186 C35.9897359,8.29863186 36.4716137,7.73668112 36.4716137,7.00033186 C36.4716137,6.70966769 36.3366879,6.36087067 36.1053865,6.18647217 C35.8548101,6.244605 35.0452554,6.30273784 34.4477269,6.32211545 C35.4693078,4.26808859 35.7006092,3.80302591 35.7006092,3.20231994 C35.7006092,2.36908263 32.3026109,3.19478765 32.1291349,4.9000175 C32.0520345,5.61698913 31.7877615,6.01207366 31.7684863,6.41900351 C30.9782067,6.43838112 30.5541543,6.98095425 30.5541543,7.58166022 C30.5541543,8.00796768 30.8818312,8.0467229 31.2673334,8.08547813 C30.5348792,10.5464348 30.3421281,11.7284692 30.3421281,12.2904199 C30.3421281,14.0731602 31.3444339,14.8482647 32.8286175,14.8482647 C34.0464999,14.8482647 35.4854889,13.8011976 36.534977,12.668019 C36.8236855,13.9753698 37.6402219,14.6932438 39.112304,14.6932438 C40.370363,14.6932438 41.8359307,13.774223 42.9190942,12.7177905 C42.8999364,12.8642044 42.890226,12.9940041 42.890226,13.1042796 C42.890226,14.2669363 43.1600775,14.9257751 44.2973092,14.9257751 C45.1646892,14.9257751 46.340471,14.1119154 47.2656764,12.3485527 C47.188576,12.7554826 47.1500257,13.084902 47.1500257,13.3561886 C47.1500257,14.3638244 47.6319035,14.6157333 48.4221831,14.6157333 C49.2317378,14.6157333 50.2533188,13.9956497 51.159249,13.18179 C52.2772055,12.1935318 53.2409611,10.9339871 53.2409611,10.236393 C53.2409611,9.88759603 52.8554589,9.63568708 52.4506815,9.63568708 C51.2170744,11.3796721 50.291869,12.1547766 49.8485414,12.1547766 C49.6943405,12.1547766 49.5786898,12.0966438 49.5786898,11.8447348 C49.5786898,11.4765602 50.3882445,9.6744423 50.7930219,8.56991843 C51.0821486,7.79481395 51.159249,7.40726171 51.159249,7.0584647 C51.159249,6.26398261 50.3689694,5.48887814 49.2895632,5.48887814 C49.0004365,5.48887814 48.6727596,5.60514381 48.4800085,5.85705277 C48.3836329,7.52352738 48.1137813,8.87996021 47.4584275,10.9727423 C47.0729253,11.3796721 46.4561217,11.8447348 46.1284448,11.8447348 C45.8585932,11.8447348 45.7429426,11.6509587 45.7429426,11.3409169 C45.7429426,11.0308751 45.8585932,10.4495468 46.0513443,9.75195275 C47.0343751,8.14361096 47.535528,6.98095425 47.535528,6.36087067 C47.535528,5.77954232 47.2078511,5.5857662 46.6103226,5.5857662 C45.2610648,5.5857662 43.410654,7.75605873 43.410654,8.95747066 C43.410654,9.25051952 43.4326958,9.55464786 43.5351136,9.86147791 L43.5351136,9.86147791 Z" id="tcu"></path>
            <path d="M6.83451343,1.25113673 C4.18762095,1.64735045 2.35059855,3.05390917 2.35059855,4.34160376 C2.35059855,5.03497778 2.82466885,5.39157013 3.25923328,5.39157013 C3.8123153,4.87649229 4.93823225,4.36141445 6.0641492,4.16330759 C5.57032598,6.22361894 4.85922053,9.47257146 4.22712681,11.7904217 C3.71355065,13.6526262 3.21972743,14.6035392 2.5876337,14.6035392 C2.21232805,14.6035392 1.79751654,14.3261896 1.38270503,13.8705438 C0.671599586,13.9101652 0,14.6431605 0,15.435588 C0,16.6242291 0.849375947,17.4166566 2.21232805,17.4166566 C4.38515024,17.4166566 6.00489042,15.8714231 6.97278394,13.1177377 C10.1530055,12.9790629 13.9258149,9.76973176 13.9258149,5.74816248 C13.9258149,3.37088015 12.6616275,1.42943291 9.1258532,1.17189399 C9.1258532,0.260602427 9.08634734,0.102116939 8.53326533,0.102116939 C7.9011716,0.102116939 6.99253687,0.597384091 6.83451343,1.25113673 L6.83451343,1.25113673 L6.83451343,1.25113673 L6.83451343,1.25113673 L6.83451343,1.25113673 L6.83451343,1.25113673 Z M10.8246051,6.61983267 C10.8246051,8.75938677 9.58017056,10.6810233 7.86166574,10.6810233 C7.80240695,10.6810233 7.68388938,10.6810233 7.58512474,10.6612126 C8.01968917,8.4226051 8.3752419,5.84721591 8.57277119,4.18311828 C10.3702877,4.51989994 10.8246051,5.51043424 10.8246051,6.61983267 L10.8246051,6.61983267 L10.8246051,6.61983267 L10.8246051,6.61983267 L10.8246051,6.61983267 L10.8246051,6.61983267 L10.8246051,6.61983267 L10.8246051,6.61983267 L10.8246051,6.61983267 Z" id="P"></path>
            <path d="M59.4428762,0.102116939 C58.8107824,0.102116939 57.9021477,0.597384091 57.7441243,1.25113673 C55.0972318,1.64735045 53.2602094,3.05390917 53.2602094,4.34160376 C53.2602094,5.03497778 53.7342797,5.39157013 54.1688441,5.39157013 C54.7219261,4.87649229 55.8478431,4.36141445 56.97376,4.16330759 C56.4799368,6.22361894 55.7688314,9.47257146 55.1367376,11.7904217 C54.6231615,13.6526262 54.1293383,14.6035392 53.4972445,14.6035392 C53.1219389,14.6035392 52.7071274,14.3261896 52.2923159,13.8705438 C51.5812104,13.9101652 50.9096108,14.6431605 50.9096108,15.435588 C50.9096108,16.6242291 51.7589868,17.4166566 53.1219389,17.4166566 C55.2947611,17.4166566 56.9145012,15.8714231 57.8823948,13.1177377 C61.0626163,12.9790629 64.8354258,9.76973176 64.8354258,5.74816248 C64.8354258,3.37088015 63.5712383,1.42943291 60.035464,1.17189399 C60.035464,0.260602427 59.9959582,0.102116939 59.4428762,0.102116939 L59.4428762,0.102116939 L59.4428762,0.102116939 L59.4428762,0.102116939 L59.4428762,0.102116939 L59.4428762,0.102116939 L59.4428762,0.102116939 L59.4428762,0.102116939 L59.4428762,0.102116939 L59.4428762,0.102116939 L59.4428762,0.102116939 L59.4428762,0.102116939 L59.4428762,0.102116939 L59.4428762,0.102116939 L59.4428762,0.102116939 L59.4428762,0.102116939 Z M61.7342159,6.61983267 C61.7342159,8.75938677 60.4897814,10.6810233 58.7712766,10.6810233 C58.7120178,10.6810233 58.5935002,10.6810233 58.4947356,10.6612126 C58.9293,8.4226051 59.2848527,5.84721591 59.482382,4.18311828 C61.2798985,4.51989994 61.7342159,5.51043424 61.7342159,6.61983267 L61.7342159,6.61983267 L61.7342159,6.61983267 L61.7342159,6.61983267 L61.7342159,6.61983267 L61.7342159,6.61983267 L61.7342159,6.61983267 L61.7342159,6.61983267 L61.7342159,6.61983267 L61.7342159,6.61983267 L61.7342159,6.61983267 L61.7342159,6.61983267 L61.7342159,6.61983267 L61.7342159,6.61983267 L61.7342159,6.61983267 L61.7342159,6.61983267 Z" id="P"></path>
            <path d="M25.0481482,11.5996279 C24.951935,11.5976716 24.8289508,11.5946414 24.6353636,11.6100379 L24.6353636,11.6100379 C24.6550994,12.4371028 24.2252575,13.471543 24.1015586,13.7969708 C23.2850316,15.298763 22.2156378,15.0070167 21.7356729,14.6027222 C21.3761307,14.2998649 21.7694746,13.8731316 22.2156378,13.0941661 C22.5938904,12.4337672 22.1263448,13.2633916 22.7450755,11.6848664 C22.9180478,11.2382602 22.7450755,10.6343804 22.7450755,10.6343804 C22.7450755,10.6343804 23.6198129,9.16348182 23.3541666,7.58332408 C22.1598724,7.70860385 22.1023161,5.61643163 25.1671915,5.61643163 C25.1714422,5.61643163 25.1740025,5.62170782 25.1750144,5.63196301 C25.526287,5.59807202 25.8740915,5.62075563 26.0645463,5.68917399 C28.2187041,5.8071205 29.3562837,7.13677235 29.3562837,8.22550934 C29.3562837,9.36951259 28.4694609,10.3699984 27.3331761,10.979102 C27.3356275,11.4235026 27.561047,12.2114813 28.2381708,12.2114813 C28.8546887,12.2114813 30.3472372,11.4731365 31.3697547,9.70110917 C31.6554581,9.70110917 31.9712356,9.95952982 31.9712356,10.3287022 C31.9712356,11.4177606 29.6705713,14.7218532 27.9413138,14.7218532 C26.7961237,14.7218532 25.0854229,13.2743756 25.0481482,11.5996279 Z M27.0995048,8.18419627 C27.0995048,9.16405956 26.3413376,10.044122 25.2943447,10.044122 C25.2582415,10.044122 25.1860351,10.044122 25.1258631,10.0350492 C25.3906199,9.00982182 25.6072391,7.83035674 25.7275831,7.06824085 C26.8227136,7.22247859 27.0995048,7.676119 27.0995048,8.18419627 L27.0995048,8.18419627 L27.0995048,8.18419627 L27.0995048,8.18419627 L27.0995048,8.18419627 Z" id="R"></path>
        </g>
    </g>
</svg>