<?xml version="1.0" standalone="no"?>
<!DOCTYPE svg PUBLIC "-//W3C//DTD SVG 20010904//EN"
 "http://www.w3.org/TR/2001/REC-SVG-20010904/DTD/svg10.dtd">
<svg version="1.0" xmlns="http://www.w3.org/2000/svg"
 width="198.000000pt" height="198.000000pt" viewBox="0 0 198.000000 198.000000"
 preserveAspectRatio="xMidYMid meet">
<metadata>
Created by potrace 1.11, written by Peter Selinger 2001-2013
</metadata>
<g transform="translate(0.000000,198.000000) scale(0.100000,-0.100000)"
fill="#000000" stroke="none">
<path d="M1154 1654 c-58 -39 -112 -94 -142 -144 l-27 -45 -3 43 c-3 47 -17
58 -56 48 -38 -9 -80 -50 -106 -103 -13 -26 -26 -50 -27 -52 -2 -3 -9 4 -17
14 -48 66 -214 -114 -299 -325 -31 -76 -130 -163 -347 -304 -50 -32 -100 -72
-111 -87 -53 -74 33 -224 168 -292 63 -32 223 -73 343 -87 174 -20 283 -25
620 -25 365 0 499 8 670 35 96 16 114 21 139 37 20 13 21 17 9 29 -7 8 -37 20
-66 26 -41 10 -51 16 -46 30 2 9 7 42 9 74 3 43 10 63 29 83 83 89 88 165 13
246 -19 21 -38 80 -57 178 -12 62 -37 97 -69 97 -18 0 -35 46 -56 148 -6 28
-24 47 -48 51 -13 2 -67 -29 -67 -39 0 -26 -18 -6 -30 33 -22 75 -44 117 -65
124 -30 11 -38 10 -61 -4 -20 -13 -21 -12 -19 53 2 46 -2 70 -12 80 -28 27
-80 14 -137 -36 -40 -36 -42 -32 -21 53 7 33 11 65 8 73 -9 24 -76 17 -119
-12z"/>
</g>
</svg>
